<?xml version="1.0" standalone="no"?>
<!DOCTYPE svg PUBLIC "-//W3C//DTD SVG 1.1//EN" "http://www.w3.org/Graphics/SVG/1.1/DTD/svg11.dtd" >
<svg xmlns="http://www.w3.org/2000/svg" xmlns:xlink="http://www.w3.org/1999/xlink" version="1.1">
<metadata>
Created by FontForge 20170731 at Thu Jul  6 04:49:21 2023
 By Aleksey,,,
StandardShaded Sans (c)2012 Lee Schulz, Standard Sans (c)2012 Yes Please, Inc. All Rights Reserved. Info: www.yes-please.com
</metadata>
<defs>
<font id="StandardShaded-Sans" horiz-adv-x="1417" >
  <font-face 
    font-family="StandardShaded Sans"
    font-weight="400"
    font-stretch="normal"
    units-per-em="2048"
    panose-1="2 0 0 0 0 0 0 0 0 0"
    ascent="1638"
    descent="-410"
    x-height="1196"
    cap-height="1401"
    bbox="-297.286 -389 3203 1823"
    underline-thickness="102"
    underline-position="-225"
    unicode-range="U+000D-FB06"
  />
<missing-glyph horiz-adv-x="540" 
 />
    <glyph glyph-name="fi" unicode="fi" horiz-adv-x="2033" 
d="M1130 1155h-239v43q0 45 43 45h199q12 0 12 12v226q0 14 -12 14h-439q-90 0 -135 -45t-45 -129v-166h-190q-17 0 -17 -14v-256q0 -6 5.5 -10.5t11.5 -4.5h180v-551q0 -12 14 -12h361q12 0 12 12v551h239q15 0 15 15v256q0 14 -15 14zM199 563h-160q-14 0 -14 15v344
q0 14 10 24l162 166v16q0 21 12 33l301 309q63 66 180 66h481q8 0 13.5 -5.5t5.5 -14.5v-281q0 -8 -8 -16l-25 -23h17q6 0 11 -5.5t5 -12.5v-326q0 -10 -8 -18l-246 -252v-295q0 -9 -8 -17l-254 -260q-10 -10 -25 -10h-434q-16 0 -16 14v549zM1296 958h-30q-6 0 -10.5 4.5
t-4.5 10.5v266q0 12 6 18l261 269q10 10 22 10h430q19 0 19 -18v-281q0 -9 -9 -18l-26 -23h16q8 0 13.5 -5.5t5.5 -12.5v-889q0 -10 -9 -19l-256 -262q-8 -8 -20 -8h-438q-15 0 -15 14v889q0 9 6 15zM1573 307h358q13 0 13 12v824q0 12 -13 12h-358q-6 0 -11.5 -4t-5.5 -10
v-822q0 -12 17 -12zM1571 1245h360q13 0 13 15v221q0 6 -4 10t-9 4h-360q-15 0 -15 -14v-221q0 -6 4.5 -10.5t10.5 -4.5z" />
    <glyph glyph-name="fl" unicode="fl" horiz-adv-x="2035" 
d="M1130 1155h-239v43q0 45 43 45h199q12 0 12 12v226q0 14 -12 14h-439q-90 0 -135 -45t-45 -129v-166h-190q-17 0 -17 -14v-256q0 -6 5.5 -10.5t11.5 -4.5h180v-551q0 -12 14 -12h361q12 0 12 12v551h239q15 0 15 15v256q0 14 -15 14zM199 563h-160q-14 0 -14 15v344
q0 14 10 24l162 166v16q0 21 12 33l301 309q63 66 180 66h481q8 0 13.5 -5.5t5.5 -14.5v-281q0 -8 -8 -16l-25 -23h17q6 0 11 -5.5t5 -12.5v-326q0 -10 -8 -18l-246 -252v-295q0 -9 -8 -17l-254 -260q-10 -10 -25 -10h-434q-16 0 -16 14v549zM1573 307h360q13 0 13 12v1162
q0 6 -4 10t-9 4h-360q-5 0 -9.5 -4t-4.5 -10v-1159q0 -15 14 -15zM1704 0h-436q-15 0 -15 14v1229q0 7 7 14l260 269q10 10 22 10h430q8 0 13.5 -5.5t5.5 -14.5v-1229q0 -8 -9 -17l-256 -262q-8 -8 -22 -8z" />
    <glyph glyph-name="f_f_i" unicode="ffi" horiz-adv-x="3233" 
d="M1130 1155h-239v43q0 45 43 45h199q12 0 12 12v226q0 14 -12 14h-439q-90 0 -135 -45t-45 -129v-166h-190q-17 0 -17 -14v-256q0 -6 5.5 -10.5t11.5 -4.5h180v-551q0 -12 14 -12h361q12 0 12 12v551h239q15 0 15 15v256q0 14 -15 14zM199 563h-160q-14 0 -14 15v344
q0 14 10 24l162 166v16q0 21 12 33l301 309q63 66 180 66h481q8 0 13.5 -5.5t5.5 -14.5v-281q0 -8 -8 -16l-25 -23h17q6 0 11 -5.5t5 -12.5v-326q0 -10 -8 -18l-246 -252v-295q0 -9 -8 -17l-254 -260q-10 -10 -25 -10h-434q-16 0 -16 14v549zM2333 1155h-240v43q0 45 43 45
h199q12 0 12 12v226q0 14 -12 14h-439q-90 0 -135 -45t-45 -129v-166h-190q-17 0 -17 -14v-256q0 -6 5.5 -10.5t11.5 -4.5h180v-551q0 -12 14 -12h361q12 0 12 12v551h240q14 0 14 15v256q0 14 -14 14zM1401 563h-160q-14 0 -14 15v344q0 14 10 24l162 166v16q0 21 12 33
l301 309q63 66 180 66h482q18 0 18 -20v-281q0 -8 -8 -16l-25 -23h17q6 0 11 -5.5t5 -12.5v-326q0 -10 -8 -18l-246 -252v-295q0 -9 -8 -17l-254 -260q-10 -10 -25 -10h-434q-16 0 -16 14v549zM2497 958h-31q-6 0 -10.5 4.5t-4.5 10.5v266q0 11 7 18l260 269q10 10 22 10
h430q19 0 19 -18v-281q0 -10 -8 -18l-27 -23h16q8 0 13.5 -5.5t5.5 -12.5v-889q0 -11 -8 -19l-256 -262q-8 -8 -21 -8h-438q-15 0 -15 14v889q0 8 7 15zM2773 307h358q13 0 13 12v824q0 12 -13 12h-358q-6 0 -11 -4t-5 -10v-822q0 -12 16 -12zM2771 1245h360q13 0 13 15v221
q0 6 -4 10t-9 4h-360q-14 0 -14 -14v-221q0 -15 14 -15z" />
    <glyph glyph-name="f_f_l" unicode="ffl" horiz-adv-x="3237" 
d="M1130 1155h-239v43q0 45 43 45h199q12 0 12 12v226q0 14 -12 14h-439q-90 0 -135 -45t-45 -129v-166h-190q-17 0 -17 -14v-256q0 -6 5.5 -10.5t11.5 -4.5h180v-551q0 -12 14 -12h361q12 0 12 12v551h239q15 0 15 15v256q0 14 -15 14zM199 563h-160q-14 0 -14 15v344
q0 14 10 24l162 166v16q0 21 12 33l301 309q63 66 180 66h481q8 0 13.5 -5.5t5.5 -14.5v-281q0 -8 -8 -16l-25 -23h17q6 0 11 -5.5t5 -12.5v-326q0 -10 -8 -18l-246 -252v-295q0 -9 -8 -17l-254 -260q-10 -10 -25 -10h-434q-16 0 -16 14v549zM2333 1155h-240v43q0 45 43 45
h199q12 0 12 12v226q0 14 -12 14h-439q-90 0 -135 -45t-45 -129v-166h-190q-17 0 -17 -14v-256q0 -6 5.5 -10.5t11.5 -4.5h180v-551q0 -12 14 -12h361q12 0 12 12v551h240q14 0 14 15v256q0 14 -14 14zM1401 563h-160q-14 0 -14 15v344q0 14 10 24l162 166v16q0 21 12 33
l301 309q63 66 180 66h482q18 0 18 -20v-281q0 -8 -8 -16l-25 -23h17q6 0 11 -5.5t5 -12.5v-326q0 -10 -8 -18l-246 -252v-295q0 -9 -8 -17l-254 -260q-10 -10 -25 -10h-434q-16 0 -16 14v549zM2775 307h360q13 0 13 12v1162q0 6 -4 10t-9 4h-360q-5 0 -9.5 -4t-4.5 -10
v-1159q0 -15 14 -15zM2906 0h-436q-14 0 -14 14v1229q0 8 6 14l260 269q10 10 22 10h430q8 0 13.5 -5.5t5.5 -14.5v-1229q0 -9 -8 -17l-256 -262q-8 -8 -23 -8z" />
    <glyph glyph-name=".notdef" horiz-adv-x="540" 
 />
    <glyph glyph-name=".null" horiz-adv-x="0" 
 />
    <glyph glyph-name="nonmarkingreturn" horiz-adv-x="682" 
 />
    <glyph glyph-name="NUL" horiz-adv-x="1024" 
 />
    <glyph glyph-name="NUL" horiz-adv-x="1024" 
 />
    <glyph glyph-name="CR" unicode="&#xd;" horiz-adv-x="499" 
 />
    <glyph glyph-name="space" unicode=" " horiz-adv-x="499" 
 />
    <glyph glyph-name="exclam" unicode="!" horiz-adv-x="835" 
d="M504 0h-445q-14 0 -14 14v389q0 9 6 15l51 53h-43q-14 0 -14 14v623q0 8 6 14l260 269q10 10 23 10h438q8 0 13.5 -5.5t5.5 -13.5v-637q0 -7 -9 -16l-32 -33h24q17 0 17 -18v-391q0 -8 -9 -17l-256 -262q-11 -8 -22 -8zM367 766h366q12 0 12 14v568q0 12 -12 12h-366
q-6 0 -11.5 -4t-5.5 -10v-566q0 -14 17 -14zM367 307h366q12 0 12 15v319q0 14 -12 14h-366q-6 0 -11.5 -5t-5.5 -11v-317q0 -15 17 -15z" />
    <glyph glyph-name="quotedbl" unicode="&#x22;" horiz-adv-x="1175" 
d="M850 526h-293q-14 0 -14 15l-8 141l-144 -147q-9 -9 -22 -9h-291q-13 0 -17 15l-32 567q0 8 6 14l260 269q10 10 22 10h345q7 0 12.5 -5.5t5.5 -13.5l-4 -98l102 107q10 10 23 10h346q6 0 11.5 -6t4.5 -13l-26 -567q0 -9 -9 -18l-256 -262q-9 -9 -22 -9zM383 834h215
q11 0 14 14l23 495q0 17 -12 17h-273q-16 0 -16 -17l35 -495q0 -14 14 -14zM866 834h215q13 0 13 14l24 495q0 17 -14 17h-273q-14 0 -14 -17l33 -495q3 -14 16 -14z" />
    <glyph glyph-name="numbersign" unicode="#" horiz-adv-x="1265" 
d="M838 885h-142v119h142v-119zM1034 700h140q14 0 14 15v159q0 13 -14 13h-140v114h140q14 0 14 15v158q0 14 -14 14h-140v158q0 14 -14 14h-170q-14 0 -14 -14v-158h-138v158q0 14 -12 14h-170q-16 0 -16 -17v-155h-152q-6 0 -10 -4.5t-4 -9.5v-158q0 -15 14 -15h152v-114
h-152q-14 0 -14 -15v-157q0 -15 14 -15h152v-172q0 -14 14 -14h172q12 0 12 14v172h138v-172q0 -14 14 -14h170q14 0 14 14v172zM195 393h-152q-14 0 -14 15v227q0 8 6 14l43 45h-35q-14 0 -14 15v225q0 10 6 16l426 441q10 10 22 10h242q7 0 12.5 -5.5t5.5 -13.5v-61l68 70
q10 10 23 10h229q6 0 11 -6t5 -13v-153h138q16 0 16 -19v-227q0 -10 -8 -18l-37 -37h29q6 0 11 -6t5 -13v-227q0 -10 -8 -18l-146 -150v-20q0 -9 -8 -17l-256 -262q-11 -8 -22 -8h-222q-14 0 -14 14v74l-78 -80q-8 -8 -20 -8h-248q-16 0 -16 14v172z" />
    <glyph glyph-name="dollar" unicode="$" horiz-adv-x="1349" 
d="M641 307h356q13 0 13 12v127h172q40 0 65 24t25 65v292q0 39 -26 61.5t-64 22.5h-437q-15 0 -29 13.5t-14 27.5v19q0 15 13 27t28 12h517q12 0 12 16v199q0 6 -5.5 10t-11.5 4h-245v109q0 12 -13 12h-354q-16 0 -16 -17v-104h-193q-41 0 -65.5 -23t-24.5 -63v-293
q0 -35 29 -59.5t63 -24.5h438q15 0 28 -11.5t13 -29.5v-20q0 -17 -12.5 -29t-28.5 -12h-514q-6 0 -11 -5t-5 -10v-196q0 -7 5 -12t11 -5h267v-127q0 -12 14 -12zM768 0h-430q-16 0 -16 14v125h-267q-16 0 -16 13v264q0 14 8 22l41 43l-2 2q-21 7 -34 25t-13 39v350
q0 32 7.5 50t25.5 38l233 242q53 53 123 53h53l107 111q10 10 22 10h426q8 0 13.5 -5.5t5.5 -13.5v-102h241q21 0 21 -18v-250q0 -22 -14 -39l-41 -43q23 -8 39 -33t16 -59v-312q0 -57 -43 -94l-246 -250q-25 -25 -47.5 -34t-60.5 -9l-129 -131q-11 -8 -23 -8z" />
    <glyph glyph-name="percent" unicode="%" horiz-adv-x="2240" 
d="M764 307h328q12 0 22 15l629 1013q5 6 2 15.5t-12 9.5h-328q-15 0 -25 -17l-630 -1011q-5 -8 -0.5 -16.5t14.5 -8.5zM1630 307h443q40 0 65 23.5t25 64.5v371q0 41 -24 63.5t-66 22.5h-443q-41 0 -65.5 -23t-24.5 -63v-371q0 -39 26 -63.5t64 -24.5zM1896 496h-71
q-12 0 -22.5 9.5t-10.5 22.5v119q0 15 9.5 25t23.5 10h71q13 0 22 -10t9 -25v-119q0 -14 -9 -23t-22 -9zM428 815h442q40 0 65.5 23.5t25.5 64.5v371q0 41 -24.5 63.5t-66.5 22.5h-442q-41 0 -65.5 -23t-24.5 -63v-371q0 -39 26 -63.5t64 -24.5zM694 1004h-71
q-12 0 -22.5 9.5t-10.5 22.5v119q0 15 9.5 25t23.5 10h71q13 0 22 -10t9 -25v-119q0 -14 -9 -23t-22 -9zM567 508h-442q-39 0 -65.5 24.5t-26.5 63.5v422q0 32 7.5 50t25.5 38l233 242q53 53 123 53h452q62 0 97 -30.5t35 -90.5v-236l335 347q10 10 27 10h389q26 0 37 -24
t-8 -56l-311 -506q69 78 149 78h453q62 0 96.5 -30.5t34.5 -90.5v-383q0 -56 -43 -96l-246 -250q-49 -43 -117 -43h-475q-39 0 -65.5 24.5t-26.5 63.5v336l-72 -121q-14 -23 -30 -39l-248 -254q-10 -10 -27 -10h-526q-8 0 -13 9t0 18l308 489q-24 -8 -60 -8z" />
    <glyph glyph-name="ampersand" unicode="&#x26;" horiz-adv-x="1632" 
d="M1479 741h75q6 0 10.5 4.5t4.5 10.5v157q0 6 -4.5 10.5t-10.5 4.5h-544q-6 0 -11.5 -4.5t-5.5 -10.5v-157q0 -15 17 -15h75v-110q0 -13 -10 -23t-26 -10h-273q-17 0 -27 9.5t-10 23.5v71q0 39 37 39h92q11 0 11 13v164q0 10 -11 10h-92q-17 0 -27 10.5t-10 24.5v69
q0 39 37 39h180q17 0 28 -11t11 -26v-8q0 -14 13 -14h370q4 0 8.5 4.5t4.5 9.5v248q0 42 -25 64t-66 22h-866q-42 0 -67 -22.5t-25 -61.5v-320q0 -33 21 -67t53 -45q3 -2 3 -4t-3 -2q-34 -12 -54 -45t-20 -74v-324q0 -42 25.5 -65t66.5 -23h955q39 0 64.5 23.5t25.5 62.5
v348zM1436 1282v-313h161q7 0 12 -5.5t5 -13.5v-229q0 -8 -8 -16l-82 -84v-230q0 -52 -49 -104l-240 -244q-46 -43 -115 -43h-989q-44 0 -69 25t-25 65v447q0 35 29 61l20 18l-4 2q-20 7 -32.5 30.5t-12.5 47.5v322q0 52 33 88l233 242q29 29 58 41t73 12h869q60 0 96.5 -33
t36.5 -86z" />
    <glyph glyph-name="quotesingle" unicode="'" horiz-adv-x="692" 
d="M383 834h215q14 0 14 14l23 495q0 17 -12 17h-273q-16 0 -16 -17l35 -495q0 -14 14 -14zM369 526h-291q-7 0 -12 5t-5 10l-32 567q0 8 6 14l260 269q10 10 22 10h345q7 0 12.5 -5.5t5.5 -13.5l-25 -567q0 -10 -8 -18l-256 -262q-12 -9 -22 -9z" />
    <glyph glyph-name="parenleft" unicode="(" horiz-adv-x="915" 
d="M745 1038h84q5 0 9 4.5t4 10.5v293q0 14 -13 14h-241q-242 0 -242 -232v-978q0 -110 67 -171t193 -61h223q13 0 13 14v293q0 13 -13 13h-86q-19 0 -31 12.5t-12 32.5v708q0 22 12.5 34.5t32.5 12.5zM602 -389h-293q-129 0 -198.5 62t-69.5 167v1049q0 64 19.5 113
t45.5 75l222 226q56 56 115.5 77t138.5 21h286q8 0 13.5 -6t5.5 -15v-358q0 -13 -8 -21l-134 -135v-579q0 -3 3.5 -5.5t5.5 -2.5h112q9 0 15 -6t6 -15v-360q0 -9 -8 -17l-254 -260q-10 -10 -23 -10z" />
    <glyph glyph-name="parenright" unicode=")" horiz-adv-x="921" 
d="M438 240h-86q-5 0 -8.5 -4.5t-3.5 -10.5v-293q0 -14 12 -14h242q242 0 242 229v981q0 111 -62.5 171.5t-187.5 60.5h-232q-14 0 -14 -14v-295q0 -13 12 -13h88q19 0 31 -12.5t12 -32.5v-706q0 -22 -12.5 -34.5t-32.5 -12.5zM324 1401h266q144 0 217.5 -71t73.5 -200v-989
q0 -72 -23 -126t-78 -109l-194 -199q-55 -55 -113 -75.5t-137 -20.5h-283q-18 0 -18 20v351q0 14 8 22l135 139v531q0 43 -39 43h-84q-20 0 -20 20v371q0 8 8 16l258 267q10 10 23 10z" />
    <glyph glyph-name="asterisk" unicode="*" horiz-adv-x="808" 
d="M188 647l2 58l-32 -23q-16 -9 -29 4l-109 141q-14 23 0 37l68 72l-74 55q-8 5 -8 17t8 18l318 330q8 8 19.5 10t19.5 -4l10 -8l25 28q16 19 34 19h174q8 0 13.5 -5t5.5 -12l-2 -41l20 15q15 10 31.5 9t22.5 -11l94 -137q12 -15 0 -31l-60 -64l60 -45q12 -8 2 -24
l-105 -146q-6 -8 -20 -22l-199 -203q-5 -5 -13 -5.5t-13 3.5l-13 10l-57 -57q-6 -6 -21 -6h-151q-9 0 -15 6t-6 12zM287 1051l69 -95q11 -11 23 -2l76 66l-4 -105q0 -14 14 -14h113q12 0 12 14l-4 105l69 -66q3 -3 10.5 -2.5t10.5 4.5l72 97q3 3 1.5 8t-6.5 8l-96 64l101 63
q4 3 4 10t-4 13l-66 92q-8 11 -23 0l-73 -64l4 101q0 4 -4 8t-8 4h-113q-14 0 -14 -14l4 -99l-78 64q-9 9 -21 -2l-69 -95q-6 -10 2 -18l110 -63l-110 -64q-10 -6 -2 -18z" />
    <glyph glyph-name="plus" unicode="+" horiz-adv-x="1288" 
d="M705 104h-375q-6 0 -10.5 4.5t-4.5 10.5v260h-264q-14 0 -14 14v336q0 8 6 14l260 269q10 10 23 10h16l240 246q10 10 22 10h367q8 0 13 -6t5 -15v-235h244q8 0 13 -6t5 -15v-329q0 -11 -8 -19l-254 -260v-2q0 -8 -8 -16l-256 -262q-9 -9 -20 -9zM637 412h295q12 0 12 14
v264h250q12 0 12 15v264q0 12 -12 12h-250v244q0 12 -12 12h-295q-16 0 -16 -14v-242h-263q-16 0 -16 -14v-262q0 -15 16 -15h263v-264q0 -14 16 -14z" />
    <glyph glyph-name="comma" unicode="," horiz-adv-x="823" 
d="M541 297v-150q0 -14 14 -14h166q12 0 12 14v494q0 14 -12 14h-367q-7 0 -11.5 -4.5t-4.5 -9.5v-319q0 -15 16 -15h176q11 0 11 -10zM240 0h-193q-14 0 -14 14v389q0 9 6 15l260 268q10 10 23 10h440q16 0 16 -18v-563q0 -11 -8 -19l-254 -260q-10 -10 -22 -10h-226
q-7 0 -12.5 5t-5.5 11v146q0 12 -10 12z" />
    <glyph glyph-name="hyphen" unicode="-" horiz-adv-x="1058" 
d="M356 621h609q12 0 12 14v297q0 12 -12 12h-609q-16 0 -16 -14v-295q0 -14 16 -14zM737 313h-688q-14 0 -14 15v364q0 9 6 15l260 268q10 10 23 10h680q18 0 18 -20v-365q0 -8 -8 -16l-256 -262q-9 -9 -21 -9z" />
    <glyph glyph-name="period" unicode="." horiz-adv-x="823" 
d="M354 307h365q6 0 10 5t4 10v319q0 14 -12 14h-367q-6 0 -11 -4.5t-5 -9.5v-319q0 -5 5 -10t11 -5zM489 0h-442q-14 0 -14 14v389q0 9 6 15l260 268q10 10 23 10h440q16 0 16 -18v-389q0 -11 -8 -19l-254 -260q-10 -10 -27 -10z" />
    <glyph glyph-name="slash" unicode="/" horiz-adv-x="1054" 
d="M135 57h336q19 0 29 19l674 1397q4 9 0 15.5t-13 6.5h-338q-17 0 -24 -14l-678 -1399q-5 -8 -0.5 -16.5t14.5 -8.5zM238 -250h-451q-12 0 -20.5 13t-2.5 26l685 1409q11 18 16 23l289 299q16 16 34 16h386q29 0 41.5 -23t-1.5 -57l-677 -1409q-5 -10 -19 -24l-258 -265
q-8 -8 -22 -8z" />
    <glyph glyph-name="zero" unicode="0" horiz-adv-x="1574" 
d="M432 307h971q41 0 65.5 24t24.5 64v879q0 41 -24 63.5t-66 22.5h-971q-41 0 -65.5 -23t-24.5 -63v-879q0 -40 25.5 -64t64.5 -24zM1135 0h-1006q-42 0 -67 24t-25 64v930q0 52 33 88l233 242q50 53 123 53h981q62 0 96.5 -30.5t34.5 -90.5v-891q0 -49 -45 -98l-244 -248
q-43 -43 -114 -43zM1057 598h-275q-20 0 -31.5 12.5t-11.5 32.5v381q0 20 12.5 33.5t32.5 13.5h273q43 0 43 -47v-381q0 -20 -12 -32.5t-31 -12.5z" />
    <glyph glyph-name="one" unicode="1" horiz-adv-x="1404" 
d="M1047 1360h-637q-17 0 -17 -14v-293q0 -15 17 -15h225v-411h-289q-6 0 -11 -5t-5 -10v-290q0 -15 16 -15h981q12 0 12 15v290q0 15 -14 15h-264v721q0 4 -4.5 8t-9.5 4zM334 717h-232q-14 0 -14 14v377q0 8 6 14l260 269q10 10 23 10h713q16 0 16 -19v-714h260
q7 0 12.5 -5.5t5.5 -13.5v-362q0 -9 -8 -17l-256 -262q-11 -8 -24 -8h-1057q-14 0 -14 14v359q0 7 6 16l260 268q11 11 22 11h21v49z" />
    <glyph glyph-name="two" unicode="2" horiz-adv-x="1574" 
d="M342 831v-509q0 -15 16 -15h1123q12 0 12 15v290q0 15 -14 15h-731q-9 0 -9 6v61q0 14 9 23.5t24 9.5h631q44 0 67 23.5t23 66.5v457q0 40 -24.5 63t-65.5 23h-971q-41 0 -65.5 -22t-24.5 -64v-262q0 -5 4 -9t8 -4h373q12 0 12 13v22q0 15 11 26t28 11h285
q16 0 26.5 -9.5t10.5 -27.5v-82q0 -32 -37 -32h-631q-42 0 -66 -24.5t-24 -64.5zM1493 711l-43 -43h70q7 0 12.5 -6.5t5.5 -14.5v-358q0 -14 -8 -19l-256 -262q-8 -8 -23 -8h-1200q-14 0 -14 14v566q0 53 33 86l36 36h-55q-14 0 -14 15v301q0 52 33 88l233 242q29 29 58 41
t73 12h971q61 0 97 -33t36 -86v-469q0 -57 -45 -102z" />
    <glyph glyph-name="three" unicode="3" horiz-adv-x="1574" 
d="M727 698h-371q-4 0 -9 -4.5t-5 -7.5v-291q0 -40 25.5 -64t64.5 -24h971q40 0 65 23t25 65v324q0 41 -20 74t-54 45q-1 2 -1 4t1 2q33 11 53.5 45t20.5 69v318q0 39 -25 61.5t-65 22.5h-971q-41 0 -65.5 -22t-24.5 -64v-279q0 -4 4.5 -8t9.5 -4h371q12 0 12 12v39
q0 15 11 26t28 11h285q37 0 37 -37v-67q0 -33 -37 -33h-236q-12 0 -12 -12v-166q0 -3 4 -7t8 -4h236q37 0 37 -36v-76q0 -15 -9.5 -25t-27.5 -10h-285q-17 0 -28 10.5t-11 24.5v51q0 5 -4 9.5t-8 4.5zM1135 0h-1004q-44 0 -69 25t-25 65v334q0 10 6 16l172 193h-164
q-6 0 -10 4.5t-4 9.5v371q0 52 33 88l233 242q29 29 58 41t73 12h971q61 0 97 -33t36 -86v-330q0 -66 -33 -102l-10 -14q14 -8 28.5 -42.5t14.5 -64.5v-336q0 -54 -45 -102l-244 -248q-49 -43 -114 -43z" />
    <glyph glyph-name="four" unicode="4" horiz-adv-x="1611" 
d="M1419 1382v-464h158q6 0 11 -6t5 -15v-336q0 -11 -8 -16l-166 -170v-88q0 -9 -8 -17l-256 -262q-8 -8 -22 -8h-465q-6 0 -11.5 4t-5.5 10v248h-604q-14 0 -14 17v829q0 8 6 14l260 269q10 10 23 10h469q18 0 18 -19v-96l100 105q10 10 25 10h469q6 0 11 -6.5t5 -12.5z
M1374 582h160q14 0 14 14v266q0 15 -14 15h-160v466q0 6 -4 11.5t-10 5.5h-395q-6 0 -11.5 -5.5t-5.5 -11.5v-466h-184v466q0 6 -4 11.5t-10 5.5h-396q-6 0 -11 -5.5t-5 -11.5v-745q0 -6 5 -10t11 -4h594v-262q0 -6 4.5 -10.5t10.5 -4.5h397q14 0 14 15v260z" />
    <glyph glyph-name="five" unicode="5" horiz-adv-x="1548" 
d="M741 1040h674q17 0 17 17v291q0 4 -5.5 8t-11.5 4h-1050q-17 0 -17 -12v-607q0 -14 17 -14h684q24 0 24 -22v-56q0 -22 -24 -22h-687q-14 0 -14 -15v-290q0 -15 14 -15h1014q42 0 66 24t24 64v461q0 38 -24.5 61t-65.5 23h-635q-6 0 -6 6v88q0 6 6 6zM47 387l62 64h-52
q-6 0 -10 4.5t-4 9.5v639q0 12 6 18l260 269q10 10 23 10h1128q6 0 11.5 -6.5t5.5 -12.5v-352q0 -11 -13 -24l-30 -31q32 -6 54.5 -35.5t22.5 -67.5v-483q0 -53 -45 -98l-247 -252q-42 -39 -113 -39h-1049q-14 0 -14 14v359q0 10 4 14z" />
    <glyph glyph-name="six" unicode="6" horiz-adv-x="1574" 
d="M1403 918h-658q-6 0 -6 6v110q0 17 11 27t28 10h283q17 0 28 -11t11 -26v-24q0 -5 4 -9t8 -4h367q5 0 9.5 4.5t4.5 8.5v264q0 42 -24.5 64t-65.5 22h-971q-40 0 -65 -22.5t-25 -61.5v-881q0 -42 25 -65t65 -23h973q39 0 63.5 23.5t24.5 64.5v436q0 37 -24.5 62t-65.5 25z
M1100 709v-76q0 -14 -10.5 -24.5t-28.5 -10.5h-285q-17 0 -27 10.5t-10 24.5v76q0 36 39 36h283q15 0 27 -10.5t12 -25.5zM1130 0h-1001q-43 0 -67.5 25t-24.5 63v930q0 52 33 88l233 242q50 53 123 53h981q62 0 96.5 -30.5t34.5 -90.5v-307q0 -11 -6 -17l-31 -26
q37 -26 37 -90v-451q0 -53 -43 -96l-246 -250q-49 -43 -119 -43z" />
    <glyph glyph-name="seven" unicode="7" horiz-adv-x="1490" 
d="M567 307h434q16 0 25 15l412 722q4 8 4 19v283q0 14 -12 14h-1088q-16 0 -16 -14v-306q0 -14 16 -14h616q9 0 5 -8l-406 -688q-5 -8 -2 -15.5t12 -7.5zM768 0h-565q-9 0 -15 10.5t0 20.5l396 667q2 2 0.5 4.5t-4.5 2.5h-535q-9 0 -17 8.5t-8 17.5v377q0 7 7 14l260 269
q10 10 22 10h1161q6 0 11.5 -5.5t5.5 -13.5v-325q0 -17 -6 -29l-420 -739q-10 -15 -14 -19l-254 -260q-10 -10 -25 -10z" />
    <glyph glyph-name="eight" unicode="8" horiz-adv-x="1570" 
d="M430 307h971q43 0 66.5 25t23.5 63v318q0 41 -20 73.5t-54 44.5q-11 3 0 7q33 11 53.5 45t20.5 67v322q0 42 -24 65t-66 23h-971q-41 0 -65.5 -23.5t-24.5 -64.5v-322q0 -35 21 -68t51 -42q6 -2 5.5 -5.5t-5.5 -5.5q-30 -8 -51 -40.5t-21 -75.5v-320q0 -40 24.5 -63
t65.5 -23zM1130 0h-1003q-41 0 -66.5 24t-25.5 64v447q0 15 8 34t20 29l21 16q3 2 3 5t-3 4q-49 22 -49 75v320q0 52 33 88l233 242q50 53 129 53h975q59 0 95 -32t36 -87v-336q0 -63 -33 -102l-12 -13q19 -13 32 -45t13 -63v-334q0 -56 -45 -98l-244 -248q-43 -43 -117 -43
zM1063 598h-291q-17 0 -26 9.5t-9 23.5v76q0 34 35 34h291q35 0 35 -34v-76q0 -14 -9 -23.5t-26 -9.5zM1063 928h-291q-17 0 -26 9.5t-9 23.5v75q0 16 9 25.5t26 9.5h291q35 0 35 -37v-73q0 -14 -9 -23.5t-26 -9.5z" />
    <glyph glyph-name="nine" unicode="9" horiz-adv-x="1574" 
d="M432 750h662q6 0 6 -7v-108q0 -37 -39 -37h-283q-17 0 -28 10t-11 27v20q0 15 -14 15h-371q-4 0 -8 -5t-4 -10v-262q0 -42 24.5 -64t65.5 -22h971q41 0 65.5 24t24.5 64v877q0 42 -24.5 65t-65.5 23h-971q-40 0 -65 -23.5t-25 -62.5v-438q0 -37 24.5 -61.5t65.5 -24.5z
M739 961v75q0 14 11 24.5t26 10.5h287q17 0 27 -10.5t10 -24.5v-108q0 -6 -6 -6h-318q-37 0 -37 39zM1130 0h-999q-43 0 -68.5 25t-25.5 63v326q0 12 8 20l49 51q-21 0 -39 16.5t-18 39.5v477q0 52 33 88l233 242q50 53 123 53h981q62 0 96.5 -30.5t34.5 -90.5v-891
q0 -56 -45 -98l-244 -248q-49 -43 -119 -43z" />
    <glyph glyph-name="colon" unicode=":" horiz-adv-x="827" 
d="M127 502h-76q-14 0 -14 14v387q0 9 6 15l260 268q10 10 23 10h440q6 0 11 -5.5t5 -12.5v-390q0 -8 -8 -16l-76 -78h68q16 0 16 -18v-387q0 -11 -8 -19l-254 -260q-10 -10 -22 -10h-447q-14 0 -14 14v387q0 9 6 15zM358 307h367q12 0 12 15v317q0 14 -12 14h-367
q-7 0 -11.5 -4.5t-4.5 -9.5v-317q0 -15 16 -15zM358 809h367q12 0 12 14v320q0 12 -12 12h-367q-16 0 -16 -14v-318q0 -14 16 -14z" />
    <glyph glyph-name="semicolon" unicode=";" horiz-adv-x="823" 
d="M240 0h-193q-14 0 -14 14v389q0 9 6 15l82 84h-74q-14 0 -14 14v387q0 9 6 15l260 268q10 10 23 10h440q16 0 16 -18v-387q0 -11 -8 -19l-74 -76h66q16 0 16 -18v-563q0 -11 -8 -19l-254 -260q-10 -10 -22 -10h-226q-7 0 -12.5 5t-5.5 11v146q0 12 -10 12zM354 809h367
q12 0 12 14v320q0 12 -12 12h-367q-16 0 -16 -14v-318q0 -14 16 -14zM541 297v-150q0 -14 14 -14h166q12 0 12 14v494q0 14 -12 14h-367q-16 0 -16 -14v-319q0 -5 4.5 -10t11.5 -5h176q11 0 11 -10z" />
    <glyph glyph-name="less" unicode="&#x3c;" horiz-adv-x="1062" 
d="M1022 913q0 -10 -8 -18l-88 -90l73 -17q23 -5 23 -28v-322q0 -10 -8 -18l-250 -256q-19 -16 -41 -8l-674 233q-16 5 -16 19v313q0 17 10 27l250 258q9 9 22 14l633 235q24 8 49 -5.5t25 -43.5v-293zM977 948v244q0 9 -6 13t-15 1l-602 -223q-16 -6 -16 -20v-273v-2
q0 -10 16 -16l607 -209q16 -5 16 10v254q0 15 -12 18q-334 80 -340 82q-3 0 -2.5 3.5t2.5 3.5l340 98q12 2 12 16z" />
    <glyph glyph-name="equal" unicode="=" horiz-adv-x="1058" 
d="M358 907h607q12 0 12 15v262q0 12 -12 12h-607q-16 0 -16 -14v-260q0 -15 16 -15zM358 481h607q12 0 12 15v262q0 12 -12 12h-607q-16 0 -16 -14v-260q0 -15 16 -15zM735 174h-684q-14 0 -14 14v330q0 8 6 14l66 68h-58q-14 0 -14 14v330q0 8 6 14l260 269q10 10 23 10
h678q18 0 18 -20v-330q0 -9 -8 -17l-58 -59h48q7 0 12.5 -7t5.5 -16v-327q0 -9 -8 -17l-256 -262q-8 -8 -23 -8z" />
    <glyph glyph-name="greater" unicode="&#x3e;" horiz-adv-x="1062" 
d="M1030 983v-311q0 -15 -8 -23l-242 -246q-9 -9 -22 -14l-668 -233q-17 -7 -33 -0.5t-16 22.5v314q0 12 8 20l94 98l-80 19q-22 5 -22 28v297q0 19 8 27l254 262q26 26 68 10l637 -237q22 -9 22 -33zM985 690v275q0 12 -16 18l-602 223q-11 4 -16 0.5t-5 -10.5v-248
q0 -13 12 -16q342 -90 344 -90q2 -2 2 -4t-2 -2l-344 -91q-12 -5 -12 -16v-250q0 -22 25 -14l598 207q16 8 16 18z" />
    <glyph glyph-name="question" unicode="?" horiz-adv-x="1404" 
d="M1325 795l-240 -242q-30 -30 -53 -33v-233q0 -9 -8 -17l-256 -262q-8 -8 -23 -8h-444q-14 0 -14 14v389q0 9 6 15l33 35h-21q-7 0 -12.5 4.5t-5.5 9.5v158q0 20 14 34l61 64h-319q-14 0 -14 14v281q0 56 32 88l234 242q30 32 59 42.5t72 10.5h817q61 0 97 -33t36 -86
v-377q0 -56 -51 -110zM606 307h367q14 0 14 15v319q0 14 -14 14h-367q-14 0 -14 -16v-317q0 -15 14 -15zM592 879v-99q0 -14 14 -14h367q14 0 14 14v8q0 31 31 31h223q44 0 67 23.5t23 66.5v367q0 39 -25 61.5t-65 22.5h-817q-41 0 -65.5 -22t-24.5 -64v-230q0 -5 4 -9.5
t10 -4.5h363q12 0 12 14v21q0 15 11 26t28 11h147q37 0 37 -37v-68q0 -13 -10 -22.5t-27 -9.5h-229q-41 0 -64.5 -23t-23.5 -63z" />
    <glyph glyph-name="at" unicode="@" horiz-adv-x="1976" 
d="M1536 47h-31v-67q0 -9 -8 -17l-254 -260q-10 -10 -24 -10h-1086q-39 0 -65.5 24.5t-26.5 63.5v1243q0 46 33 82l233 242q53 53 123 53h1378q62 0 96.5 -30.5t34.5 -90.5v-844q0 -56 -45 -98l-249 -254q-37 -37 -109 -37zM1597 563h-122v432q0 6 -4.5 10.5t-10.5 4.5h-223
q-14 0 -14 -17v-59q-11 37 -42.5 56.5t-68.5 19.5h-246q-40 0 -65 -23.5t-25 -64.5v-480q0 -40 25.5 -64t64.5 -24h246q37 0 69 19.5t42 48.5v-53q0 -15 14 -15h567q40 0 65 24t25 64v832q0 40 -24.5 63t-65.5 23h-1368q-41 0 -65.5 -23t-24.5 -63v-1186q0 -39 26 -63.5
t64 -24.5h1010q14 0 14 14v181q0 12 -14 12h-797q-19 0 -32 12.5t-13 32.5v858q0 45 45 45h948q43 0 43 -45v-506q0 -19 -11.5 -30t-31.5 -11zM1192 561h-129q-12 0 -22.5 10t-10.5 23v176q0 15 9 25t24 10h129q13 0 22 -9.5t9 -25.5v-176q0 -13 -9.5 -23t-21.5 -10z" />
    <glyph glyph-name="A" unicode="A" horiz-adv-x="1624" 
d="M600 1350l-358 -1022q-3 -9 1 -15t13 -6h442q13 0 17 15l63 231h279l63 -234q3 -12 17 -12h442q8 0 11.5 6t0.5 15l-362 1022q-5 10 -15 10h-600q-11 0 -14 -10zM934 1055l70 -246q3 -12 -9 -12h-157q-12 0 -9 12l68 246q4 8 12 8h15q10 0 10 -8zM805 14l-66 238
l-252 -244q-8 -8 -20 -8h-533q-15 0 -22.5 13t-1.5 30l377 1044q7 18 14 25l270 277q9 12 25 12h641q16 0 20 -12l373 -1053q6 -15 3.5 -31.5t-11.5 -25.5l-264 -271q-8 -8 -21 -8h-514q-11 0 -18 14z" />
    <glyph glyph-name="B" unicode="B" horiz-adv-x="1626" 
d="M367 307h944q113 0 178 63.5t65 166.5v176q0 43 -19.5 76t-53.5 45q-3 0 -3 2t3 4q32 11 52.5 45t20.5 67v176q0 232 -243 232h-944q-6 0 -11.5 -5t-5.5 -12v-1021q0 -15 17 -15zM1049 0h-990q-14 0 -14 14v1094q0 8 6 14l258 267q9 12 25 12h981q284 0 284 -266v-189
q0 -64 -32 -102l-13 -15q15 -6 30 -41t15 -65v-191q0 -73 -25.5 -128.5t-84.5 -114.5l-203 -207q-47 -42 -101 -62t-136 -20zM1133 928h-345q-14 0 -14 14v115q0 14 14 14h345q36 0 36 -39v-69q0 -35 -36 -35zM1133 598h-345q-14 0 -14 14v115q0 14 14 14h345q36 0 36 -39
v-71q0 -33 -36 -33z" />
    <glyph glyph-name="C" unicode="C" horiz-adv-x="1603" 
d="M1147 961h366q5 0 9 4t4 10v297q0 41 -25 64.5t-65 23.5h-1004q-41 0 -65.5 -23.5t-24.5 -64.5v-877q0 -40 25 -64t65 -24h1004q40 0 65 24t25 64v322q0 12 -13 12h-366q-14 0 -14 -14v-74q0 -18 -12.5 -30.5t-30.5 -12.5h-308q-19 0 -31 12t-12 31v385q0 20 12.5 32.5
t32.5 12.5h306q18 0 30.5 -11t12.5 -32v-53q0 -5 4 -9.5t10 -4.5zM1167 0h-1038q-42 0 -67 25t-25 63v930q0 50 33 88l233 242q50 53 121 53h1016q61 0 96 -30.5t35 -90.5v-340q0 -8 -8 -16l-152 -156h141q19 0 19 -18v-361q0 -49 -45 -98l-244 -248q-27 -24 -52 -33.5
t-63 -9.5z" />
    <glyph glyph-name="D" unicode="D" horiz-adv-x="1628" 
d="M367 307h944q111 0 177 63.5t66 166.5v591q0 232 -243 232h-944q-6 0 -11.5 -5t-5.5 -12v-1021q0 -15 17 -15zM1049 0h-990q-14 0 -14 14v1094q0 8 6 14l260 269q10 10 23 10h981q284 0 284 -266v-603q0 -72 -26 -127.5t-84 -115.5l-203 -207q-47 -42 -101 -62t-136 -20z
M1063 598h-275q-14 0 -14 14v445q0 14 14 14h275q47 0 72.5 -24t25.5 -68v-297q0 -38 -28 -61t-70 -23z" />
    <glyph glyph-name="E" unicode="E" horiz-adv-x="1527" 
d="M795 727h335q13 0 13 14v185q0 14 -13 14h-335q-7 0 -7 4v90q0 4 5 4h645q12 0 12 15v293q0 14 -12 14h-1071q-17 0 -17 -17v-1021q0 -15 17 -15h1071q12 0 12 15v290q0 15 -12 15h-643q-7 0 -7 4v90q0 6 7 6zM1208 0h-1149q-14 0 -14 14v1094q0 8 6 14l260 269
q10 10 23 10h1143q18 0 18 -19v-364q0 -9 -8 -17l-320 -327q-6 -6 2 -6h306q9 0 14.5 -7t5.5 -16v-358q0 -9 -8 -17l-254 -260q-10 -10 -25 -10z" />
    <glyph glyph-name="F" unicode="F" horiz-adv-x="1495" 
d="M547 0h-488q-5 0 -9.5 4t-4.5 10v1094q0 8 6 14l260 269q10 10 23 10h1139q18 0 18 -19v-362q0 -13 -8 -21l-238 -243v-56q0 -12 -12 -24l-262 -268q-13 -13 -27 -13h-110v-108q0 -8 -9 -17l-256 -262q-8 -8 -22 -8zM367 307h407q14 0 14 15v389q0 6 7 6h393q12 0 12 14
v191q0 12 -12 12h-393q-7 0 -7 6v92q0 4 5 4h641q12 0 12 15v295q0 14 -12 14h-1067q-7 0 -12 -5.5t-5 -11.5v-1021q0 -5 5 -10t12 -5z" />
    <glyph glyph-name="G" unicode="G" horiz-adv-x="1640" 
d="M1536 940h-604q-6 0 -11.5 -4t-5.5 -10v-185q0 -5 5.5 -9.5t11.5 -4.5h244q6 0 10 -5t4 -11v-68q0 -6 -4 -11t-10 -5h-361q-76 0 -76 73v267q0 33 20 52t56 19h696q13 0 13 15v293q0 14 -13 14h-927q-121 0 -181.5 -56.5t-60.5 -175.5v-589q0 -105 66 -168.5t176 -63.5
h952q6 0 10 5t4 10v606q0 12 -14 12zM1534 981h45q16 0 16 -18v-676q0 -9 -8 -17l-256 -262q-11 -8 -22 -8h-1002q-124 0 -197 63t-73 168v674q0 45 16 89.5t43 74.5l228 234q88 98 251 98h977q7 0 12 -5.5t5 -13.5v-352q0 -14 -10 -24z" />
    <glyph glyph-name="H" unicode="H" horiz-adv-x="1583" 
d="M1479 1360h-410q-6 0 -10 -5.5t-4 -11.5v-370h-267v370q0 6 -4 11.5t-10 5.5h-407q-6 0 -11.5 -5.5t-5.5 -11.5v-1021q0 -6 5.5 -10.5t11.5 -4.5h407q6 0 10 5t4 10v389h267v-389q0 -5 4 -10t10 -5h410q6 0 10 5t4 10v1021q0 17 -14 17zM758 14v187l-189 -193
q-8 -8 -22 -8h-488q-5 0 -9.5 4t-4.5 10v1094q0 8 6 14l260 269q10 10 23 10h483q17 0 17 -19v-194h2l194 203q10 10 23 10h467q18 0 18 -19v-1095q0 -9 -8 -17l-256 -262q-8 -8 -23 -8h-475q-18 0 -18 14z" />
    <glyph glyph-name="I" unicode="I" horiz-adv-x="878" 
d="M367 307h409q12 0 12 15v1024q0 14 -12 14h-409q-6 0 -11.5 -5.5t-5.5 -11.5v-1021q0 -15 17 -15zM547 0h-488q-14 0 -14 14v1092q0 10 6 16l260 269q10 10 23 10h481q19 0 19 -19v-1095q0 -8 -9 -17l-256 -262q-8 -8 -22 -8z" />
    <glyph glyph-name="J" unicode="J" horiz-adv-x="1468" 
d="M1022 0h-905q-39 0 -65.5 25t-26.5 63v485q0 17 8 25l258 266q10 10 26 10h322v218q0 8 6 14l275 285q7 10 22 10h467q18 0 18 -19v-993q0 -56 -45 -98l-243 -248q-27 -24 -52.5 -33.5t-64.5 -9.5zM1382 395v951q0 5 -4 9.5t-8 4.5h-409q-17 0 -17 -17v-700
q0 -45 -43 -45h-131q-43 0 -43 45v178q0 5 -4 9t-10 4h-369q-6 0 -10 -4t-4 -9v-426q0 -41 25 -64.5t65 -23.5h872q39 0 64.5 24t25.5 64z" />
    <glyph glyph-name="K" unicode="K" horiz-adv-x="1605" 
d="M1528 1360h-428q-15 0 -21 -12l-270 -390h-21v385q0 17 -14 17h-407q-6 0 -11.5 -5.5t-5.5 -11.5v-1021q0 -5 5.5 -10t11.5 -5h407q6 0 10 5t4 10v440h21l278 -443q9 -12 25 -12h432q7 0 10 8.5t0 14.5l-374 540v4l354 463q5 6 3 14.5t-9 8.5zM793 10l-86 135l-138 -137
q-8 -8 -20 -8h-490q-5 0 -9.5 4t-4.5 10v1094q0 8 6 14l260 269q7 10 23 10h481q16 0 16 -19v-215h5l215 224q10 10 24 10h463q32 0 43 -32t-10 -58l-332 -434q-3 -3 -3.5 -7.5t1.5 -5.5l356 -518q14 -20 11.5 -42.5t-19.5 -37.5l-252 -258q-8 -8 -22 -8h-496q-15 0 -22 10z
" />
    <glyph glyph-name="L" unicode="L" horiz-adv-x="1476" 
d="M834 1380v-708h604q18 0 18 -23v-362q0 -9 -8 -17l-256 -262q-8 -8 -23 -8h-1110q-6 0 -10 4.5t-4 9.5v1094q0 8 6 14l260 269q10 10 23 10h479q21 0 21 -21zM367 307h1030q14 0 14 15v294q0 15 -14 15h-609v715q0 14 -14 14h-407q-6 0 -11.5 -5.5t-5.5 -11.5v-1021
q0 -15 17 -15z" />
    <glyph glyph-name="M" unicode="M" horiz-adv-x="1667" 
d="M1139 834v-512q0 -15 16 -15h410q5 0 8.5 4.5t3.5 10.5v1024q0 5 -4 9.5t-8 4.5h-412q-9 0 -12 -8l-172 -281q-1 -3 -6 -3t-7 3l-168 281q-4 8 -12 8h-409q-17 0 -17 -17v-1021q0 -6 5.5 -10.5t11.5 -4.5h407q5 0 9.5 4.5t4.5 10.5v512l170 -199q8 -7 15 0zM842 14v271
l-273 -277q-8 -8 -22 -8h-488q-14 0 -14 14v1094q0 8 6 14l260 269q10 10 23 10h467q13 0 18 -8l109 -185q4 -4 6 -2l180 187q12 8 21 8h469q18 0 18 -19v-1095q0 -9 -8 -17l-256 -262q-11 -8 -23 -8h-477q-16 0 -16 14z" />
    <glyph glyph-name="N" unicode="N" horiz-adv-x="1669" 
d="M797 809l338 -490q8 -12 20 -12h412q12 0 12 15v1024q0 14 -12 14h-412q-5 0 -9.5 -4t-4.5 -10v-500q0 -8 -8 0l-340 502q-8 12 -23 12h-403q-6 0 -11.5 -5.5t-5.5 -11.5v-1021q0 -15 17 -15h407q5 0 9.5 4.5t4.5 10.5v487q0 1 2 2t4 0.5t3 -2.5zM836 10l-109 158
l-158 -160q-8 -8 -22 -8h-488q-14 0 -14 14v1094q0 8 6 14l260 269q10 10 23 10h467q13 0 18 -8l117 -176q6 -5 8 -3l172 177q10 10 23 10h467q18 0 18 -19v-1095q0 -9 -8 -17l-256 -262q-8 -8 -23 -8h-481q-13 0 -20 10z" />
    <glyph glyph-name="O" unicode="O" horiz-adv-x="1607" 
d="M432 307h1004q40 0 65 24t25 64v877q0 41 -25 64.5t-65 23.5h-1004q-40 0 -65 -23.5t-25 -64.5v-877q0 -40 25.5 -64t64.5 -24zM1167 0h-1038q-40 0 -66 25t-26 63v930q0 50 33 88l233 242q50 53 123 53h1014q62 0 96.5 -31t34.5 -90v-891q0 -53 -45 -98l-244 -248
q-26 -24 -51 -33.5t-64 -9.5zM1090 598h-308q-19 0 -31 12t-12 31v385q0 20 12.5 32.5t32.5 12.5h306q19 0 31 -12t12 -33v-385q0 -18 -12.5 -30.5t-30.5 -12.5z" />
    <glyph glyph-name="P" unicode="P" horiz-adv-x="1624" 
d="M45 14v1094q0 8 6 14l260 269q10 10 23 10h981q284 0 284 -266v-289q0 -72 -28 -128t-86 -116l-250 -254q-47 -42 -103 -60t-137 -18h-170l-256 -262q-11 -8 -22 -8h-488q-14 0 -14 14zM788 621h523q109 0 176 63t67 166v278q0 232 -243 232h-944q-7 0 -12 -5.5t-5 -11.5
v-1021q0 -15 17 -15h409q5 0 8.5 4.5t3.5 10.5v299zM1110 913h-313q-6 0 -10.5 5t-4.5 10v129q0 14 15 14h313q66 0 66 -61v-37q0 -31 -15.5 -45.5t-50.5 -14.5z" />
    <glyph glyph-name="Q" unicode="Q" horiz-adv-x="1722" 
d="M432 307h1196q27 0 27 27v272q0 25 -25 25h-98q-6 0 -6 6v635q0 41 -25 64.5t-67 23.5h-1002q-40 0 -65 -23.5t-25 -64.5v-877q0 -37 25.5 -62.5t64.5 -25.5zM1413 0h-1284q-42 0 -67 25t-25 63v930q0 50 31 86l235 244q50 53 123 53h1014q61 0 96 -30.5t35 -90.5v-602
q0 -6 8 -6h94q11 0 19 -7.5t8 -19.5v-356q0 -11 -8 -19l-256 -262q-8 -8 -23 -8zM895 598h-113q-19 0 -31 12t-12 31v385q0 20 12 32.5t31 12.5h308q19 0 31 -12.5t12 -32.5v-313q0 -2 -3 -3.5t-6 1.5l-71 129q-5 8 -14 10t-17 -2l-186 -119q-19 -15 -5 -37l66 -86
q3 -3 2 -5.5t-4 -2.5z" />
    <glyph glyph-name="R" unicode="R" horiz-adv-x="1628" 
d="M819 12l-88 160l-162 -164q-8 -8 -22 -8h-488q-5 0 -9.5 4t-4.5 10v1094q0 8 6 14l260 269q10 10 23 10h981q138 0 211 -66t73 -200v-252q0 -76 -26.5 -133.5t-89.5 -110.5l-33 -27l164 -266q13 -22 10.5 -43t-18.5 -37l-254 -258q-8 -8 -23 -8h-487q-15 0 -23 12z
M788 657h164l185 -338q6 -12 24 -12h398q6 0 9 7.5t-1 15.5l-203 332q88 15 139 75.5t51 149.5v241q0 232 -243 232h-944q-7 0 -12 -5.5t-5 -11.5v-1021q0 -15 17 -15h409q12 0 12 15v335zM1110 913h-313q-6 0 -10.5 4.5t-4.5 10.5v129q0 5 4.5 9.5t10.5 4.5h313
q66 0 66 -61v-37q0 -31 -15.5 -45.5t-50.5 -14.5z" />
    <glyph glyph-name="S" unicode="S" horiz-adv-x="1542" 
d="M791 1038h626q17 0 17 17v291q0 14 -17 14h-846q-110 0 -176.5 -63.5t-66.5 -166.5v-172q0 -231 243 -231h435q53 0 53 -51q0 -49 -53 -49h-639q-6 0 -10.5 -4.5t-4.5 -10.5v-288q0 -17 15 -17h858q110 0 176.5 63.5t66.5 166.5v172q0 118 -59.5 174.5t-181.5 56.5h-436
q-54 0 -54 51q0 47 54 47zM51 387l64 68q-42 25 -67 70t-25 102v237q0 57 17 110t44 83l231 237q107 107 250 107h897q6 0 11.5 -5.5t5.5 -13.5v-360q0 -12 -13 -25l-57 -59q104 -65 104 -219v-187q0 -72 -26 -127.5t-84 -115.5l-203 -207q-53 -46 -104.5 -64t-132.5 -18
h-902q-14 0 -14 14v359q0 10 4 14z" />
    <glyph glyph-name="T" unicode="T" horiz-adv-x="1529" 
d="M705 307h409q6 0 10 5.5t4 11.5v714h336q13 0 13 15v293q0 14 -13 14h-1118q-7 0 -11.5 -4.5t-4.5 -9.5v-293q0 -15 16 -15h344v-716q0 -5 4.5 -10t10.5 -5zM887 0h-486q-6 0 -11 4t-5 10v703h-346q-14 0 -14 12v379q0 8 6 14l260 269q10 10 22 10h1190q7 0 13 -5.5
t6 -13.5v-362q0 -10 -9 -19l-270 -276q-8 -8 -22 -8h-47v-430q0 -8 -9 -17l-256 -262q-8 -8 -22 -8z" />
    <glyph glyph-name="U" unicode="U" horiz-adv-x="1576" 
d="M43 88v1020q0 8 6 14l260 269q7 10 23 10h479q18 0 18 -19v-194l197 203q10 10 23 10h467q8 0 13 -6t5 -13v-993q0 -53 -45 -98l-244 -248q-43 -43 -115 -43h-995q-39 0 -65.5 25t-26.5 63zM786 641v705q0 5 -4 9.5t-8 4.5h-409q-6 0 -11.5 -5.5t-5.5 -11.5v-948
q0 -40 25.5 -64t64.5 -24h961q40 0 65 24t25 64v951q0 14 -12 14h-410q-6 0 -11 -5.5t-5 -11.5v-702q0 -20 -12 -32.5t-31 -12.5h-177q-19 0 -32 12.5t-13 32.5z" />
    <glyph glyph-name="V" unicode="V" horiz-adv-x="1548" 
d="M455 16l-455 1084q-7 11 2 20l262 271q10 10 25 10h489q15 0 21 -15l78 -239l237 244q10 10 25 10h456q26 0 39 -22t2 -48l-440 -1038q-6 -15 -12 -21l-260 -266q-8 -8 -25 -8h-418q-20 0 -26 18zM1133 1346l-181 -562q0 -2 -2 -2t-4 2l-180 559q-6 17 -23 17h-424
q-7 0 -11 -6.5t-1 -14.5l426 -1017q7 -17 21 -17h383q17 0 24 17l430 1013q3 9 -1 17t-11 8h-426q-15 0 -20 -14z" />
    <glyph glyph-name="W" unicode="W" horiz-adv-x="2017" 
d="M1591 1343l-112 -520h-6l-119 520q-3 17 -19 17h-317q-17 0 -21 -19l-118 -518h-5l-112 523q-4 14 -19 14h-421q-8 0 -12 -7t-1 -14l309 -1017q3 -17 19 -17h397q18 0 25 17l112 385q4 8 7 0l110 -385q7 -17 21 -17h395q18 0 25 17l313 1013q4 11 0.5 18t-12.5 7h-420
q-16 0 -19 -17zM1008 1401h356q21 0 27 -21l32 -143l150 154q10 10 26 10h447q27 0 38.5 -21t2.5 -49l-324 -1038q-5 -17 -14 -25l-256 -262q-8 -8 -25 -8h-424q-20 0 -26 18l-43 148l-154 -158q-8 -8 -22 -8h-432q-21 0 -27 18l-338 1084q-4 14 2 20l262 271q10 10 23 10
h485q9 0 16.5 -6t8.5 -15l30 -145l150 154q12 12 29 12z" />
    <glyph glyph-name="X" unicode="X" horiz-adv-x="1589" 
d="M553 0h-555q-23 0 -29 12.5t8 34.5l345 524l-320 519q-14 23 4 45l250 258q8 8 23 8h485q20 0 29 -15l98 -167l170 174q8 8 24 8h449q35 0 47.5 -30.5t-8.5 -61.5l-316 -475l320 -478q31 -49 -2 -82l-258 -264q-10 -10 -25 -10h-477q-18 0 -29 14l-90 119l-123 -123
q-7 -10 -20 -10zM305 307h449q14 0 20 12l160 246l153 -246q9 -12 25 -12h420q8 0 11 7.5t-1 15.5l-336 504l330 499q6 9 3 18t-13 9h-424q-15 0 -23 -12l-155 -273l-158 271q-8 14 -25 14h-428q-8 0 -12 -8.5t0 -14.5l324 -503l-330 -504q-6 -9 -2.5 -16t12.5 -7z" />
    <glyph glyph-name="Y" unicode="Y" horiz-adv-x="1499" 
d="M420 416l-424 686q-7 11 2 20l260 269q10 10 25 10h477q19 0 28 -15l121 -200l199 205q10 10 22 10h461q31 0 42.5 -27.5t-3.5 -50.5l-422 -668v-368q0 -9 -8 -17l-256 -262q-8 -8 -22 -8h-488q-14 0 -14 14v402zM944 1034l-184 314q-2 3 -9.5 7.5t-13.5 4.5h-422
q-8 0 -12 -9t0 -16l422 -665v-348q0 -5 4 -10t10 -5h410q6 0 10 5t4 10v348l424 669q3 6 -2 13.5t-12 7.5h-418q-18 0 -25 -14l-180 -312q-3 -3 -6 0z" />
    <glyph glyph-name="Z" unicode="Z" horiz-adv-x="1495" 
d="M827 1030l-481 -397q-12 -9 -12 -25v-286q0 -15 16 -15h1053q6 0 10 5t4 10v294q0 15 -12 15h-506q-6 0 -2 4l487 401q9 6 9 17v293q0 5 -4.5 9.5t-10.5 4.5h-1028q-7 0 -11.5 -5.5t-4.5 -11.5v-292q0 -15 16 -15h477q6 0 0 -6zM1430 1014l-332 -342h346q18 0 18 -19
v-366q0 -9 -8 -17l-256 -262q-8 -8 -22 -8h-1133q-14 0 -14 14v338q0 8 6 17l244 266l24 24l82 64q1 1 1 3.5t-1 2.5h-342q-14 0 -14 14v365q0 8 6 14l260 269q10 10 22 10h1102q19 0 19 -21v-348q0 -10 -8 -18z" />
    <glyph glyph-name="bracketleft" unicode="[" horiz-adv-x="915" 
d="M717 1038h117q5 0 8.5 4.5t3.5 10.5v293q0 14 -12 14h-467q-6 0 -11.5 -4t-5.5 -10v-1414q0 -14 17 -14h464q15 0 15 14v295q0 13 -12 13h-117q-12 0 -12 12v772q0 14 12 14zM604 -389h-543q-16 0 -16 14v1483q0 8 6 14l260 269q10 10 25 10h536q19 0 19 -19v-360
q0 -13 -8 -21l-133 -135v-579q0 -6 8 -6h112q9 0 15 -6t6 -15v-362q0 -9 -8 -17l-256 -262q-8 -8 -23 -8z" />
    <glyph glyph-name="backslash" unicode="\" horiz-adv-x="1404" 
d="M999 59h336q7 0 10.5 6.5t0.5 12.5l-674 1403q-7 14 -23 14h-334q-9 0 -12.5 -5.5t0.5 -14.5l674 -1401q6 -15 22 -15zM1106 -248h-408q-18 0 -28 19l-670 1466q-7 14 4 25l256 264q10 10 23 10h387q22 0 32 -20l695 -1436q16 -31 -6 -53l-258 -265q-10 -10 -27 -10z" />
    <glyph glyph-name="bracketright" unicode="]" horiz-adv-x="925" 
d="M354 1038h115q14 0 14 -14v-772q0 -12 -14 -12h-115q-14 0 -14 -13v-297q0 -12 14 -12h467q15 0 15 14v1411q0 17 -15 17h-467q-6 0 -10 -4.5t-4 -9.5v-293q0 -6 4.5 -10.5t9.5 -4.5zM596 -389h-545q-16 0 -16 14v359q0 12 6 18l133 137q4 4 4 8v564q0 6 -6 6h-121
q-16 0 -16 16v375q0 8 6 14l260 269q10 10 23 10h536q9 0 15 -6.5t6 -14.5v-1482q0 -8 -9 -17l-254 -260q-10 -10 -22 -10z" />
    <glyph glyph-name="asciicircum" unicode="^" horiz-adv-x="1308" 
d="M418 657h-398q-11 0 -17 11.5t1 21.5l295 430q8 12 31 35l264 236q10 10 27 10h352q44 0 63 -29l258 -377q21 -34 -14 -65l-260 -266q-9 -7 -21 -7h-350q-15 0 -28 17l-70 104l-111 -112q-9 -9 -22 -9zM954 965h273q10 0 13.5 9t-1.5 15l-244 359q-9 12 -24 12h-316
q-12 0 -20 -12l-248 -363q-5 -6 -2 -13t12 -7h283q15 0 22 14l111 201l119 -203q9 -12 22 -12z" />
    <glyph glyph-name="underscore" unicode="_" horiz-adv-x="1392" 
d="M133 -41h1170q12 0 12 12v283q0 6 -4.5 10t-7.5 4h-1170q-6 0 -11 -4t-5 -10v-283q0 -12 16 -12zM1073 -348h-1247q-14 0 -14 14v348q0 11 6 17l260 268q10 10 22 10h1241q8 0 13.5 -5.5t5.5 -14.5v-350q0 -9 -8 -17l-256 -262q-8 -8 -23 -8z" />
    <glyph glyph-name="grave" unicode="`" horiz-adv-x="765" 
d="M195 971l-183 340q-4 12 4 20l263 271q10 10 22 10h373q20 0 28 -19l132 -299q15 -35 -15 -65l-258 -264q-9 -9 -24 -9h-320q-15 0 -22 15zM487 1264h285q8 0 12.5 6.5t1.5 13.5l-120 275q-6 12 -19 12h-315q-8 0 -12 -7t-1 -12l148 -274q6 -14 20 -14z" />
    <glyph glyph-name="a" unicode="a" horiz-adv-x="1411" 
d="M332 711v-316q1 -41 26 -64.5t64 -23.5h414q37 0 65 16t37 44v-45q0 -15 14 -15h361q12 0 12 12v750q0 40 -24.5 63t-63.5 23h-862q-17 0 -17 -14v-228q0 -16 15 -16h534q13 0 23 -9t10 -22v-94q-35 25 -88 25h-430q-41 0 -65.5 -23t-24.5 -63zM940 674v-99q0 -8 -10 -8
h-201q-31 0 -31 33v53q0 11 9 20t22 9h203q8 0 8 -8zM530 0h-411q-43 0 -67.5 25t-24.5 63v393q0 74 41 107l10 8q-8 0 -16.5 7.5t-8.5 17.5v270q0 21 10 31l256 264q10 10 23 10h897q63 0 97 -30.5t34 -90.5v-788q0 -9 -8 -17l-256 -262q-11 -8 -21 -8h-456q-6 0 -11.5 4
t-5.5 10v17q-36 -31 -82 -31z" />
    <glyph glyph-name="b" unicode="b" 
d="M782 1516v-328v-2q10 10 33 10h434q62 0 96.5 -30.5t34.5 -90.5v-686q0 -56 -43 -96l-245 -250q-49 -43 -117 -43h-410q-18 0 -35.5 9t-23.5 20l-21 -21q-11 -8 -22 -8h-404q-14 0 -14 14v1229q0 8 6 14l260 269q10 10 23 10h430q18 0 18 -20zM362 307h363q5 0 8.5 4.5
t3.5 10.5v47q11 -30 48.5 -46t82.5 -16h377q40 0 65 23.5t25 62.5v676q0 40 -24.5 63t-65.5 23h-422q-67 0 -86 -51v377q0 14 -12 14h-360q-15 0 -15 -14v-1159q0 -15 12 -15zM920 567h-156q-13 0 -23 9.5t-10 23.5v262q0 14 9.5 24.5t23.5 10.5h156q30 0 30 -35v-264
q0 -12 -8.5 -21.5t-21.5 -9.5z" />
    <glyph glyph-name="c" unicode="c" horiz-adv-x="1404" 
d="M1311 659h-346q-15 0 -15 -14v-47q0 -13 -9 -22t-21 -9h-156q-12 0 -22.5 10t-10.5 23v262q0 14 10 24.5t23 10.5h156q12 0 21 -10t9 -23v-41q0 -14 15 -14h346q14 0 14 16v244q0 41 -25 63.5t-67 22.5h-801q-40 0 -65 -23.5t-25 -62.5v-676q0 -39 25.5 -62.5t64.5 -23.5
h801q42 0 67 23.5t25 62.5v254q0 12 -14 12zM1292 700h60q18 0 18 -18v-293q0 -53 -43 -96l-246 -250q-27 -24 -52 -33.5t-64 -9.5h-836q-39 0 -65.5 24t-26.5 64v725q0 51 33 88l233 242q50 53 123 53h811q62 0 97.5 -30.5t35.5 -90.5v-284q0 -11 -6 -17z" />
    <glyph glyph-name="d" unicode="d" horiz-adv-x="1419" 
d="M956 307h359q14 0 14 15v1159q0 5 -4 9.5t-10 4.5h-357q-16 0 -16 -14v-377q-19 51 -84 51h-426q-40 0 -65 -23.5t-25 -62.5v-674q0 -40 25.5 -64t64.5 -24h402q84 0 108 64v-49q0 -15 14 -15zM1087 0h-436q-14 0 -14 14v15q-41 -29 -82 -29h-426q-43 0 -67.5 25
t-24.5 63v721q0 32 7.5 51.5t25.5 40.5l233 242q50 53 123 53h211v23q0 14 6 20l260 289q8 8 25 8h430q16 0 16 -18v-1231q0 -12 -8 -17l-256 -262q-11 -8 -23 -8zM920 567h-156q-12 0 -22.5 10t-10.5 23v262q0 15 9.5 25t23.5 10h156q30 0 30 -35v-262q0 -33 -30 -33z" />
    <glyph glyph-name="e" unicode="e" horiz-adv-x="1404" 
d="M1329 684v385q0 40 -24.5 63t-65.5 23h-807q-40 0 -65 -23.5t-25 -62.5v-674q0 -40 25.5 -64t64.5 -24h871q14 0 14 15v231q0 14 -14 14h-539q-12 0 -22.5 10t-10.5 23v59q0 5 6 5h574q6 0 12 6.5t6 13.5zM731 805v59q0 14 9 23.5t24 9.5h178q31 0 31 -33v-59
q0 -10 -10 -10h-222q-10 0 -10 10zM1077 0h-948q-38 0 -65 25.5t-27 62.5v725q0 52 33 88l233 242q50 53 123 53h817q61 0 96 -30.5t35 -90.5v-422q0 -17 -12.5 -28t-30.5 -11q14 -3 22.5 -12.5t8.5 -21.5v-291q0 -11 -8 -19l-256 -262q-8 -8 -21 -8z" />
    <glyph glyph-name="f" unicode="f" horiz-adv-x="1196" 
d="M1128 1155h-239v43q0 45 43 45h198q13 0 13 12v226q0 14 -13 14h-438q-90 0 -135 -45t-45 -129v-166h-190q-17 0 -17 -14v-256q0 -6 5.5 -10.5t11.5 -4.5h180v-551q0 -12 14 -12h361q12 0 12 12v551h239q15 0 15 15v256q0 14 -15 14zM197 563h-160q-14 0 -14 15v344
q0 14 10 24l162 166v16q0 21 12 33l301 309q63 66 180 66h481q8 0 13.5 -5.5t5.5 -14.5v-281q0 -8 -8 -16l-25 -23h16q6 0 11.5 -5.5t5.5 -12.5v-326q0 -10 -8 -18l-246 -252v-295q0 -9 -8 -17l-254 -260q-10 -10 -25 -10h-434q-16 0 -16 14v549z" />
    <glyph glyph-name="g" unicode="g" horiz-adv-x="1452" 
d="M444 604h82q-20 -47 0 -96h-159q-41 0 -66 -23t-25 -63v-334q0 -39 26.5 -63.5t64.5 -24.5h917q40 0 65 24t25 64v334q0 41 -24 63.5t-66 22.5h-504q-14 17 -14 48t14 48h363q42 0 67 24t25 64v197l43 37q10 10 18 10h62q16 0 16 16v185q0 7 -5 12.5t-13 5.5h-53
q-17 0 -29 -12l-49 -47q-16 59 -86 59h-695q-41 0 -65.5 -23.5t-24.5 -64.5v-375q0 -41 25 -64.5t65 -23.5zM1008 -307h-945q-42 0 -67 23.5t-25 62.5v373q0 53 33 86l76 81q-13 6 -22 25.5t-9 40.5v428q0 31 7.5 48.5t25.5 39.5l233 242q50 53 123 53h705q64 0 90 -33
l14 15q18 18 47 18h107q18 0 18 -18v-254q0 -17 -14 -31l-125 -129v-78q0 -53 -43 -96l-41 -41h92q62 0 96.5 -29.5t34.5 -89.5v-348q0 -50 -43 -96l-246 -250q-43 -43 -122 -43zM907 778h-166q-15 0 -23.5 9.5t-8.5 23.5v53q0 14 9.5 23.5t22.5 9.5h166q31 0 31 -33v-53
q0 -15 -8.5 -24t-22.5 -9zM971 205h-271q-12 0 -21 10t-9 23v51q0 33 32 33h269q14 0 22 -9t8 -24v-51q0 -13 -9 -23t-21 -10z" />
    <glyph glyph-name="h" unicode="h" horiz-adv-x="1415" 
d="M1085 0h-440q-14 0 -14 14v109l-113 -115q-11 -8 -22 -8h-437q-14 0 -14 14v1229q0 8 6 14l260 269q10 10 23 10h430q18 0 18 -20v-355q15 15 45.5 25t57.5 10h356q62 0 96.5 -31.5t34.5 -89.5v-788q0 -9 -8 -17l-256 -262q-8 -8 -23 -8zM954 307h361q12 0 12 15v747
q0 41 -24 63.5t-66 22.5h-348q-51 0 -88 -29l-64 -49v406q0 3 -4 7.5t-8 4.5h-358q-6 0 -11.5 -4.5t-5.5 -9.5v-1159q0 -5 5 -10t12 -5h358q5 0 8.5 4.5t3.5 10.5v526l8 12q26 37 68 37h96q31 0 31 -35v-540q0 -5 4 -10t10 -5z" />
    <glyph glyph-name="i" unicode="i" horiz-adv-x="827" 
d="M90 958h-31q-14 0 -14 15v266q0 12 6 18l260 269q10 10 23 10h430q18 0 18 -18v-281q0 -10 -8 -18l-26 -23h16q8 0 13 -5t5 -13v-889q0 -11 -8 -19l-256 -262q-8 -8 -20 -8h-439q-14 0 -14 14v889q0 9 6 15zM367 307h358q12 0 12 12v824q0 12 -12 12h-358q-6 0 -11.5 -4
t-5.5 -10v-822q0 -12 17 -12zM365 1245h360q12 0 12 15v221q0 14 -12 14h-360q-15 0 -15 -14v-221q0 -6 4.5 -10.5t10.5 -4.5z" />
    <glyph glyph-name="j" unicode="j" horiz-adv-x="913" 
d="M180 958h-30q-15 0 -15 15v270q0 8 6 14l260 269q10 10 23 10h430q18 0 18 -20v-279q0 -10 -8 -18l-26 -23h16q8 0 13 -5t5 -13v-949q0 -132 -110 -245l-227 -232q-28 -28 -71 -43.5t-81 -15.5h-569q-6 0 -10.5 4.5t-4.5 9.5v303q0 9 6 15l261 268q10 10 22 10h47v600
q0 9 6 15zM440 1141v-815q0 -30 -18 -47t-47 -17h-254q-6 0 -11.5 -4t-5.5 -10v-236q0 -12 15 -12h499q89 0 149 66t60 170v907q0 12 -12 12h-360q-15 0 -15 -14zM455 1245h360q12 0 12 15v221q0 14 -12 14h-360q-15 0 -15 -14v-221q0 -15 15 -15z" />
    <glyph glyph-name="k" unicode="k" horiz-adv-x="1456" 
d="M1368 1155h-364q-15 0 -23 -8l-233 -295h-11v629q0 14 -14 14h-358q-15 0 -15 -14v-1159q0 -15 17 -15h356q14 0 14 15v352h11l253 -357q10 -10 25 -10h371q9 0 12 7.5t-2 13.5l-336 444v4l307 357q6 7 2.5 14.5t-12.5 7.5zM707 10l-74 115l-113 -115q-10 -10 -24 -10
h-437q-14 0 -14 14v1229q0 8 6 14l260 269q10 10 23 10h430q8 0 13 -5t5 -13v-506h2l170 176q8 8 21 8h405q35 0 44 -34t-15 -62l-281 -324q-2 -4 0 -6l322 -424q14 -19 11.5 -42t-19.5 -38l-252 -258q-8 -8 -23 -8h-438q-15 0 -22 10z" />
    <glyph glyph-name="l" unicode="l" horiz-adv-x="827" 
d="M365 307h360q12 0 12 12v1162q0 14 -12 14h-360q-5 0 -10 -4t-5 -10v-1159q0 -15 15 -15zM496 0h-437q-14 0 -14 14v1229q0 8 6 14l260 269q10 10 23 10h430q18 0 18 -20v-1229q0 -9 -8 -17l-256 -262q-8 -8 -22 -8z" />
    <glyph glyph-name="m" unicode="m" horiz-adv-x="1904" 
d="M1444 307h360q13 0 13 15v747q0 41 -24.5 63.5t-66.5 22.5h-313q-45 0 -88 -31l-61 -47q-3 38 -28 58t-67 20h-280q-48 0 -88 -29l-64 -49v66q0 12 -12 12h-358q-6 0 -11.5 -4t-5.5 -10v-819q0 -15 17 -15h358q12 0 12 15v526l8 12q26 37 68 37h57q14 0 23.5 -10t9.5 -25
v-540q0 -15 15 -15h333q13 0 13 15v526l8 12q29 37 67 37h58q14 0 23.5 -9t9.5 -26v-540q0 -15 14 -15zM1577 0h-438q-15 0 -15 14v76l-80 -82q-8 -8 -22 -8h-416q-14 0 -14 14v70l-72 -74q-10 -10 -24 -10h-437q-14 0 -14 14v889q0 9 6 15l260 268q10 10 23 10h430
q8 0 13 -5t5 -13v-17q15 15 46 25t59 10h287q77 0 112 -47l17 12q44 35 106 35h322q62 0 96.5 -30.5t34.5 -90.5v-788q0 -8 -9 -17l-256 -262q-8 -8 -20 -8z" />
    <glyph glyph-name="n" unicode="n" horiz-adv-x="1415" 
d="M1090 0h-445q-14 0 -14 14v111l-113 -117q-8 -8 -22 -8h-437q-14 0 -14 14v889q0 9 6 15l260 268q10 10 23 10h430q8 0 13 -5t5 -13v-17q15 15 46 25t59 10h354q62 0 96.5 -30.5t34.5 -90.5v-788q0 -9 -8 -17l-256 -262q-8 -8 -18 -8zM954 307h361q12 0 12 12v750
q0 41 -24 63.5t-66 22.5h-348q-51 0 -88 -29l-64 -49v66q0 5 -3.5 8.5t-8.5 3.5h-358q-6 0 -11.5 -4t-5.5 -10v-822q0 -12 17 -12h358q12 0 12 12v529l8 12q26 37 68 37h96q31 0 31 -35v-543q0 -12 14 -12z" />
    <glyph glyph-name="o" unicode="o" 
d="M432 307h813q40 0 65 23.5t25 64.5v674q0 41 -24 63.5t-66 22.5h-813q-41 0 -65.5 -23t-24.5 -63v-674q0 -39 26 -63.5t64 -24.5zM920 567h-156q-12 0 -22.5 10t-10.5 23v262q0 15 9.5 25t23.5 10h156q13 0 21.5 -10t8.5 -25v-262q0 -14 -8.5 -23.5t-21.5 -9.5zM977 0
h-848q-39 0 -65.5 24.5t-26.5 63.5v725q0 49 33 88l233 242q50 53 123 53h823q62 0 96.5 -30.5t34.5 -90.5v-686q0 -53 -43 -96l-245 -250q-43 -43 -115 -43z" />
    <glyph glyph-name="p" unicode="p" 
d="M782 1180v-13q11 11 39 20t51 9h377q62 0 96.5 -30.5t34.5 -90.5v-686q0 -52 -39 -94l-245 -252q-43 -43 -117 -43h-197v-16q0 -13 -8 -21l-254 -260q-10 -10 -26 -10h-435q-14 0 -14 14v1196q0 9 6 15l260 268q7 10 23 10h430q7 0 12.5 -5t5.5 -11zM365 0h358
q14 0 14 14v355q23 -62 111 -62h397q40 0 65 23.5t25 64.5v674q0 40 -24.5 63t-65.5 23h-362q-47 0 -90 -22.5t-56 -55.5v64q0 14 -14 14h-358q-5 0 -10 -4t-5 -8v-1129q0 -14 15 -14zM918 567h-156q-13 0 -22 8.5t-9 24.5v262q0 15 9.5 25t21.5 10h156q12 0 22 -10t10 -25
v-262q0 -15 -9 -24t-23 -9z" />
    <glyph glyph-name="q" unicode="q" horiz-adv-x="1419" 
d="M956 0h359q5 0 9.5 4t4.5 10v1129q0 4 -4.5 8t-9.5 4h-357q-16 0 -16 -14v-64q-12 32 -55 55t-92 23h-363q-41 0 -65.5 -23t-24.5 -63v-674q0 -40 25.5 -64t64.5 -24h402q85 0 108 62v-355q0 -14 14 -14zM1087 -307h-436q-14 0 -14 14v322q-41 -29 -82 -29h-426
q-43 0 -67.5 25t-24.5 63v725q0 49 33 88l233 242q50 53 123 53h377q29 0 58.5 -8.5t43.5 -20.5v11q0 7 6.5 12.5t14.5 5.5h432q16 0 16 -18v-1196q0 -11 -8 -19l-256 -262q-11 -8 -23 -8zM920 567h-156q-12 0 -22.5 10t-10.5 23v262q0 15 9.5 25t23.5 10h156q30 0 30 -35
v-262q0 -13 -8.5 -23t-21.5 -10z" />
    <glyph glyph-name="r" unicode="r" horiz-adv-x="1128" 
d="M838 557h-56v-268q0 -11 -10 -21l-254 -260q-11 -8 -22 -8h-437q-14 0 -14 14v889q0 9 6 15l260 268q10 10 23 10h430q8 0 13 -5t5 -13v-17q15 15 46 25t59 10h221q16 0 16 -18v-334q0 -9 -8 -17l-254 -260q-10 -10 -24 -10zM813 864h254q12 0 12 13v264q0 14 -14 14
h-176q-46 0 -88 -29l-64 -49v64q0 5 -4 9.5t-8 4.5h-358q-6 0 -11.5 -4.5t-5.5 -9.5v-822q0 -12 17 -12h358q12 0 12 12v496l8 12q23 37 68 37z" />
    <glyph glyph-name="s" unicode="s" horiz-adv-x="1357" 
d="M918 0h-865q-16 0 -16 14v273q0 16 8 24l51 54l-6 2q-23 10 -38 31t-15 40v375q0 49 33 88l233 242q50 53 123 53h874q10 0 16.5 -6.5t6.5 -15.5v-293q0 -11 -8 -19l-37 -37q45 -19 45 -92v-344q0 -50 -43 -96l-246 -250q-27 -24 -52 -33.5t-64 -9.5zM342 1067v-328
q0 -35 29 -59.5t63 -24.5h430q16 0 27.5 -9.5t11.5 -27.5v-16q0 -35 -39 -35h-506q-6 0 -11 -4.5t-5 -9.5v-231q0 -6 5 -10.5t11 -4.5h830q40 0 65 23.5t25 62.5v330q0 40 -24.5 63t-65.5 23h-428q-17 0 -30 10.5t-13 24.5v16q0 15 13 26t28 11h506q14 0 14 14v226
q0 18 -18 18h-828q-40 0 -65 -23.5t-25 -64.5z" />
    <glyph glyph-name="t" unicode="t" horiz-adv-x="1239" 
d="M913 870h236q14 0 14 15v258q0 12 -14 12h-236v254q0 14 -14 14h-358q-15 0 -15 -14v-254h-213q-8 0 -11 -2.5t-3 -11.5v-256q0 -15 14 -15h213v-331q0 -94 74.5 -163t173.5 -69h375q14 0 14 15v264q0 12 -14 12h-178q-25 0 -41.5 17t-16.5 40v215zM219 563h-188
q-6 0 -10.5 4.5t-4.5 10.5v350q0 7 7 14l198 203v26q0 9 6 15l260 268q7 10 23 10h432q16 0 16 -18v-250h234q16 0 16 -18v-326q0 -10 -8 -18l-190 -195h180q7 0 12.5 -5t5.5 -13v-332q0 -11 -8 -19l-256 -262q-11 -8 -24 -8h-449q-90 0 -171 71.5t-81 161.5v330z" />
    <glyph glyph-name="u" unicode="u" horiz-adv-x="1411" 
d="M1325 395v746q0 14 -12 14h-361q-14 0 -14 -14v-541q0 -14 -9 -23.5t-22 -9.5h-137q-15 0 -25 9.5t-10 23.5v541q0 14 -12 14h-358q-17 0 -17 -14v-746q0 -39 26 -63.5t64 -24.5h797q41 0 65.5 24t24.5 64zM780 1176v-123l127 133q10 10 23 10h422q7 0 12.5 -6t5.5 -14
v-787q0 -53 -43 -96l-246 -250q-49 -43 -116 -43h-830q-43 0 -67.5 25t-24.5 63v815q0 9 6 15l260 268q10 10 23 10h430q7 0 12.5 -6t5.5 -14z" />
    <glyph glyph-name="v" unicode="v" horiz-adv-x="1347" 
d="M381 16l-379 881q-6 13 2 21l260 268q10 10 25 10h463q25 0 28 -20l37 -150l144 158q12 12 22 12h414q23 0 35 -21.5t0 -48.5l-355 -835q-7 -14 -14 -21l-258 -264q-8 -8 -25 -8h-372q-20 0 -27 18zM981 1143l-125 -432q-3 -6 -6 0l-107 428q-3 16 -20 16h-401
q-8 0 -12 -5.5t-1 -12.5l350 -818q7 -14 21 -14h332q17 0 24 14l348 811q5 9 1.5 17t-13.5 8h-373q-14 0 -18 -12z" />
    <glyph glyph-name="w" unicode="w" horiz-adv-x="1787" 
d="M1413 1143l-104 -402q0 -3 -3 -3t-3 3l-105 402q-3 12 -22 12h-230q-14 0 -18 -14l-105 -400q0 -3 -3 -3t-3 3l-102 400q-3 14 -21 14h-372q-8 0 -12 -5.5t-1 -12.5l314 -815q7 -17 20 -17h309q22 0 25 17l86 278l86 -278q7 -17 20 -17h310q17 0 24 17l314 808
q3 8 -2 16.5t-15 8.5h-368q-16 0 -19 -12zM750 1178l30 -117l111 125q10 10 22 10h291q23 0 29 -18l37 -136l116 142q9 12 23 12h408q28 0 42.5 -22t4.5 -48l-324 -833q-6 -15 -14 -23l-258 -264q-8 -8 -23 -8h-348q-21 0 -27 18l-34 82l-91 -92q-8 -8 -20 -8h-354
q-21 0 -27 18l-342 879q-7 14 2 23l260 268q10 10 25 10h432q23 0 29 -18z" />
    <glyph glyph-name="x" unicode="x" horiz-adv-x="1439" 
d="M315 307h392q15 0 22 10l119 183l121 -181q9 -12 26 -12h381q7 0 10 8.5t-2 14.5l-299 411l287 389q5 6 2 15.5t-12 9.5h-393q-16 0 -23 -12l-100 -182l-103 182q-7 12 -22 12h-408q-9 0 -12 -8t2 -14l283 -392l-279 -411q-5 -8 -2 -15.5t10 -7.5zM541 0h-537
q-12 0 -16 12t2 21l309 452l-299 410q-9 16 2 27l256 264q10 10 25 10h462q19 0 27 -14l55 -95l93 97q12 12 30 12h426q32 0 43 -32t-6 -52l-272 -371l284 -391q30 -39 -6 -78l-258 -264q-8 -8 -20 -8h-455q-12 0 -22 10l-46 56l-55 -58q-8 -8 -22 -8z" />
    <glyph glyph-name="y" unicode="y" horiz-adv-x="1411" 
d="M942 418v-99q0 -26 -17.5 -42.5t-45.5 -16.5h-433q-6 0 -11 -5t-5 -11v-230q0 -14 16 -14h658q91 0 156 67t65 171v903q0 14 -14 14h-359q-5 0 -9.5 -4t-4.5 -10v-514q0 -15 -9 -25t-22 -10h-137q-13 0 -24 10.5t-11 24.5v516q0 12 -12 12h-358q-6 0 -11.5 -4t-5.5 -10
v-697q0 -40 25.5 -64t64.5 -24h393q86 0 111 62zM1370 1178v-949q0 -134 -110 -247l-216 -220q-31 -31 -80.5 -50t-103.5 -19h-721q-14 0 -14 14v301q0 9 6 15l41 43h-37q-43 0 -67.5 25.5t-24.5 62.5v749q0 9 6 15l260 268q10 10 23 10h430q18 0 18 -18v-125l127 133
q10 10 23 10h424q16 0 16 -18z" />
    <glyph glyph-name="z" unicode="z" horiz-adv-x="1341" 
d="M760 862l-412 -262q-14 -8 -14 -25v-256q0 -12 16 -12h899q15 0 15 15v260q0 12 -15 12h-424q-2 0 -2.5 2t0.5 4l418 268q10 7 10 19v256q0 12 -16 12h-883q-18 0 -18 -14v-258q0 -15 16 -15h410q3 0 2 -4zM1288 834l-194 -199h198q6 0 11.5 -6t5.5 -13v-329q0 -8 -9 -17
l-256 -262q-11 -8 -22 -8h-979q-14 0 -14 14v330q0 8 6 14l192 199q2 4 -2 6h-180q-6 0 -11 4.5t-5 10.5v325q0 9 6 15l260 268q10 10 22 10h961q8 0 13 -5t5 -13v-326q0 -10 -8 -18z" />
    <glyph glyph-name="bar" unicode="|" horiz-adv-x="794" 
d="M367 59h323q15 0 15 15v1468q0 12 -13 12h-325q-17 0 -17 -14v-1466q0 -15 17 -15zM463 -248h-404q-14 0 -14 15v1536q0 8 6 14l260 268q10 10 23 10h397q8 0 13.5 -5.5t5.5 -14.5v-1536q0 -7 -9 -16l-256 -263q-8 -8 -22 -8z" />
    <glyph glyph-name="asciitilde" unicode="~" horiz-adv-x="1132" 
d="M1063 807v98q0 15 -16 15h-230q-14 0 -14 -17v-39q0 -22 -22.5 -26.5t-47.5 12.5q-19 12 -49 27t-83 31t-97 16q-81 0 -127.5 -43.5t-46.5 -124.5v-97q0 -14 16 -14h240q12 0 12 14v31q0 25 22.5 32.5t47.5 -9.5q116 -74 221 -74q81 0 127.5 43.5t46.5 124.5zM793 961
h301q14 0 14 -15v-149q0 -87 -53 -146l-246 -252q-36 -37 -73 -52t-91 -15q-112 0 -215 65l-51 -51q-8 -8 -25 -8h-315q-14 0 -14 14v158q0 39 11.5 66.5t39.5 60.5l254 262q38 38 74.5 53t89.5 15q56 0 120 -19t109 -43l41 45q11 11 29 11z" />
    <glyph glyph-name="uni00A0" unicode="&#xa0;" horiz-adv-x="499" 
 />
    <glyph glyph-name="exclamdown" unicode="&#xa1;" horiz-adv-x="835" 
d="M729 901h-367q-12 0 -12 -14v-568q0 -12 12 -12h367q6 0 11 4.5t5 10.5v565q0 14 -16 14zM729 1360h-364q-15 0 -15 -14v-320q0 -14 15 -14h364q6 0 11 5t5 11v318q0 14 -16 14zM504 0h-445q-14 0 -14 14v635q0 9 6 15l39 41h-31q-14 0 -14 14v389q0 8 6 14l260 269
q10 10 23 10h438q8 0 13.5 -5.5t5.5 -13.5v-391q0 -7 -11 -18l-30 -31h24q17 0 17 -18v-637q0 -8 -9 -17l-256 -262q-11 -8 -22 -8z" />
    <glyph glyph-name="cent" unicode="&#xa2;" horiz-adv-x="1347" 
d="M1180 1239h-170v109q0 4 -5 8t-10 4h-356q-6 0 -10 -4.5t-4 -9.5v-107h-193q-40 0 -65 -23.5t-25 -64.5v-616q0 -40 25.5 -64.5t64.5 -24.5h193v-127q0 -12 14 -12h356q15 0 15 12v127h170q40 0 65 24.5t25 64.5v233q0 6 -4 10t-9 4h-317q-6 0 -11 -4t-5 -10v-68
q0 -13 -8.5 -21.5t-22.5 -8.5h-158q-12 0 -22.5 9.5t-10.5 22.5v285q0 17 9.5 26t23.5 9h158q14 0 22.5 -9t8.5 -24v-65q0 -15 16 -15h317q13 0 13 15v227q0 41 -24.5 64.5t-65.5 23.5zM426 1280h59l99 109q9 12 22 12h432q6 0 11.5 -5.5t5.5 -13.5v-102h129
q62 0 96.5 -30.5t34.5 -90.5v-268q0 -13 -8 -21l-45 -47h34q6 0 12.5 -6.5t6.5 -13.5v-275q0 -53 -43 -96l-246 -250q-43 -43 -108 -43l-127 -131q-8 -8 -23 -8h-432q-17 0 -17 14v125h-190q-43 0 -67.5 25.5t-24.5 62.5v670q0 50 33 88l233 242q47 53 123 53z" />
    <glyph glyph-name="sterling" unicode="&#xa3;" horiz-adv-x="1486" 
d="M1436 674q8 0 13 -6t5 -15v-364q0 -11 -8 -19l-256 -262q-8 -8 -23 -8h-1120q-6 0 -10 4.5t-4 9.5v351q0 14 8 22l53 55h-47q-14 0 -14 15v235q0 9 6 15l154 159v152q0 53 32 88l234 242q53 53 121 53h723q62 0 96.5 -30.5t34.5 -90.5v-295q0 -9 -9 -18l-286 -293h297z
M1409 322v299q0 12 -12 12h-547q31 31 31 98v21h145q12 0 12 14v166q0 12 -12 12h-145v92q0 15 11 25t26 10h81q17 0 28 -11t11 -26v-18q0 -4 4 -8t9 -4h325q5 0 9 4t4 8v258q0 42 -25 64t-66 22h-710q-40 0 -65 -22.5t-25 -61.5v-332h-144q-16 0 -16 -14v-164q0 -14 16 -14
h146v-66q0 -30 -18.5 -46.5t-47.5 -16.5h-82q-14 0 -14 -15v-286q0 -15 14 -15h1045q12 0 12 15z" />
    <glyph glyph-name="yen" unicode="&#xa5;" horiz-adv-x="1501" 
d="M1591 1401q31 0 43 -28t-4 -50l-272 -362h78q8 0 13 -6t5 -15v-205q0 -8 -8 -16l-19 -19h9q18 0 18 -20v-203q0 -8 -8 -16l-256 -262q-12 -9 -21 -9h-47l-178 -182q-8 -8 -22 -8h-488q-14 0 -14 14v176h-244q-14 0 -14 15v203q0 8 6 14l35 35h-27q-14 0 -14 14v197
q0 8 6 14l82 84l-254 336q-7 11 2 20l260 269q10 10 25 10h477q19 0 28 -15l125 -196l195 201q10 10 22 10h461zM1583 1337q6 7 2.5 15t-12.5 8h-418q-18 0 -25 -14l-180 -289q-3 -3 -6 0l-184 291q-2 3 -9.5 7.5t-13.5 4.5h-422q-10 0 -13.5 -9t1.5 -18l311 -413h-131
q-16 0 -16 -15v-135q0 -14 16 -14h242v-97h-242q-16 0 -16 -14v-133q0 -14 16 -14h242v-176q0 -5 4 -10t10 -5h412q12 0 12 15v176h234q12 0 12 14v135q0 12 -12 12h-234v97h232q14 0 14 14v137q0 13 -12 13h-125z" />
    <glyph glyph-name="section" unicode="&#xa7;" horiz-adv-x="1642" 
d="M702 844q0 15 13.5 27t27.5 12h424q12 0 23.5 -13t11.5 -30v-15q0 -17 -10 -28t-25 -11h-422q-14 0 -28.5 13t-14.5 26v19zM1610 1378v-245q0 -16 -11 -27q-1 -2 -38 -39q23 -9 36 -35.5t13 -58.5v-271q0 -53 -43 -96l-252 -254q-9 -28 -37 -59l-246 -250
q-27 -24 -52.5 -33.5t-64.5 -9.5h-864q-16 0 -16 14v232q0 12 8 24l51 54l-8 2q-23 10 -37 31t-14 40v308q0 51 33 90l233 241q17 17 29 25q6 25 22 41l238 246q50 53 123 53h874q10 0 16.5 -7t6.5 -16zM1565 1159v182q0 19 -19 19h-827q-40 0 -65 -23.5t-25 -64.5v-223
h-199q-40 0 -65 -23.5t-25 -64.5v-254q0 -35 30 -60.5t64 -25.5h434q13 0 23 -13t10 -28v-13q0 -18 -11.5 -29.5t-27.5 -11.5h-506q-6 0 -11 -4.5t-5 -9.5v-190q0 -6 5 -10.5t11 -4.5h830q40 0 65 23.5t25 62.5v228h199q40 0 65 23.5t25 62.5v256q0 40 -24.5 63t-65.5 23
h-428q-14 0 -28.5 12.5t-14.5 25.5v17q0 15 13 27t27 12h506q15 0 15 16z" />
    <glyph glyph-name="dieresis" unicode="&#xa8;" horiz-adv-x="1009" 
d="M315 1264h273q12 0 12 14v252q0 12 -12 12h-273q-6 0 -11 -4t-5 -10v-250q0 -14 16 -14zM750 1264h272q12 0 12 14v252q0 12 -12 12h-272q-6 0 -11.5 -4t-5.5 -10v-250q0 -14 17 -14zM793 956h-330q-14 0 -14 15v63l-68 -69q-12 -9 -23 -9h-311q-14 0 -14 15v360
q0 9 6 15l221 227q10 10 23 10h346q6 0 11 -5.5t5 -12.5v-43l49 51q10 10 23 10h346q6 0 11 -5.5t5 -12.5v-322q0 -8 -8 -16l-256 -262q-12 -9 -22 -9z" />
    <glyph glyph-name="copyright" unicode="&#xa9;" horiz-adv-x="1681" 
d="M432 307h1077q40 0 65 24t25 64v877q0 41 -25 64.5t-65 23.5h-1077q-40 0 -65 -23.5t-25 -64.5v-877q0 -40 25.5 -64t64.5 -24zM1239 0h-1110q-40 0 -66 25t-26 63v930q0 50 33 88l233 242q50 53 123 53h1087q62 0 97 -31t35 -90v-891q0 -48 -46 -98l-243 -248
q-26 -24 -52 -33.5t-65 -9.5zM1325 494h-709q-19 0 -31 12t-12 31v591q0 20 12.5 33t32.5 13h707q19 0 31 -12.5t12 -33.5v-591q0 -18 -12.5 -30.5t-30.5 -12.5zM1217 803h-140q-14 0 -14 -15v-18q0 -13 -9.5 -22t-21.5 -9h-100q-12 0 -22.5 10t-10.5 23v119q0 14 10 24.5
t23 10.5h100q12 0 21.5 -10t9.5 -23v-16q0 -15 14 -15h140q14 0 14 17v84q0 41 -25 63.5t-67 22.5h-316q-40 0 -65 -23.5t-25 -62.5v-261q0 -39 25.5 -62.5t64.5 -23.5h316q42 0 67 23.5t25 62.5v89q0 4 -4.5 8t-9.5 4z" />
    <glyph glyph-name="guillemotleft" unicode="&#xab;" horiz-adv-x="1419" 
d="M821 977l-137 135q-16 16 -33 0l-321 -350q-29 -33 0 -66l325 -348q15 -14 29 0l137 146q9 11 -2 22q-203 209 -209 213q-3 3 0 6l209 221q11 12 2 21zM1356 977l-137 135q-17 16 -33 0l-322 -350q-29 -33 0 -66l326 -348q14 -14 29 0l137 146q9 11 -2 22
q-203 209 -209 213q-3 3 0 6l209 221q12 12 2 21zM1239 1151l160 -156q10 -11 7.5 -26.5t-13.5 -28.5l-189 -207l191 -198q10 -10 12 -25t-8 -31l-148 -162q-3 -3 -19 -19.5t-18 -18.5l-231 -236q-8 -8 -20 -8.5t-21 6.5l-246 254l-247 -252q-8 -8 -19.5 -9t-21.5 7
l-383 397q-15 19 -17 30t12 30l275 297l334 354q36 36 76 2l159 -156q10 -11 7.5 -26.5t-13.5 -28.5l-188 -207l53 -55l106 117l334 354q36 36 76 2z" />
    <glyph glyph-name="registered" unicode="&#xae;" horiz-adv-x="1681" 
d="M905 762h39l86 -131q9 -13 25 -13h155q6 0 9.5 8t-0.5 15l-89 123l13 2q86 14 86 108v52q0 123 -129 123h-350q-7 0 -12 -5.5t-5 -11.5v-399q0 -15 17 -15h143q12 0 12 15v129zM1049 852h-140q-10 0 -10 10v53q0 11 10 11h140q10 0 19 -7t9 -18v-27q0 -9 -8 -15.5
t-20 -6.5zM432 307h1077q40 0 65 24t25 64v877q0 41 -25 64.5t-65 23.5h-1077q-40 0 -65 -23.5t-25 -64.5v-877q0 -40 25.5 -64t64.5 -24zM1241 0h-1112q-40 0 -66 25t-26 63v930q0 50 33 88l233 242q50 53 123 53h1087q62 0 97 -31t35 -90v-891q0 -48 -46 -98l-243 -248
q-26 -24 -51 -33.5t-64 -9.5zM1325 494h-709q-19 0 -31 12t-12 31v591q0 20 12.5 33t32.5 13h707q19 0 31 -12.5t12 -33.5v-591q0 -18 -12.5 -30.5t-30.5 -12.5z" />
    <glyph glyph-name="macron" unicode="&#xaf;" horiz-adv-x="958" 
d="M354 1264h609q12 0 12 14v254q0 14 -14 14h-607q-16 0 -16 -16v-252q0 -14 16 -14zM733 956h-686q-14 0 -14 15v323q0 9 6 15l260 268q10 10 23 10h679q8 0 13.5 -5.5t5.5 -14.5v-324q0 -8 -8 -16l-256 -262q-9 -9 -23 -9z" />
    <glyph glyph-name="degree" unicode="&#xb0;" horiz-adv-x="940" 
d="M432 862h336q40 0 65 23.5t25 64.5v324q0 41 -24 63.5t-66 22.5h-336q-41 0 -65.5 -23t-24.5 -63v-324q0 -39 26 -63.5t64 -24.5zM647 1040h-92q-12 0 -22.5 10t-10.5 23v78q0 15 9.5 25t23.5 10h92q13 0 22 -10t9 -25v-78q0 -14 -9 -23.5t-22 -9.5zM500 555h-371
q-39 0 -65.5 24.5t-26.5 63.5v371q0 59 33 92l233 242q53 53 121 53h348q62 0 96.5 -30.5t34.5 -90.5v-338q0 -51 -43 -94l-246 -250q-43 -43 -114 -43z" />
    <glyph glyph-name="acute" unicode="&#xb4;" horiz-adv-x="606" 
d="M383 956h-356q-12 0 -16 8t1 19l172 399q6 12 15 21l194 199q10 10 27 10h403q12 0 19.5 -15t-0.5 -32l-164 -312q-9 -18 -27 -36l-248 -254q-7 -7 -20 -7zM326 1264h286q15 0 23 16l145 268q5 8 2 15.5t-10 7.5h-319q-5 0 -11.5 -4t-7.5 -8l-119 -275q-3 -8 -0.5 -14
t11.5 -6z" />
    <glyph glyph-name="paragraph" unicode="&#xb6;" horiz-adv-x="1349" 
d="M1286 1401q8 0 13.5 -6t5.5 -15v-1093q0 -8 -9 -17l-256 -262q-8 -8 -22 -8h-436q-15 0 -15 14v295h-264q-124 0 -197 63.5t-73 168.5v348q0 56 17 105.5t42 74.5l227 234q98 98 252 98h715zM1260 319v1027q0 6 -4 10t-9 4h-667q-121 0 -181.5 -56.5t-60.5 -175.5v-280
q0 -105 66 -168.5t176 -63.5h292v-297q0 -12 17 -12h358q13 0 13 12z" />
    <glyph glyph-name="periodcentered" unicode="&#xb7;" horiz-adv-x="819" 
d="M358 608h365q6 0 10 5t4 10v319q0 14 -12 14h-367q-6 0 -11 -4.5t-5 -9.5v-319q0 -5 5 -10t11 -5zM494 301h-443q-14 0 -14 14v390q0 8 6 14l260 268q10 10 23 10h440q16 0 16 -18v-389q0 -11 -8 -19l-254 -260q-10 -10 -26 -10z" />
    <glyph glyph-name="cedilla" unicode="&#xb8;" horiz-adv-x="483" 
d="M94 -307h-379q-8 0 -11 6.5t1 15.5l236 445q6 12 16 22l170 174q11 11 27 11h274q13 0 22.5 -9t6.5 -26l-66 -334q-5 -21 -29 -45l-243 -250q-10 -10 -25 -10zM18 0h306q18 0 22 16l57 289q3 21 -14 21h-207q-12 0 -20 -15l-154 -291q-4 -6 -1 -13t11 -7z" />
    <glyph glyph-name="guillemotright" unicode="&#xbb;" horiz-adv-x="1411" 
d="M854 483l137 -135q17 -16 33 0l319 348q31 36 3 68l-326 348q-14 14 -29 0l-137 -145q-9 -12 2 -23q203 -209 209 -213q3 -3 0 -6l-209 -221q-12 -12 -2 -21zM324 483l137 -135q17 -16 33 0l319 348q15 17 15 35.5t-13 32.5l-326 348q-14 14 -28 0l-137 -145
q-9 -12 2 -23q203 -209 209 -213q3 -3 0 -6l-209 -221q-12 -12 -2 -21zM193 53l-152 164q-11 11 -11.5 27t9.5 28l174 181l-190 206q-11 11 -14 26t9 30q17 17 110 112t179.5 184.5t128.5 133.5q40 40 80 0l221 -236l230 236q18 18 39.5 18t40.5 -18l339 -365
q41 -47 -6 -104q-53 -58 -162 -177t-171 -186q-47 -50 -133.5 -139.5t-114.5 -118.5q-17 -17 -39 -17t-37 15l-152 164q-11 11 -11.5 27t9.5 28l174 181l-51 53l-424 -451q-15 -15 -37.5 -16t-37.5 14z" />
    <glyph glyph-name="questiondown" unicode="&#xbf;" horiz-adv-x="1404" 
d="M61 598l236 244q39 39 74 45v219q0 10 8 18l260 269q11 8 23 8h438q6 0 11 -5t5 -12v-387q0 -8 -6 -14l-39 -35h27q18 0 18 -18v-156q0 -43 -26 -72l-23 -22h291q7 0 12.5 -5t5.5 -11v-275q0 -53 -43 -96l-246 -250q-48 -43 -116 -43h-809q-61 0 -97 33t-36 86v391
q0 56 32 88zM1057 1360h-367q-14 0 -14 -14v-320q0 -9 3 -11.5t11 -2.5h365q16 0 16 16v318q0 14 -14 14zM1071 793v100q0 14 -14 14h-367q-14 0 -14 -14v-8q0 -16 -9 -24.5t-22 -8.5h-221q-90 0 -90 -90v-371q0 -39 25 -61.5t65 -22.5h817q41 0 65.5 23t24.5 65v230
q0 5 -4 9.5t-10 4.5h-361q-12 0 -12 -14v-21q0 -15 -11 -26t-28 -11h-145q-37 0 -37 37v70q0 13 10.5 23t26.5 10h223q41 0 64.5 23t23.5 63z" />
    <glyph glyph-name="Agrave" unicode="&#xc0;" horiz-adv-x="1624" 
d="M600 1350l-358 -1022q-3 -9 1 -15t13 -6h442q13 0 17 15l63 231h279l63 -234q3 -12 17 -12h442q8 0 11.5 6t0.5 15l-362 1022q-5 10 -15 10h-600q-11 0 -14 -10zM934 1055l70 -246q3 -12 -9 -12h-157q-12 0 -9 12l68 246q4 8 12 8h15q10 0 10 -8zM774 1475h285
q8 0 12.5 6.5t1.5 13.5l-121 274q-6 13 -18 13h-316q-8 0 -11.5 -7t-0.5 -12l148 -274q6 -14 20 -14zM440 1255l-141 267q-4 12 4 20l262 270q11 11 23 11h373q20 0 28 -19l131 -299q15 -36 -14 -65l-39 -39h170q16 0 20 -12l373 -1053q6 -15 3.5 -31.5t-11.5 -25.5
l-264 -271q-8 -8 -21 -8h-514q-11 0 -18 14l-66 238l-252 -244q-8 -8 -20 -8h-533q-15 0 -22.5 13t-1.5 30l377 1044q7 18 14 25z" />
    <glyph glyph-name="Aacute" unicode="&#xc1;" horiz-adv-x="1624" 
d="M600 1350l-358 -1022q-3 -9 1 -15t13 -6h442q13 0 17 15l63 231h279l63 -234q3 -12 17 -12h442q8 0 11.5 6t0.5 15l-362 1022q-5 10 -15 10h-600q-11 0 -14 -10zM934 1055l70 -246q3 -12 -9 -12h-157q-12 0 -9 12l68 246q4 8 12 8h15q10 0 10 -8zM774 1475h287
q14 0 22 16l146 268q5 7 2 15t-10 8h-320q-5 0 -11 -4.5t-7 -8.5l-119 -274q-8 -20 10 -20zM805 14l-66 238l-252 -244q-8 -8 -20 -8h-533q-15 0 -22.5 13t-1.5 30l377 1044q7 18 14 25l221 227l111 254q7 14 14 21l195 198q11 11 26 11h404q12 0 19 -15t-1 -32l-164 -312
q-11 -22 -26 -37l-27 -26h164q16 0 20 -12l373 -1053q6 -15 3.5 -31.5t-11.5 -25.5l-264 -271q-8 -8 -21 -8h-514q-11 0 -18 14z" />
    <glyph glyph-name="Acircumflex" unicode="&#xc2;" horiz-adv-x="1624" 
d="M600 1350l-358 -1022q-3 -9 1 -15t13 -6h442q13 0 17 15l63 231h279l63 -234q3 -12 17 -12h442q8 0 11.5 6t0.5 15l-362 1022q-3 10 -15 10h-600q-11 0 -14 -10zM934 1055l70 -246q3 -12 -9 -12h-157q-12 0 -9 12l68 246q4 8 12 8h15q10 0 10 -8zM999 1475h175
q10 0 13.5 9t-1.5 15l-191 270q-10 13 -24 13h-99q-11 0 -20 -13l-197 -274q-5 -6 -1.5 -13t12.5 -7h178q16 0 26 16l52 76l51 -78q11 -14 26 -14zM354 1167h-6q-13 0 -19.5 13t3.5 28l272 408q18 24 29 33l182 159q15 15 35 15h123q44 0 63 -29l201 -283q14 -20 10.5 -37
t-26.5 -40l-33 -33h49q16 0 20 -12l373 -1053q6 -15 3.5 -31.5t-11.5 -25.5l-264 -271q-8 -8 -21 -8h-514q-11 0 -18 14l-66 238l-252 -244q-8 -8 -20 -8h-533q-15 0 -22.5 13t-1.5 30l377 1044q7 18 14 25z" />
    <glyph glyph-name="Atilde" unicode="&#xc3;" horiz-adv-x="1624" 
d="M600 1350l-358 -1022q-3 -9 1 -15t13 -6h442q13 0 17 15l63 231h279l63 -234q3 -12 17 -12h442q8 0 11.5 6t0.5 15l-362 1022q-5 10 -15 10h-600q-11 0 -14 -10zM934 1055l70 -246q3 -12 -9 -12h-157q-12 0 -9 12l68 246q4 8 12 8h15q10 0 10 -8zM1280 1636v97
q0 14 -16 14h-232q-12 0 -12 -14v-39q0 -22 -22.5 -27t-47.5 12q-19 12 -49 27t-83 31t-97 16q-81 0 -127.5 -43.5t-46.5 -124.5v-96q0 -14 16 -14h240q12 0 12 14v31q0 25 22.5 32t47.5 -10q116 -74 221 -74q81 0 127.5 43.5t46.5 124.5zM1008 1788h303q14 0 14 -14v-140
q0 -97 -53 -153l-78 -80h43q16 0 20 -12l373 -1053q6 -15 3.5 -31.5t-11.5 -25.5l-264 -271q-8 -8 -21 -8h-514q-11 0 -18 14l-66 238l-252 -244q-8 -8 -20 -8h-533q-15 0 -22.5 13t-1.5 30l377 1044q7 18 14 25l53 55h-98q-14 0 -14 15v157q0 39 11.5 66.5t39.5 60.5
l254 263q72 67 174 67q106 0 219 -61l41 43q10 10 27 10z" />
    <glyph glyph-name="Adieresis" unicode="&#xc4;" horiz-adv-x="1624" 
d="M600 1350l-358 -1022q-3 -9 1 -15t13 -6h442q13 0 17 15l63 231h279l63 -234q3 -12 17 -12h442q8 0 11.5 6t0.5 15l-362 1022q-5 10 -15 10h-600q-11 0 -14 -10zM934 1055l70 -246q3 -12 -9 -12h-157q-12 0 -9 12l68 246q4 8 12 8h15q10 0 10 -8zM565 1475h273
q12 0 12 14v252q0 12 -12 12h-273q-6 0 -11 -4t-5 -10v-250q0 -14 16 -14zM999 1475h273q12 0 12 14v252q0 12 -12 12h-273q-6 0 -11 -4t-5 -10v-250q0 -14 16 -14zM805 14l-66 238l-252 -244q-8 -8 -20 -8h-533q-15 0 -22.5 13t-1.5 30l377 1044q7 18 14 25l53 55h-57
q-14 0 -14 15v360q0 8 6 14l221 228q10 10 22 10h347q6 0 11 -5.5t5 -12.5v-43l49 51q10 10 23 10h346q6 0 11 -5.5t5 -12.5v-322q0 -8 -8 -16l-59 -62l368 -1040q6 -15 3.5 -31.5t-11.5 -25.5l-264 -271q-8 -8 -21 -8h-514q-11 0 -18 14z" />
    <glyph glyph-name="Aring" unicode="&#xc5;" horiz-adv-x="1624" 
d="M600 1350l-358 -1022q-3 -9 1 -15t13 -6h442q13 0 17 15l63 231h279l63 -234q3 -12 17 -12h442q8 0 11.5 6t0.5 15l-362 1022q-5 10 -15 10h-600q-11 0 -14 -10zM934 1055l70 -246q3 -12 -9 -12h-157q-12 0 -9 12l68 246q4 8 12 8h15q10 0 10 -8zM815 1475h195
q40 0 65 23.5t25 64.5v133q0 41 -24 63.5t-66 22.5h-195q-41 0 -65.5 -23t-24.5 -63v-133q0 -39 26 -63.5t64 -24.5zM938 1577h-45q-12 0 -22.5 10t-10.5 23v37q0 15 9.5 24.5t23.5 9.5h45q14 0 22.5 -9.5t8.5 -24.5v-37q0 -14 -9 -23.5t-22 -9.5zM805 14l-66 238l-252 -244
q-8 -8 -20 -8h-533q-15 0 -22.5 13t-1.5 30l377 1044q7 18 14 25l125 127q-6 6 -6 18v179q0 56 33 92l235 244q51 51 121 51h205q62 0 96.5 -30.5t34.5 -90.5v-148q0 -51 -43 -94l-60 -59h195q16 0 20 -12l373 -1053q6 -15 3.5 -31.5t-11.5 -25.5l-264 -271q-8 -8 -21 -8
h-514q-11 0 -18 14z" />
    <glyph glyph-name="AE" unicode="&#xc6;" horiz-adv-x="2471" 
d="M1286 745h-166q-6 0 -8 4.5t2 10.5l178 280q4 6 7.5 5t3.5 -7v-276q0 -6 -5.5 -11.5t-11.5 -5.5zM2431 1001l-320 -327q-6 -6 3 -6h305q9 0 14.5 -7t5.5 -16v-358q0 -9 -8 -17l-254 -260q-10 -10 -25 -10h-1132q-14 0 -14 14v195h-199l-195 -199q-13 -10 -22 -10h-551
q-13 0 -21 12.5t0 26.5l713 1067q6 9 21 24l245 254q17 17 35 17h1389q18 0 18 -19v-360q0 -13 -8 -21zM1739 940q-6 0 -6 4v90q0 4 4 4h645q12 0 12 15v293q0 14 -12 14h-1313q-15 0 -25 -14l-675 -1014q-5 -8 -0.5 -16.5t14.5 -8.5h424q19 0 29 19l122 192h345v-196
q0 -15 16 -15h1063q12 0 12 15v290q0 15 -12 15h-643q-6 0 -6 4v90q0 6 6 6h336q12 0 12 14v185q0 14 -12 14h-336z" />
    <glyph glyph-name="Ccedilla" unicode="&#xc7;" horiz-adv-x="1603" 
d="M739 -307h-379q-8 0 -11 6.5t1 15.5l150 285h-371q-42 0 -67 25t-25 63v930q0 50 33 88l233 242q50 53 121 53h1016q61 0 96 -30.5t35 -90.5v-340q0 -8 -8 -16l-152 -156h141q19 0 19 -18v-361q0 -49 -45 -98l-244 -248q-27 -24 -52 -33.5t-63 -9.5h-131q-5 -24 -28 -47
l-244 -250q-10 -10 -25 -10zM664 0h305q18 0 22 16l58 289v2h387q40 0 65 24t25 64v322q0 12 -13 12h-366q-14 0 -14 -14v-74q0 -18 -12.5 -30.5t-30.5 -12.5h-308q-19 0 -31 12t-12 31v385q0 20 12.5 32.5t32.5 12.5h306q18 0 30.5 -11t12.5 -32v-53q0 -5 4 -9.5t10 -4.5
h366q5 0 9 4t4 10v297q0 41 -25 64.5t-65 23.5h-1004q-41 0 -65.5 -23.5t-24.5 -64.5v-877q0 -40 25 -64t65 -24h373l-152 -287q-4 -6 -0.5 -13t11.5 -7z" />
    <glyph glyph-name="Egrave" unicode="&#xc8;" horiz-adv-x="1527" 
d="M795 727h335q13 0 13 14v185q0 14 -13 14h-335q-7 0 -7 4v90q0 4 5 4h645q12 0 12 15v293q0 14 -12 14h-1071q-17 0 -17 -17v-1021q0 -15 17 -15h1071q12 0 12 15v290q0 15 -12 15h-643q-7 0 -7 4v90q0 6 7 6zM772 1475h285q8 0 12.5 6.5t1.5 13.5l-121 274q-6 13 -18 13
h-316q-8 0 -11.5 -7t-0.5 -12l148 -274q6 -14 20 -14zM360 1401l-63 121q-4 12 4 20l262 270q11 11 23 11h372q21 0 29 -19l131 -299q15 -36 -14 -65l-39 -39h412q18 0 18 -19v-364q0 -9 -8 -17l-320 -327q-6 -6 2 -6h306q9 0 14.5 -7t5.5 -16v-358q0 -9 -8 -17l-254 -260
q-10 -10 -25 -10h-1149q-14 0 -14 14v1094q0 8 6 14l260 269q10 10 23 10h26z" />
    <glyph glyph-name="Eacute" unicode="&#xc9;" horiz-adv-x="1527" 
d="M795 727h335q13 0 13 14v185q0 14 -13 14h-335q-7 0 -7 4v90q0 4 5 4h645q12 0 12 15v293q0 14 -12 14h-1071q-17 0 -17 -17v-1021q0 -15 17 -15h1071q12 0 12 15v290q0 15 -12 15h-643q-7 0 -7 4v90q0 6 7 6zM768 1475h287q14 0 22 16l146 268q5 7 1.5 15t-10.5 8h-319
q-5 0 -11 -4.5t-7 -8.5l-119 -274q-8 -20 10 -20zM1208 0h-1149q-14 0 -14 14v1094q0 8 6 14l260 269q10 10 23 10h209l84 192q7 14 14 21l195 198q11 11 26 11h404q12 0 19 -15t-1 -32l-164 -312q-11 -22 -26 -37l-27 -26h410q18 0 18 -19v-364q0 -9 -8 -17l-320 -327
q-6 -6 2 -6h306q9 0 14.5 -7t5.5 -16v-358q0 -9 -8 -17l-254 -260q-10 -10 -25 -10z" />
    <glyph glyph-name="Ecircumflex" unicode="&#xca;" horiz-adv-x="1527" 
d="M795 727h335q13 0 13 14v185q0 14 -13 14h-335q-7 0 -7 4v90q0 4 5 4h645q12 0 12 15v293q0 14 -12 14h-1071q-17 0 -17 -17v-1021q0 -15 17 -15h1071q12 0 12 15v290q0 15 -12 15h-643q-7 0 -7 4v90q0 6 7 6zM989 1475h172q10 0 14 9t-1 15l-191 270q-10 13 -25 13h-94
q-11 0 -20 -13l-201 -274q-5 -6 -2 -13t12 -7h178q18 0 29 16l51 76l52 -78q11 -14 26 -14zM1208 0h-1149q-14 0 -14 14v1094q0 8 6 14l260 269q10 10 23 10h117l145 215q16 23 29 33l182 159q18 15 35 15h119q44 0 63 -29l201 -283q13 -21 9 -37t-26 -40l-32 -33h301
q18 0 18 -19v-364q0 -9 -8 -17l-320 -327q-6 -6 2 -6h306q9 0 14.5 -7t5.5 -16v-358q0 -9 -8 -17l-254 -260q-10 -10 -25 -10z" />
    <glyph glyph-name="Edieresis" unicode="&#xcb;" horiz-adv-x="1527" 
d="M795 727h335q13 0 13 14v185q0 14 -13 14h-335q-7 0 -7 4v90q0 4 5 4h645q12 0 12 15v293q0 14 -12 14h-1071q-17 0 -17 -17v-1021q0 -15 17 -15h1071q12 0 12 15v290q0 15 -12 15h-643q-7 0 -7 4v90q0 6 7 6zM561 1475h273q12 0 12 14v252q0 12 -12 12h-273q-6 0 -11 -4
t-5 -10v-250q0 -14 16 -14zM995 1475h273q12 0 12 14v252q0 12 -12 12h-273q-6 0 -11 -4t-5 -10v-250q0 -14 16 -14zM1208 0h-1149q-14 0 -14 14v1094q0 8 6 14l228 234v186q0 8 6 14l221 228q10 10 22 10h346q6 0 11.5 -5.5t5.5 -12.5v-43l49 51q10 10 23 10h346
q6 0 11 -5.5t5 -12.5v-322q0 -8 -8 -16l-37 -37h197q18 0 18 -19v-364q0 -9 -8 -17l-320 -327q-6 -6 2 -6h306q9 0 14.5 -7t5.5 -16v-358q0 -9 -8 -17l-254 -260q-10 -10 -25 -10z" />
    <glyph glyph-name="Igrave" unicode="&#xcc;" horiz-adv-x="878" 
d="M367 307h409q12 0 12 15v1024q0 14 -12 14h-409q-6 0 -11.5 -5.5t-5.5 -11.5v-1021q0 -15 17 -15zM434 1475h285q8 0 12.5 6.5t1.5 13.5l-121 274q-6 13 -18 13h-315q-8 0 -12 -7t-1 -12l148 -274q6 -14 20 -14zM129 1202l-170 320q-4 12 4 20l262 270q11 11 23 11h373
q20 0 28 -19l131 -299q15 -36 -14 -65l-39 -39h88q19 0 19 -19v-1095q0 -8 -9 -17l-256 -262q-8 -8 -22 -8h-488q-14 0 -14 14v1092q0 10 6 16z" />
    <glyph glyph-name="Iacute" unicode="&#xcd;" horiz-adv-x="878" 
d="M367 307h409q12 0 12 15v1024q0 14 -12 14h-409q-6 0 -11.5 -5.5t-5.5 -11.5v-1021q0 -15 17 -15zM440 1475h287q15 0 23 16l145 268q5 7 2 15t-10 8h-320q-5 0 -11 -4.5t-7 -8.5l-119 -274q-8 -20 10 -20zM547 0h-488q-14 0 -14 14v1092q0 10 6 16l80 82l168 389
q7 14 14 21l195 198q11 11 27 11h403q12 0 19 -15t-1 -32l-163 -312q-10 -20 -27 -37l-27 -26h76q19 0 19 -19v-1095q0 -8 -9 -17l-256 -262q-8 -8 -22 -8z" />
    <glyph glyph-name="Icircumflex" unicode="&#xce;" horiz-adv-x="878" 
d="M367 307h409q12 0 12 15v1024q0 14 -12 14h-409q-6 0 -11.5 -5.5t-5.5 -11.5v-1021q0 -15 17 -15zM657 1475h172q10 0 14 9t-1 15l-191 270q-10 13 -24 13h-95q-11 0 -20 -13l-201 -274q-5 -6 -1.5 -13t12.5 -7h178q15 0 28 16l52 76l51 -78q10 -14 26 -14zM94 1167h-88
q-14 0 -20.5 13.5t2.5 27.5l276 408q12 16 29 33l182 159q15 15 35 15h119q44 0 63 -29l201 -283q14 -20 10.5 -37t-26.5 -40l-46 -45q3 -3 3 -7v-1095q0 -8 -9 -17l-256 -262q-8 -8 -22 -8h-488q-14 0 -14 14v1092q0 10 6 16z" />
    <glyph glyph-name="Idieresis" unicode="&#xcf;" horiz-adv-x="878" 
d="M367 307h409q12 0 12 15v1024q0 14 -12 14h-409q-6 0 -11.5 -5.5t-5.5 -11.5v-1021q0 -15 17 -15zM242 1475h252q12 0 12 14v252q0 12 -12 12h-252q-6 0 -11.5 -4t-5.5 -10v-250q0 -14 17 -14zM655 1475h252q13 0 13 14v252q0 12 -13 12h-252q-6 0 -11 -4t-5 -10v-250
q0 -14 16 -14zM547 0h-488q-14 0 -14 14v1092q0 10 6 16l43 45h-121q-14 0 -14 15v360q0 8 6 14l221 228q10 10 23 10h326q6 0 11 -5.5t5 -12.5v-43l49 51q10 10 23 10h325q6 0 11.5 -5.5t5.5 -12.5v-322q0 -7 -9 -16l-122 -125v-1026q0 -8 -9 -17l-256 -262q-8 -8 -22 -8z
" />
    <glyph glyph-name="Eth" unicode="&#xd0;" horiz-adv-x="1714" 
d="M131 444h-96q-6 0 -10.5 4.5t-4.5 10.5v200q0 8 7 15l104 106v328q0 8 6 14l260 269q10 10 23 10h981q285 0 285 -266v-603q0 -72 -26 -127.5t-85 -115.5l-203 -207q-47 -42 -101 -62t-136 -20h-990q-14 0 -14 14v430zM453 307h944q111 0 177 63.5t66 166.5v591
q0 232 -243 232h-944q-6 0 -11.5 -5t-5.5 -12v-432h-94q-16 0 -16 -16v-129q0 -14 16 -14h94v-430q0 -15 17 -15zM860 752h182q13 0 13 14v131q0 14 -15 14h-180v146q0 14 14 14h275q47 0 72.5 -24t25.5 -68v-297q0 -38 -28 -61t-70 -23h-275q-14 0 -14 14v140z" />
    <glyph glyph-name="Ntilde" unicode="&#xd1;" horiz-adv-x="1669" 
d="M797 809l338 -490q8 -12 20 -12h412q12 0 12 15v1024q0 14 -12 14h-412q-5 0 -9.5 -4t-4.5 -10v-500q0 -8 -8 0l-340 502q-8 12 -23 12h-403q-6 0 -11.5 -5.5t-5.5 -11.5v-1021q0 -15 17 -15h407q5 0 9.5 4.5t4.5 10.5v487q0 1 2 2t4 0.5t3 -2.5zM1323 1636v97
q0 14 -16 14h-232q-12 0 -12 -14v-39q0 -22 -22.5 -27t-47.5 12q-19 12 -49 27t-83 31t-97 16q-81 0 -127.5 -43.5t-46.5 -124.5v-96q0 -14 16 -14h240q12 0 12 14v31q0 25 22.5 32t47.5 -10q116 -74 221 -74q81 0 127.5 43.5t46.5 124.5zM1051 1788h303q14 0 14 -14v-140
q0 -97 -53 -153l-78 -80h369q18 0 18 -19v-1095q0 -9 -8 -17l-256 -262q-8 -8 -23 -8h-481q-13 0 -20 10l-109 158l-158 -160q-8 -8 -22 -8h-488q-14 0 -14 14v1094q0 8 6 14l234 242q5 47 51 102l254 263q72 67 174 67q106 0 219 -61l41 43q10 10 27 10z" />
    <glyph glyph-name="Ograve" unicode="&#xd2;" horiz-adv-x="1607" 
d="M432 307h1004q40 0 65 24t25 64v877q0 41 -25 64.5t-65 23.5h-1004q-40 0 -65 -23.5t-25 -64.5v-877q0 -40 25.5 -64t64.5 -24zM1090 598h-308q-19 0 -31 12t-12 31v385q0 20 12.5 32.5t32.5 12.5h306q19 0 31 -12t12 -33v-385q0 -18 -12.5 -30.5t-30.5 -12.5zM795 1475
h284q8 0 13 6.5t2 13.5l-121 274q-7 13 -19 13h-315q-8 0 -11.5 -7t-0.5 -12l147 -274q6 -14 21 -14zM385 1397l-66 125q-4 11 5 20l262 270q11 11 22 11h373q21 0 29 -19l131 -299q15 -35 -15 -65l-39 -39h353q62 0 96.5 -31t34.5 -90v-891q0 -53 -45 -98l-244 -248
q-26 -24 -51 -33.5t-64 -9.5h-1038q-40 0 -66 25t-26 63v930q0 50 33 88l233 242q37 40 82 49z" />
    <glyph glyph-name="Oacute" unicode="&#xd3;" horiz-adv-x="1607" 
d="M432 307h1004q40 0 65 24t25 64v877q0 41 -25 64.5t-65 23.5h-1004q-40 0 -65 -23.5t-25 -64.5v-877q0 -40 25.5 -64t64.5 -24zM1090 598h-308q-19 0 -31 12t-12 31v385q0 20 12.5 32.5t32.5 12.5h306q19 0 31 -12t12 -33v-385q0 -18 -12.5 -30.5t-30.5 -12.5zM799 1475
h286q15 0 23 16l145 268q5 7 2 15t-10 8h-319q-5 0 -11.5 -4.5t-7.5 -8.5l-119 -274q-3 -7 -0.5 -13.5t11.5 -6.5zM1167 0h-1038q-40 0 -66 25t-26 63v930q0 50 33 88l233 242q50 53 123 53h147l84 192q6 12 15 21l194 198q11 11 27 11h403q12 0 19.5 -15t-0.5 -32
l-164 -312q-10 -20 -27 -37l-26 -26h342q62 0 96.5 -31t34.5 -90v-891q0 -53 -45 -98l-244 -248q-26 -24 -51 -33.5t-64 -9.5z" />
    <glyph glyph-name="Ocircumflex" unicode="&#xd4;" horiz-adv-x="1607" 
d="M432 307h1004q40 0 65 24t25 64v877q0 41 -25 64.5t-65 23.5h-1004q-40 0 -65 -23.5t-25 -64.5v-877q0 -40 25.5 -64t64.5 -24zM1090 598h-308q-19 0 -31 12t-12 31v385q0 20 12.5 32.5t32.5 12.5h306q19 0 31 -12t12 -33v-385q0 -18 -12.5 -30.5t-30.5 -12.5zM1010 1475
h172q10 0 13.5 9t-1.5 15l-190 270q-10 13 -25 13h-94q-12 0 -21 -13l-200 -274q-5 -6 -2 -13t12 -7h180q17 0 27 16l51 76l51 -78q10 -14 27 -14zM1167 0h-1038q-40 0 -66 25t-26 63v930q0 50 33 88l233 242q53 53 123 53h29l137 198q16 22 29 33l206 176q19 15 35 15h119
q44 0 63 -29l201 -283q13 -21 9.5 -37t-25.5 -40l-33 -33h244q62 0 96.5 -31t34.5 -90v-891q0 -53 -45 -98l-244 -248q-26 -24 -51 -33.5t-64 -9.5z" />
    <glyph glyph-name="Otilde" unicode="&#xd5;" horiz-adv-x="1607" 
d="M432 307h1004q40 0 65 24t25 64v877q0 41 -25 64.5t-65 23.5h-1004q-40 0 -65 -23.5t-25 -64.5v-877q0 -40 25.5 -64t64.5 -24zM1090 598h-308q-19 0 -31 12t-12 31v385q0 20 12.5 32.5t32.5 12.5h306q19 0 31 -12t12 -33v-385q0 -18 -12.5 -30.5t-30.5 -12.5zM1288 1636
v97q0 14 -16 14h-232q-12 0 -12 -14v-39q0 -22 -22.5 -27t-47.5 12q-19 12 -49 27t-83 31t-97 16q-81 0 -127.5 -43.5t-46.5 -124.5v-96q0 -14 16 -14h240q12 0 12 14v31q0 25 22.5 32t47.5 -10q116 -74 221 -74q81 0 127.5 43.5t46.5 124.5zM1016 1788h303q14 0 14 -14
v-140q0 -97 -53 -153l-78 -80h238q62 0 96.5 -31t34.5 -90v-891q0 -53 -45 -98l-244 -248q-26 -24 -51 -33.5t-64 -9.5h-1038q-40 0 -66 25t-26 63v930q0 50 33 88l180 186v47q0 39 11.5 66.5t39.5 60.5l254 263q72 67 174 67q106 0 219 -61l41 43q10 10 27 10z" />
    <glyph glyph-name="Odieresis" unicode="&#xd6;" horiz-adv-x="1607" 
d="M432 307h1004q40 0 65 24t25 64v877q0 41 -25 64.5t-65 23.5h-1004q-40 0 -65 -23.5t-25 -64.5v-877q0 -40 25.5 -64t64.5 -24zM1090 598h-308q-19 0 -31 12t-12 31v385q0 20 12.5 32.5t32.5 12.5h306q19 0 31 -12t12 -33v-385q0 -18 -12.5 -30.5t-30.5 -12.5zM584 1475
h272q12 0 12 14v252q0 12 -12 12h-272q-6 0 -11.5 -4t-5.5 -10v-250q0 -14 17 -14zM1018 1475h272q13 0 13 14v252q0 12 -13 12h-272q-6 0 -11.5 -4t-5.5 -10v-250q0 -14 17 -14zM1167 0h-1038q-40 0 -66 25t-26 63v930q0 50 33 88l231 240v196q0 8 6 14l221 228
q10 10 23 10h346q6 0 11 -5.5t5 -12.5v-43l50 51q10 10 22 10h346q6 0 11.5 -5.5t5.5 -12.5v-322q0 -7 -9 -16l-36 -37h137q62 0 96.5 -31t34.5 -90v-891q0 -53 -45 -98l-244 -248q-26 -24 -51 -33.5t-64 -9.5z" />
    <glyph glyph-name="Oslash" unicode="&#xd8;" horiz-adv-x="1607" 
d="M1440 1401q62 0 96.5 -31t34.5 -90v-891q0 -49 -45 -98l-244 -248q-26 -24 -51 -33.5t-64 -9.5h-528l-145 -150q-13 -10 -23 -10h-287q-14 0 -21.5 12t-0.5 27l69 121h-102q-40 0 -66 25t-26 63v930q0 50 33 88l233 242q50 53 123 53h549q18 20 60 63t55 56q16 16 38 16
h226q29 0 42 -23t-1 -57l-27 -55h72zM1526 395v877q0 41 -25 64.5t-65 23.5h-136l54 113q4 9 0 15.5t-13 6.5h-180q-17 0 -24 -14l-58 -121h-647q-40 0 -65 -23.5t-25 -64.5v-877q0 -40 25.5 -64t64.5 -24h146l-74 -135q-5 -8 -0.5 -16.5t14.5 -8.5h178q20 0 29 19l76 141
h635q40 0 65 24t25 64zM784 1071h166l-211 -434v389q0 20 12.5 32.5t32.5 12.5zM1090 598h-160l203 416v-373q0 -18 -12.5 -30.5t-30.5 -12.5z" />
    <glyph glyph-name="Ugrave" unicode="&#xd9;" horiz-adv-x="1576" 
d="M786 641v705q0 5 -4 9.5t-8 4.5h-409q-6 0 -11.5 -5.5t-5.5 -11.5v-948q0 -40 25.5 -64t64.5 -24h961q40 0 65 24t25 64v951q0 14 -12 14h-410q-6 0 -11 -5.5t-5 -11.5v-702q0 -20 -12 -32.5t-31 -12.5h-177q-19 0 -32 12.5t-13 32.5zM778 1475h285q8 0 12.5 6.5
t1.5 13.5l-121 274q-6 13 -18 13h-315q-8 0 -12 -7t-1 -12l148 -274q6 -14 20 -14zM367 1401l-64 121q-4 12 4 20l262 270q11 11 23 11h373q20 0 28 -19l131 -299q15 -36 -14 -65l-39 -39h445q8 0 13 -6t5 -13v-993q0 -53 -45 -98l-244 -248q-43 -43 -115 -43h-995
q-39 0 -65.5 25t-26.5 63v1020q0 8 6 14l260 269q7 10 23 10h35z" />
    <glyph glyph-name="Uacute" unicode="&#xda;" horiz-adv-x="1576" 
d="M786 641v705q0 5 -4 9.5t-8 4.5h-409q-6 0 -11.5 -5.5t-5.5 -11.5v-948q0 -40 25.5 -64t64.5 -24h961q40 0 65 24t25 64v951q0 14 -12 14h-410q-6 0 -11 -5.5t-5 -11.5v-702q0 -20 -12 -32.5t-31 -12.5h-177q-19 0 -32 12.5t-13 32.5zM788 1475h287q15 0 23 16l145 268
q5 7 2 15t-10 8h-320q-5 0 -11 -4.5t-7 -8.5l-119 -274q-8 -20 10 -20zM43 88v1020q0 8 6 14l260 269q7 10 23 10h231l84 192q6 12 15 21l194 198q11 11 27 11h403q12 0 19.5 -15t-0.5 -32l-164 -312q-10 -20 -27 -37l-27 -26h429q8 0 13 -6t5 -13v-993q0 -53 -45 -98
l-244 -248q-43 -43 -115 -43h-995q-39 0 -65.5 25t-26.5 63z" />
    <glyph glyph-name="Ucircumflex" unicode="&#xdb;" horiz-adv-x="1576" 
d="M786 641v705q0 5 -4 9.5t-8 4.5h-409q-6 0 -11.5 -5.5t-5.5 -11.5v-948q0 -40 25.5 -64t64.5 -24h961q40 0 65 24t25 64v951q0 14 -12 14h-410q-6 0 -11 -5.5t-5 -11.5v-702q0 -20 -12 -32.5t-31 -12.5h-177q-19 0 -32 12.5t-13 32.5zM993 1475h172q10 0 14 9t-1 15
l-191 270q-10 13 -24 13h-95q-11 0 -20 -13l-201 -274q-5 -6 -2 -13t12 -7h177q19 0 30 16l51 76l52 -78q10 -14 26 -14zM43 88v1020q0 8 6 14l260 269q7 10 23 10h106l137 198q13 20 29 33l207 176q15 15 35 15h119q44 0 63 -29l201 -283q13 -21 9 -37t-26 -40l-32 -33h336
q8 0 13 -6t5 -13v-993q0 -53 -45 -98l-244 -248q-43 -43 -115 -43h-995q-39 0 -65.5 25t-26.5 63z" />
    <glyph glyph-name="Udieresis" unicode="&#xdc;" horiz-adv-x="1576" 
d="M786 641v705q0 5 -4 9.5t-8 4.5h-409q-6 0 -11.5 -5.5t-5.5 -11.5v-948q0 -40 25.5 -64t64.5 -24h961q40 0 65 24t25 64v951q0 14 -12 14h-410q-6 0 -11 -5.5t-5 -11.5v-702q0 -20 -12 -32.5t-31 -12.5h-177q-19 0 -32 12.5t-13 32.5zM567 1475h273q12 0 12 14v252
q0 12 -12 12h-273q-6 0 -11 -4t-5 -10v-250q0 -14 16 -14zM1001 1475h273q12 0 12 14v252q0 12 -12 12h-273q-6 0 -11 -4t-5 -10v-250q0 -14 16 -14zM43 88v1020q0 8 6 14l236 242v178q0 8 6 14l221 228q10 10 23 10h346q6 0 11 -5.5t5 -12.5v-43l49 51q10 10 23 10h346
q6 0 11 -5.5t5 -12.5v-322q0 -8 -8 -16l-37 -37h230q8 0 13 -6t5 -13v-993q0 -53 -45 -98l-244 -248q-43 -43 -115 -43h-995q-39 0 -65.5 25t-26.5 63z" />
    <glyph glyph-name="Yacute" unicode="&#xdd;" horiz-adv-x="1499" 
d="M944 1034l-184 314q-2 3 -9.5 7.5t-13.5 4.5h-422q-8 0 -12 -9t0 -16l422 -665v-348q0 -5 4 -10t10 -5h410q6 0 10 5t4 10v348l424 669q3 6 -2 13.5t-12 7.5h-418q-18 0 -25 -14l-180 -312q-3 -3 -6 0zM817 1475h287q14 0 22 16l146 268q5 7 2 15t-10 8h-320
q-5 0 -11 -4.5t-7 -8.5l-119 -274q-8 -20 10 -20zM420 416l-424 686q-7 11 2 20l260 269q10 10 25 10h309l84 192q7 14 14 21l195 198q11 11 26 11h404q12 0 19 -15t-1 -32l-164 -312q-9 -16 -20 -32t-18 -24l-7 -7h467q31 0 42.5 -27.5t-3.5 -50.5l-422 -668v-368
q0 -9 -8 -17l-256 -262q-8 -8 -22 -8h-488q-14 0 -14 14v402z" />
    <glyph glyph-name="Thorn" unicode="&#xde;" horiz-adv-x="1587" 
d="M1090 713h-320q-12 0 -22.5 9.5t-10.5 22.5v201q0 15 9.5 25t23.5 10h320q13 0 21.5 -10t8.5 -25v-201q0 -14 -8.5 -23t-21.5 -9zM496 0h-437q-14 0 -14 14v1094q0 8 6 14l260 269q10 10 23 10h430q8 0 13 -6t5 -15v-100h637q62 0 96.5 -30.5t34.5 -90.5v-624
q0 -54 -43 -97l-245 -250q-43 -43 -115 -43h-496l-133 -137q-8 -8 -22 -8zM737 453h678q40 0 65 23.5t25 64.5v612q0 41 -24 63.5t-66 22.5h-678v107q0 14 -12 14h-360q-5 0 -10 -4t-5 -10v-1024q0 -15 15 -15h360q12 0 12 12v134z" />
    <glyph glyph-name="germandbls" unicode="&#xdf;" horiz-adv-x="1468" 
d="M1442 1266v-187q0 -104 -53 -168q53 -59 53 -149v-232q0 -69 -27 -125t-84 -116l-192 -197q-48 -48 -105.5 -70t-140.5 -22h-361q-18 0 -18 20v15l-29 -27q-12 -8 -22 -8h-404q-14 0 -14 14v1010q0 121 59 180l228 234q56 56 115.5 77t138.5 21h565q144 0 217.5 -71
t73.5 -199zM1397 1077v187q0 111 -62.5 171t-187.5 60h-555q-242 0 -242 -231v-945q0 -12 17 -12h358q12 0 12 12v873q0 22 12.5 34.5t32.5 12.5h191q19 0 31 -12.5t12 -32.5v-121q0 -22 -12.5 -34.5t-32.5 -12.5h-113q-12 0 -12 -14v-199q0 -12 12 -12h115q19 0 31 -12.5
t12 -32.5v-142q0 -22 -12.5 -34.5t-32.5 -12.5h-113q-12 0 -12 -14v-231q0 -15 12 -15h295q114 0 179 64t65 166v213q0 103 -74 161q74 58 74 166z" />
    <glyph glyph-name="agrave" unicode="&#xe0;" horiz-adv-x="1411" 
d="M332 711v-316q1 -41 26 -64.5t64 -23.5h414q37 0 65 16t37 44v-45q0 -15 14 -15h361q12 0 12 12v750q0 40 -24.5 63t-63.5 23h-862q-17 0 -17 -14v-228q0 -16 15 -16h534q13 0 23 -9t10 -22v-94q-35 25 -88 25h-430q-41 0 -65.5 -23t-24.5 -63zM940 674v-99q0 -8 -10 -8
h-201q-31 0 -31 33v53q0 11 9 20t22 9h203q8 0 8 -8zM682 1264h285q8 0 12.5 6.5t1.5 13.5l-121 275q-6 12 -18 12h-316q-8 0 -11.5 -7t-0.5 -12l148 -274q6 -14 20 -14zM289 1155l-82 156q-4 12 4 20l262 271q10 10 23 10h372q21 0 29 -19l131 -299q15 -36 -14 -65l-33 -33
h258q63 0 97 -30.5t34 -90.5v-788q0 -9 -8 -17l-256 -262q-11 -8 -21 -8h-456q-6 0 -11.5 4t-5.5 10v17q-36 -31 -82 -31h-411q-43 0 -67.5 25t-24.5 63v393q0 74 41 107l10 8q-8 0 -16.5 7.5t-8.5 17.5v270q0 21 10 31z" />
    <glyph glyph-name="aacute" unicode="&#xe1;" horiz-adv-x="1411" 
d="M332 711v-316q1 -41 26 -64.5t64 -23.5h414q37 0 65 16t37 44v-45q0 -15 14 -15h361q12 0 12 12v750q0 40 -24.5 63t-63.5 23h-862q-17 0 -17 -14v-228q0 -16 15 -16h534q13 0 23 -9t10 -22v-94q-35 25 -88 25h-430q-41 0 -65.5 -23t-24.5 -63zM940 674v-99q0 -8 -10 -8
h-201q-31 0 -31 33v53q0 11 9 20t22 9h203q8 0 8 -8zM694 1264h287q15 0 23 16l145 268q5 8 2 15.5t-10 7.5h-320q-14 0 -18 -12l-119 -275q-8 -20 10 -20zM530 0h-411q-43 0 -67.5 25t-24.5 63v393q0 74 41 107l10 8q-8 0 -16.5 7.5t-8.5 17.5v270q0 21 10 31l256 264
q10 10 23 10h131l80 186q7 14 14 21l195 199q10 10 26 10h404q12 0 19 -15t-1 -32l-163 -312q-9 -18 -27 -36l-21 -21h240q63 0 97 -30.5t34 -90.5v-788q0 -9 -8 -17l-256 -262q-11 -8 -21 -8h-456q-6 0 -11.5 4t-5.5 10v17q-36 -31 -82 -31z" />
    <glyph glyph-name="acircumflex" unicode="&#xe2;" horiz-adv-x="1411" 
d="M332 711v-316q1 -41 26 -64.5t64 -23.5h414q37 0 65 16t37 44v-45q0 -15 14 -15h361q12 0 12 12v750q0 40 -24.5 63t-63.5 23h-862q-17 0 -17 -14v-228q0 -16 15 -16h534q13 0 23 -9t10 -22v-94q-35 25 -88 25h-430q-41 0 -65.5 -23t-24.5 -63zM940 674v-99q0 -8 -10 -8
h-201q-31 0 -31 33v53q0 11 9 20t22 9h203q8 0 8 -8zM918 1264h172q10 0 13.5 9t-1.5 15l-191 271q-9 12 -24 12h-92q-14 0 -23 -12l-201 -275q-5 -6 -1.5 -13t12.5 -7h180q16 0 26 16l52 76l51 -78q11 -14 27 -14zM530 0h-411q-43 0 -67.5 25t-24.5 63v393q0 74 41 107
l10 8q-8 0 -16.5 7.5t-8.5 17.5v270q0 21 10 31l261 264q18 18 43 18h6l127 185q10 17 28 32l207 176q15 15 35 15h119q44 0 63 -29l201 -283q13 -21 9.5 -37t-25.5 -40l-27 -27h129q63 0 97 -30.5t34 -90.5v-788q0 -9 -8 -17l-256 -262q-11 -8 -21 -8h-456q-6 0 -11.5 4
t-5.5 10v17q-36 -31 -82 -31z" />
    <glyph glyph-name="atilde" unicode="&#xe3;" horiz-adv-x="1411" 
d="M332 711v-316q1 -41 26 -64.5t64 -23.5h414q37 0 65 16t37 44v-45q0 -15 14 -15h361q12 0 12 12v750q0 40 -24.5 63t-63.5 23h-862q-17 0 -17 -14v-228q0 -16 15 -16h534q13 0 23 -9t10 -22v-94q-35 25 -88 25h-430q-41 0 -65.5 -23t-24.5 -63zM940 674v-99q0 -8 -10 -8
h-201q-31 0 -31 33v53q0 11 9 20t22 9h203q8 0 8 -8zM1219 1425v97q0 14 -17 14h-231q-13 0 -13 -14v-39q0 -22 -22 -27t-47 12q-19 12 -49 27t-83.5 31t-97.5 16q-81 0 -127.5 -43.5t-46.5 -124.5v-96q0 -14 17 -14h239q13 0 13 14v31q0 25 22 32t47 -10q116 -74 221 -74
q81 0 128 44t47 124zM946 1577h303q15 0 15 -14v-140q0 -96 -54 -153l-71 -74h100q63 0 97 -30.5t34 -90.5v-788q0 -9 -8 -17l-256 -262q-11 -8 -21 -8h-456q-6 0 -11.5 4t-5.5 10v17q-36 -31 -82 -31h-411q-43 0 -67.5 25t-24.5 63v393q0 74 41 107l10 8q-8 0 -16.5 7.5
t-8.5 17.5v270q0 21 10 31l117 120v86q0 39 11.5 66.5t39.5 60.5l254 263q72 67 174 67q107 0 220 -61l41 43q10 10 26 10z" />
    <glyph glyph-name="adieresis" unicode="&#xe4;" horiz-adv-x="1411" 
d="M332 711v-316q1 -41 26 -64.5t64 -23.5h414q37 0 65 16t37 44v-45q0 -15 14 -15h361q12 0 12 12v750q0 40 -24.5 63t-63.5 23h-862q-17 0 -17 -14v-228q0 -16 15 -16h534q13 0 23 -9t10 -22v-94q-35 25 -88 25h-430q-41 0 -65.5 -23t-24.5 -63zM940 674v-99q0 -8 -10 -8
h-201q-31 0 -31 33v53q0 11 9 20t22 9h203q8 0 8 -8zM500 1264h272q12 0 12 14v252q0 12 -12 12h-272q-6 0 -11.5 -4t-5.5 -10v-250q0 -14 17 -14zM934 1264h272q13 0 13 14v252q0 12 -13 12h-272q-6 0 -11 -4t-5 -10v-250q0 -14 16 -14zM530 0h-411q-43 0 -67.5 25
t-24.5 63v393q0 74 41 107l10 8q-8 0 -16.5 7.5t-8.5 17.5v270q0 21 10 31l154 157v252q0 9 6 15l221 227q10 10 23 10h346q6 0 11 -5.5t5 -12.5v-43l50 51q10 10 22 10h346q6 0 11.5 -5.5t5.5 -12.5v-322q0 -7 -9 -16l-30 -31h14q63 0 97 -30.5t34 -90.5v-788q0 -9 -8 -17
l-256 -262q-11 -8 -21 -8h-456q-6 0 -11.5 4t-5.5 10v17q-36 -31 -82 -31z" />
    <glyph glyph-name="aring" unicode="&#xe5;" horiz-adv-x="1411" 
d="M332 711v-316q1 -41 26 -64.5t64 -23.5h414q37 0 65 16t37 44v-45q0 -15 14 -15h361q12 0 12 12v750q0 40 -24.5 63t-63.5 23h-862q-17 0 -17 -14v-228q0 -16 15 -16h534q13 0 23 -9t10 -22v-94q-35 25 -88 25h-430q-41 0 -65.5 -23t-24.5 -63zM940 674v-99q0 -8 -10 -8
h-201q-31 0 -31 33v53q0 11 9 20t22 9h203q8 0 8 -8zM748 1264h194q40 0 65 23.5t25 64.5v133q0 41 -24 63.5t-66 22.5h-194q-41 0 -66 -23t-25 -63v-133q0 -39 26.5 -63.5t64.5 -24.5zM870 1366h-45q-12 0 -22 10t-10 23v37q0 15 9 24.5t23 9.5h45q14 0 22.5 -9.5
t8.5 -24.5v-37q0 -14 -9 -23.5t-22 -9.5zM530 0h-411q-43 0 -67.5 25t-24.5 63v393q0 74 41 107l10 8q-8 0 -16.5 7.5t-8.5 17.5v270q0 21 10 31l256 264q10 10 23 10h10v29q0 56 33 92l236 244q51 51 120 51h205q62 0 96.5 -30.5t34.5 -90.5v-148q0 -54 -43 -94l-53 -53
h258q63 0 97 -30.5t34 -90.5v-788q0 -9 -8 -17l-256 -262q-11 -8 -21 -8h-456q-6 0 -11.5 4t-5.5 10v17q-36 -31 -82 -31z" />
    <glyph glyph-name="ae" unicode="&#xe6;" horiz-adv-x="2097" 
d="M1935 1196q61 0 96 -30.5t35 -90.5v-424q0 -17 -12.5 -27t-30.5 -10q14 -3 22.5 -12.5t8.5 -21.5v-291q0 -13 -8 -21l-256 -260q-8 -8 -21 -8h-745q-22 0 -46.5 15t-35.5 34q-14 -19 -40.5 -34t-49.5 -15h-733q-43 0 -67.5 25t-24.5 63v393q0 74 41 107l10 8
q-8 0 -16.5 7.5t-8.5 17.5v270q0 21 10 31l256 264q10 10 23 10h735q71 0 105 -43q37 43 98 43h655zM2021 684v383q0 41 -25 64.5t-65 23.5h-645q-32 0 -64 -25t-40 -53q-8 28 -42 53t-65 25h-702q-15 0 -15 -14v-228q0 -16 15 -16h534q13 0 23 -9t10 -22v-94q-36 25 -88 25
h-430q-41 0 -65.5 -23t-24.5 -63v-316q0 -40 24.5 -64t65.5 -24h653q35 0 66 25t41 55q11 -38 41 -59t63 -21h709q14 0 14 15v231q0 14 -14 14h-539q-12 0 -22.5 10t-10.5 23v59q0 5 7 5h573q6 0 12 6.5t6 13.5zM932 682q2 0 5 -2.5t3 -5.5v-99q0 -8 -10 -8h-201
q-31 0 -31 33v53q0 11 9 20t22 9h203zM1634 897q31 0 31 -33v-59q0 -10 -10 -10h-221q-11 0 -11 10v59q0 14 9 23.5t24 9.5h178z" />
    <glyph glyph-name="ccedilla" unicode="&#xe7;" horiz-adv-x="1402" 
d="M633 -307h-379q-8 0 -11 6.5t1 15.5l149 285h-264q-39 0 -65.5 24t-26.5 64v725q0 51 33 88l233 242q50 53 123 53h811q62 0 97.5 -30.5t35.5 -90.5v-284q0 -11 -6 -17l-72 -74h60q18 0 18 -18v-293q0 -53 -43 -96l-246 -250q-27 -24 -52 -33.5t-64 -9.5h-35v-2
q-5 -21 -29 -45l-244 -250q-10 -10 -24 -10zM557 0h305q7 0 14 5t9 11l57 289v2h291q42 0 67 23.5t25 62.5v254q0 12 -14 12h-346q-15 0 -15 -14v-47q0 -13 -9 -22t-21 -9h-156q-12 0 -22.5 10t-10.5 23v262q0 14 10 24.5t23 10.5h156q12 0 21 -10t9 -23v-41q0 -14 15 -14
h346q14 0 14 16v244q0 41 -25 63.5t-67 22.5h-801q-40 0 -65 -23.5t-25 -62.5v-676q0 -39 25.5 -62.5t64.5 -23.5h266l-151 -287q-4 -6 -1 -13t11 -7z" />
    <glyph glyph-name="egrave" unicode="&#xe8;" horiz-adv-x="1398" 
d="M1329 684v385q0 40 -24.5 63t-65.5 23h-807q-40 0 -65 -23.5t-25 -62.5v-674q0 -40 25.5 -64t64.5 -24h871q14 0 14 15v231q0 14 -14 14h-539q-12 0 -22.5 10t-10.5 23v59q0 5 6 5h574q6 0 12 6.5t6 13.5zM731 805v59q0 14 9 23.5t24 9.5h178q31 0 31 -33v-59
q0 -10 -10 -10h-222q-10 0 -10 10zM700 1264h285q8 0 12.5 6.5t1.5 13.5l-120 275q-6 12 -19 12h-315q-8 0 -12 -7t-1 -12l148 -274q6 -14 20 -14zM311 1151l-86 160q-4 12 4 20l263 271q10 10 22 10h373q20 0 28 -19l132 -299q15 -35 -15 -65l-33 -33h244q61 0 96 -30.5
t35 -90.5v-422q0 -17 -12.5 -28t-30.5 -11q14 -3 22.5 -12.5t8.5 -21.5v-291q0 -11 -8 -19l-256 -262q-8 -8 -21 -8h-948q-38 0 -65 25.5t-27 62.5v725q0 52 33 88l233 242z" />
    <glyph glyph-name="eacute" unicode="&#xe9;" horiz-adv-x="1398" 
d="M1329 684v385q0 40 -24.5 63t-65.5 23h-807q-40 0 -65 -23.5t-25 -62.5v-674q0 -40 25.5 -64t64.5 -24h871q14 0 14 15v231q0 14 -14 14h-539q-12 0 -22.5 10t-10.5 23v59q0 5 6 5h574q6 0 12 6.5t6 13.5zM731 805v59q0 14 9 23.5t24 9.5h178q31 0 31 -33v-59
q0 -10 -10 -10h-222q-10 0 -10 10zM719 1264h287q14 0 22 16l146 268q5 8 1.5 15.5t-10.5 7.5h-319q-5 0 -11.5 -4t-7.5 -8l-118 -275q-8 -20 10 -20zM1077 0h-948q-38 0 -65 25.5t-27 62.5v725q0 52 33 88l233 242q50 53 123 53h72l80 186q7 14 14 21l194 199q10 10 27 10
h404q12 0 19 -15t-1 -32l-164 -312q-9 -18 -27 -36l-20 -21h219q61 0 96 -30.5t35 -90.5v-422q0 -17 -12.5 -28t-30.5 -11q14 -3 22.5 -12.5t8.5 -21.5v-291q0 -11 -8 -19l-256 -262q-8 -8 -21 -8z" />
    <glyph glyph-name="ecircumflex" unicode="&#xea;" horiz-adv-x="1398" 
d="M1329 684v385q0 40 -24.5 63t-65.5 23h-807q-40 0 -65 -23.5t-25 -62.5v-674q0 -40 25.5 -64t64.5 -24h871q14 0 14 15v231q0 14 -14 14h-539q-12 0 -22.5 10t-10.5 23v59q0 5 6 5h574q6 0 12 6.5t6 13.5zM731 805v59q0 14 9 23.5t24 9.5h178q31 0 31 -33v-59
q0 -10 -10 -10h-222q-10 0 -10 10zM924 1264h172q10 0 13.5 9t-1.5 15l-190 271q-9 12 -25 12h-92q-14 0 -23 -12l-200 -275q-5 -6 -2 -13t12 -7h180q16 0 27 16l51 76l51 -78q8 -14 27 -14zM1077 0h-948q-38 0 -65 25.5t-27 62.5v725q0 52 33 88l233 242q30 30 64 45
l139 201q14 19 29 32l206 176q15 15 35 15h119q44 0 63 -29l201 -283q13 -21 9.5 -37t-25.5 -40l-27 -27h127q61 0 96 -30.5t35 -90.5v-422q0 -17 -12.5 -28t-30.5 -11q14 -3 22.5 -12.5t8.5 -21.5v-291q0 -11 -8 -19l-256 -262q-8 -8 -21 -8z" />
    <glyph glyph-name="edieresis" unicode="&#xeb;" horiz-adv-x="1398" 
d="M1329 684v385q0 40 -24.5 63t-65.5 23h-807q-40 0 -65 -23.5t-25 -62.5v-674q0 -40 25.5 -64t64.5 -24h871q14 0 14 15v231q0 14 -14 14h-539q-12 0 -22.5 10t-10.5 23v59q0 5 6 5h574q6 0 12 6.5t6 13.5zM731 805v59q0 14 9 23.5t24 9.5h178q31 0 31 -33v-59
q0 -10 -10 -10h-222q-10 0 -10 10zM489 1264h273q12 0 12 14v252q0 12 -12 12h-273q-6 0 -11 -4t-5 -10v-250q0 -14 16 -14zM924 1264h272q12 0 12 14v252q0 12 -12 12h-272q-6 0 -11.5 -4t-5.5 -10v-250q0 -14 17 -14zM1077 0h-948q-38 0 -65 25.5t-27 62.5v725q0 52 33 88
l137 141v289q0 9 6 15l221 227q10 10 23 10h346q6 0 11 -5.5t5 -12.5v-43l49 51q10 10 23 10h346q6 0 11 -5.5t5 -12.5v-322q0 -8 -8 -16l-31 -31h29q61 0 96 -30.5t35 -90.5v-422q0 -17 -12.5 -28t-30.5 -11q14 -3 22.5 -12.5t8.5 -21.5v-291q0 -11 -8 -19l-256 -262
q-8 -8 -21 -8z" />
    <glyph glyph-name="igrave" unicode="&#xec;" horiz-adv-x="827" 
d="M367 307h358q12 0 12 12v822q0 14 -12 14h-360q-5 0 -10 -4t-5 -10v-822q0 -12 17 -12zM401 1264h285q8 0 12.5 6.5t1.5 13.5l-120 275q-6 12 -19 12h-315q-8 0 -12 -7t-1 -12l148 -274q6 -14 20 -14zM106 975l-180 336q-4 12 4 20l263 271q10 10 22 10h373q20 0 28 -19
l132 -299q15 -35 -15 -65l-33 -33h64q18 0 18 -20v-889q0 -9 -8 -17l-256 -262q-12 -8 -22 -8h-437q-14 0 -14 14v889q0 9 6 15z" />
    <glyph glyph-name="iacute" unicode="&#xed;" horiz-adv-x="827" 
d="M367 307h358q12 0 12 12v822q0 14 -12 14h-360q-5 0 -10 -4t-5 -10v-822q0 -12 17 -12zM416 1264h286q15 0 23 16l145 268q5 8 2 15.5t-10 7.5h-319q-5 0 -11.5 -4t-7.5 -8l-118 -275q-8 -20 10 -20zM496 0h-437q-14 0 -14 14v889q0 9 6 15l49 49q-2 4 2 16l172 399
q6 12 15 21l194 199q10 10 27 10h403q12 0 19.5 -15t-0.5 -32l-164 -312q-9 -18 -27 -36l-20 -21h43q18 0 18 -20v-889q0 -9 -8 -17l-256 -262q-12 -8 -22 -8z" />
    <glyph glyph-name="icircumflex" unicode="&#xee;" horiz-adv-x="827" 
d="M367 307h358q12 0 12 12v822q0 14 -12 14h-360q-5 0 -10 -4t-5 -10v-822q0 -12 17 -12zM631 1264h172q10 0 13.5 9t-1.5 15l-190 271q-9 12 -25 12h-92q-14 0 -23 -12l-200 -275q-5 -6 -2 -13t12 -7h180q17 0 27 16l51 76l51 -78q8 -14 27 -14zM88 956h-125
q-12 0 -19.5 14.5t1.5 26.5l268 392q16 21 29 32l207 176q15 15 34 15h119q45 0 64 -29l200 -283q13 -21 9.5 -37t-25.5 -40l-68 -70v-866q0 -9 -8 -17l-256 -262q-12 -8 -22 -8h-437q-14 0 -14 14v889q0 9 6 15z" />
    <glyph glyph-name="idieresis" unicode="&#xef;" horiz-adv-x="827" 
d="M367 307h358q12 0 12 12v822q0 14 -12 14h-360q-5 0 -10 -4t-5 -10v-822q0 -12 17 -12zM225 1264h252q12 0 12 14v252q0 12 -12 12h-252q-6 0 -11 -4t-5 -10v-250q0 -14 16 -14zM639 1264h252q12 0 12 14v252q0 12 -12 12h-252q-6 0 -11 -4t-5 -10v-250q0 -14 16 -14z
M496 0h-437q-14 0 -14 14v889q0 9 6 15l37 38h-131q-14 0 -14 15v360q0 9 6 15l221 227q10 10 23 10h325q6 0 11.5 -5.5t5.5 -12.5v-43l49 51q10 10 22 10h326q6 0 11 -5.5t5 -12.5v-322q0 -8 -8 -16l-158 -162v-778q0 -9 -8 -17l-256 -262q-12 -8 -22 -8z" />
    <glyph glyph-name="eth" unicode="&#xf0;" 
d="M920 567h-156q-12 0 -22.5 10t-10.5 23v221q0 15 9.5 25t23.5 10h156q13 0 21.5 -10t8.5 -25v-221q0 -14 -8.5 -23.5t-21.5 -9.5zM977 0h-848q-39 0 -65.5 24.5t-26.5 63.5v684q0 49 33 88l233 242q50 53 123 53h74l-41 82q-9 12 4 25l256 264q10 10 22 10h387
q23 0 33 -20l8 -19l86 35q22 10 33 -12l66 -136q6 -12 -2 -20l-76 -78l80 -160q24 -53 24 -104v-633q0 -53 -43 -96l-245 -250q-43 -43 -115 -43zM1200 1337l94 39q13 5 6 19l-40 80q-7 13 -21 6l-90 -37l-19 37q-7 14 -22 14h-334q-9 0 -12.5 -5.5t0.5 -14.5l72 -150
l-103 -37q-14 -6 -8 -20l39 -80q8 -14 22 -8l101 37l63 -127q-39 24 -98 24h-418q-41 0 -65.5 -23t-24.5 -63v-633q0 -39 26 -63.5t64 -24.5h813q40 0 65 23.5t25 64.5v629q0 44 -18 82z" />
    <glyph glyph-name="ntilde" unicode="&#xf1;" horiz-adv-x="1413" 
d="M954 307h361q12 0 12 12v750q0 41 -24 63.5t-66 22.5h-348q-51 0 -88 -29l-64 -49v66q0 5 -3.5 8.5t-8.5 3.5h-358q-6 0 -11.5 -4t-5.5 -10v-822q0 -12 17 -12h358q12 0 12 12v529l8 12q26 37 68 37h96q31 0 31 -35v-543q0 -12 14 -12zM1202 1425v97q0 14 -16 14h-232
q-12 0 -12 -14v-39q0 -22 -22.5 -27t-47.5 12q-19 12 -49 27t-83 31t-97 16q-81 0 -127.5 -43.5t-46.5 -124.5v-96q0 -14 16 -14h240q12 0 12 14v31q0 25 22.5 32t47.5 -10q116 -74 221 -74q81 0 127.5 43.5t46.5 124.5zM930 1577h303q14 0 14 -14v-140q0 -97 -53 -153
l-72 -74h119q62 0 96.5 -30.5t34.5 -90.5v-788q0 -9 -8 -17l-256 -262q-8 -8 -18 -8h-445q-14 0 -14 14v111l-113 -117q-8 -8 -22 -8h-437q-14 0 -14 14v889q0 9 6 15l113 114v96q0 39 11.5 66.5t39.5 60.5l254 263q72 67 174 67q106 0 219 -61l41 43q10 10 27 10z" />
    <glyph glyph-name="ograve" unicode="&#xf2;" 
d="M432 307h813q40 0 65 23.5t25 64.5v674q0 41 -24 63.5t-66 22.5h-813q-41 0 -65.5 -23t-24.5 -63v-674q0 -39 26 -63.5t64 -24.5zM920 567h-156q-12 0 -22.5 10t-10.5 23v262q0 15 9.5 25t23.5 10h156q13 0 21.5 -10t8.5 -25v-262q0 -14 -8.5 -23.5t-21.5 -9.5zM692 1264
h285q8 0 12.5 6.5t1.5 13.5l-121 275q-6 12 -18 12h-315q-8 0 -12 -7t-1 -12l148 -274q6 -14 20 -14zM305 1145l-88 166q-4 12 4 20l262 271q10 10 23 10h373q20 0 28 -19l131 -299q15 -36 -14 -65l-33 -33h258q62 0 96.5 -30.5t34.5 -90.5v-686q0 -53 -43 -96l-245 -250
q-43 -43 -115 -43h-848q-39 0 -65.5 24.5t-26.5 63.5v725q0 49 33 88l233 242z" />
    <glyph glyph-name="oacute" unicode="&#xf3;" 
d="M432 307h813q40 0 65 23.5t25 64.5v674q0 41 -24 63.5t-66 22.5h-813q-41 0 -65.5 -23t-24.5 -63v-674q0 -39 26 -63.5t64 -24.5zM920 567h-156q-12 0 -22.5 10t-10.5 23v262q0 15 9.5 25t23.5 10h156q13 0 21.5 -10t8.5 -25v-262q0 -14 -8.5 -23.5t-21.5 -9.5zM707 1264
h286q15 0 23 16l145 268q5 8 2 15.5t-10 7.5h-319q-5 0 -11.5 -4t-7.5 -8l-119 -275q-3 -8 -0.5 -14t11.5 -6zM977 0h-848q-39 0 -65.5 24.5t-26.5 63.5v725q0 49 33 88l233 242q50 53 123 53h59l80 186q6 12 15 21l194 199q10 10 27 10h403q12 0 19.5 -15t-0.5 -32
l-164 -312q-9 -18 -27 -36l-20 -21h237q62 0 96.5 -30.5t34.5 -90.5v-686q0 -53 -43 -96l-245 -250q-43 -43 -115 -43z" />
    <glyph glyph-name="ocircumflex" unicode="&#xf4;" 
d="M432 307h813q40 0 65 23.5t25 64.5v674q0 41 -24 63.5t-66 22.5h-813q-41 0 -65.5 -23t-24.5 -63v-674q0 -39 26 -63.5t64 -24.5zM920 567h-156q-12 0 -22.5 10t-10.5 23v262q0 15 9.5 25t23.5 10h156q13 0 21.5 -10t8.5 -25v-262q0 -14 -8.5 -23.5t-21.5 -9.5zM920 1264
h172q10 0 13.5 9t-1.5 15l-191 271q-9 12 -24 12h-92q-14 0 -23 -12l-201 -275q-5 -6 -1.5 -13t12.5 -7h180q16 0 27 16l51 76l51 -78q8 -14 27 -14zM977 0h-848q-39 0 -65.5 24.5t-26.5 63.5v725q0 49 33 88l233 242q27 30 57 43l142 203q16 22 28 32l207 176q15 15 35 15
h119q44 0 63 -29l201 -283q13 -21 9.5 -37t-25.5 -40l-27 -27h137q62 0 96.5 -30.5t34.5 -90.5v-686q0 -53 -43 -96l-245 -250q-43 -43 -115 -43z" />
    <glyph glyph-name="otilde" unicode="&#xf5;" 
d="M432 307h813q40 0 65 23.5t25 64.5v674q0 41 -24 63.5t-66 22.5h-813q-41 0 -65.5 -23t-24.5 -63v-674q0 -39 26 -63.5t64 -24.5zM920 567h-156q-12 0 -22.5 10t-10.5 23v262q0 15 9.5 25t23.5 10h156q13 0 21.5 -10t8.5 -25v-262q0 -14 -8.5 -23.5t-21.5 -9.5z
M1200 1425v97q0 14 -16 14h-232q-12 0 -12 -14v-39q0 -22 -22.5 -27t-47.5 12q-19 12 -49 27t-83 31t-97 16q-81 0 -127.5 -43.5t-46.5 -124.5v-96q0 -14 16 -14h240q12 0 12 14v31q0 25 22.5 32t47.5 -10q116 -74 221 -74q81 0 127.5 43.5t46.5 124.5zM928 1577h303
q14 0 14 -14v-140q0 -97 -53 -153l-72 -74h129q62 0 96.5 -30.5t34.5 -90.5v-686q0 -53 -43 -96l-245 -250q-43 -43 -115 -43h-848q-39 0 -65.5 24.5t-26.5 63.5v725q0 49 33 88l92 94v133q0 39 11.5 66.5t39.5 60.5l254 263q72 67 174 67q106 0 219 -61l41 43q10 10 27 10z
" />
    <glyph glyph-name="odieresis" unicode="&#xf6;" 
d="M432 307h813q40 0 65 23.5t25 64.5v674q0 41 -24 63.5t-66 22.5h-813q-41 0 -65.5 -23t-24.5 -63v-674q0 -39 26 -63.5t64 -24.5zM920 567h-156q-12 0 -22.5 10t-10.5 23v262q0 15 9.5 25t23.5 10h156q13 0 21.5 -10t8.5 -25v-262q0 -14 -8.5 -23.5t-21.5 -9.5zM489 1264
h273q12 0 12 14v252q0 12 -12 12h-273q-6 0 -11 -4t-5 -10v-250q0 -14 16 -14zM924 1264h272q12 0 12 14v252q0 12 -12 12h-272q-6 0 -11.5 -4t-5.5 -10v-250q0 -14 17 -14zM977 0h-848q-39 0 -65.5 24.5t-26.5 63.5v725q0 49 33 88l137 141v289q0 9 6 15l221 227
q10 10 23 10h346q6 0 11 -5.5t5 -12.5v-43l49 51q10 10 23 10h346q6 0 11 -5.5t5 -12.5v-322q0 -8 -8 -16l-31 -31h35q62 0 96.5 -30.5t34.5 -90.5v-686q0 -53 -43 -96l-245 -250q-43 -43 -115 -43z" />
    <glyph glyph-name="oslash" unicode="&#xf8;" 
d="M1221 1196h28q62 0 96.5 -30.5t34.5 -90.5v-686q0 -56 -43 -96l-245 -250q-49 -43 -117 -43h-379l-145 -150q-13 -10 -23 -10h-254q-11 0 -19.5 12.5t-2.5 26.5l63 121h-86q-39 0 -65.5 24.5t-26.5 63.5v725q0 49 33 88l233 242q50 53 123 53h399l119 123q16 16 35 16
h229q29 0 42 -23t-1 -57zM1335 395v674q0 41 -24 63.5t-66 22.5h-92l55 117q4 9 0.5 15.5t-12.5 6.5h-180q-18 0 -25 -14q-34 -72 -59 -125h-500q-41 0 -65.5 -23t-24.5 -63v-674q0 -39 26 -63.5t64 -24.5h96l-65 -135q-5 -8 -0.5 -16.5t14.5 -8.5h178q19 0 29 19l68 141
h493q40 0 65 23.5t25 64.5zM692 608v262q0 15 9.5 25t23.5 10h102zM961 559h-105l135 299v-266q0 -14 -8.5 -23.5t-21.5 -9.5z" />
    <glyph glyph-name="ugrave" unicode="&#xf9;" horiz-adv-x="1409" 
d="M1323 395v746q0 14 -12 14h-361q-14 0 -14 -14v-541q0 -14 -9 -23.5t-22 -9.5h-137q-15 0 -25 9.5t-10 23.5v541q0 14 -12 14h-359q-16 0 -16 -14v-746q0 -39 26 -63.5t64 -24.5h797q41 0 65.5 24t24.5 64zM690 1264h285q8 0 12.5 6.5t1.5 13.5l-121 275q-6 12 -18 12
h-315q-8 0 -12 -7t-1 -12l148 -274q6 -14 20 -14zM291 1169l-76 142q-4 12 4 20l262 271q10 10 23 10h373q20 0 28 -19l131 -299q15 -36 -14 -65l-33 -33h361q7 0 12.5 -6t5.5 -14v-787q0 -53 -43 -96l-246 -250q-49 -43 -116 -43h-830q-43 0 -67.5 25t-24.5 63v815
q0 9 6 15z" />
    <glyph glyph-name="uacute" unicode="&#xfa;" horiz-adv-x="1409" 
d="M1323 395v746q0 14 -12 14h-361q-14 0 -14 -14v-541q0 -14 -9 -23.5t-22 -9.5h-137q-15 0 -25 9.5t-10 23.5v541q0 14 -12 14h-359q-16 0 -16 -14v-746q0 -39 26 -63.5t64 -24.5h797q41 0 65.5 24t24.5 64zM702 1264h287q15 0 23 16l145 268q5 8 2 15.5t-10 7.5h-320
q-14 0 -18 -12l-119 -275q-8 -20 10 -20zM1008 1196h342q7 0 12.5 -6t5.5 -14v-787q0 -53 -43 -96l-246 -250q-49 -43 -116 -43h-830q-43 0 -67.5 25t-24.5 63v815q0 9 6 15l260 268q10 10 23 10h151l80 186q7 14 14 21l195 199q10 10 27 10h403q12 0 19.5 -15t-0.5 -32
l-164 -312q-9 -18 -27 -36z" />
    <glyph glyph-name="ucircumflex" unicode="&#xfb;" horiz-adv-x="1409" 
d="M1323 395v746q0 14 -12 14h-361q-14 0 -14 -14v-541q0 -14 -9 -23.5t-22 -9.5h-137q-15 0 -25 9.5t-10 23.5v541q0 14 -12 14h-359q-16 0 -16 -14v-746q0 -39 26 -63.5t64 -24.5h797q41 0 65.5 24t24.5 64zM911 1264h172q10 0 14 9t-1 15l-191 271q-9 12 -24 12h-93
q-13 0 -22 -12l-201 -275q-5 -6 -2 -13t12 -7h181q15 0 26 16l52 76l51 -78q8 -14 26 -14zM1104 1196h246q7 0 12.5 -6t5.5 -14v-787q0 -53 -43 -96l-246 -250q-49 -43 -116 -43h-830q-43 0 -67.5 25t-24.5 63v815q0 9 6 15l260 268q10 10 23 10h30l134 193q16 22 28 32
l207 176q15 15 35 15h119q44 0 63 -29l201 -283q13 -21 9 -37t-26 -40z" />
    <glyph glyph-name="udieresis" unicode="&#xfc;" horiz-adv-x="1409" 
d="M1323 395v746q0 14 -12 14h-361q-14 0 -14 -14v-541q0 -14 -9 -23.5t-22 -9.5h-137q-15 0 -25 9.5t-10 23.5v541q0 14 -12 14h-359q-16 0 -16 -14v-746q0 -39 26 -63.5t64 -24.5h797q41 0 65.5 24t24.5 64zM485 1264h273q12 0 12 14v252q0 12 -12 12h-273q-6 0 -11 -4
t-5 -10v-250q0 -14 16 -14zM920 1264h272q12 0 12 14v252q0 12 -12 12h-272q-6 0 -11.5 -4t-5.5 -10v-250q0 -14 17 -14zM1210 1196h140q7 0 12.5 -6t5.5 -14v-787q0 -53 -43 -96l-246 -250q-49 -43 -116 -43h-830q-43 0 -67.5 25t-24.5 63v815q0 9 6 15l156 159v254
q0 9 6 15l221 227q10 10 23 10h346q6 0 11 -5.5t5 -12.5v-43l49 51q10 10 23 10h346q6 0 11 -5.5t5 -12.5v-322q0 -8 -8 -16z" />
    <glyph glyph-name="yacute" unicode="&#xfd;" horiz-adv-x="1411" 
d="M942 418v-99q0 -26 -17.5 -42.5t-45.5 -16.5h-433q-6 0 -11 -5t-5 -11v-230q0 -14 16 -14h658q91 0 156 67t65 171v903q0 14 -14 14h-359q-5 0 -9.5 -4t-4.5 -10v-514q0 -15 -9 -25t-22 -10h-137q-13 0 -24 10.5t-11 24.5v516q0 12 -12 12h-358q-6 0 -11.5 -4t-5.5 -10
v-697q0 -40 25.5 -64t64.5 -24h393q86 0 111 62zM705 1264h286q15 0 23 16l145 268q5 8 2 15.5t-10 7.5h-320q-14 0 -18 -12l-119 -275q-3 -8 -0.5 -14t11.5 -6zM1370 1178v-949q0 -134 -110 -247l-216 -220q-31 -31 -80.5 -50t-103.5 -19h-721q-14 0 -14 14v301q0 9 6 15
l41 43h-37q-43 0 -67.5 25.5t-24.5 62.5v749q0 9 6 15l260 268q10 10 23 10h151l80 186q6 12 15 21l194 199q10 10 27 10h403q12 0 19.5 -15t-0.5 -32l-164 -312q-9 -18 -27 -36l-20 -21h344q16 0 16 -18z" />
    <glyph glyph-name="thorn" unicode="&#xfe;" 
d="M920 567h-156q-13 0 -23 9.5t-10 23.5v262q0 14 9.5 24.5t23.5 10.5h156q30 0 30 -35v-264q0 -12 -8.5 -21.5t-21.5 -9.5zM782 1516v-330q10 10 33 10h434q62 0 96.5 -30.5t34.5 -90.5v-686q0 -56 -43 -96l-245 -250q-49 -43 -117 -43h-193v-20q0 -9 -8 -17l-256 -262
q-8 -8 -22 -8h-437q-14 0 -14 14v305v2v1229q0 8 6 14l260 269q10 10 23 10h430q18 0 18 -20zM365 0h360q12 0 12 12v357q11 -30 48.5 -46t82.5 -16h377q40 0 65 23.5t25 62.5v676q0 40 -24.5 63t-65.5 23h-422q-67 0 -86 -51v377q0 14 -12 14h-360q-15 0 -15 -14v-1159v-7
v-301q0 -14 15 -14z" />
    <glyph glyph-name="ydieresis" unicode="&#xff;" horiz-adv-x="1411" 
d="M942 418v-99q0 -26 -17.5 -42.5t-45.5 -16.5h-433q-6 0 -11 -5t-5 -11v-230q0 -14 16 -14h658q91 0 156 67t65 171v903q0 14 -14 14h-359q-5 0 -9.5 -4t-4.5 -10v-514q0 -15 -9 -25t-22 -10h-137q-13 0 -24 10.5t-11 24.5v516q0 12 -12 12h-358q-6 0 -11.5 -4t-5.5 -10
v-697q0 -40 25.5 -64t64.5 -24h393q86 0 111 62zM485 1264h273q12 0 12 14v252q0 12 -12 12h-273q-6 0 -11 -4t-5 -10v-250q0 -14 16 -14zM920 1264h272q12 0 12 14v252q0 12 -12 12h-272q-6 0 -11.5 -4t-5.5 -10v-250q0 -14 17 -14zM1370 1178v-949q0 -134 -110 -247
l-216 -220q-31 -31 -80.5 -50t-103.5 -19h-721q-14 0 -14 14v301q0 9 6 15l41 43h-37q-43 0 -67.5 25.5t-24.5 62.5v749q0 9 6 15l154 157v256q0 9 6 15l221 227q10 10 23 10h346q6 0 11 -5.5t5 -12.5v-43l49 51q10 10 23 10h346q6 0 11 -5.5t5 -12.5v-322q0 -8 -8 -16
l-31 -31h144q16 0 16 -18z" />
    <glyph glyph-name="dotlessi" unicode="&#x131;" horiz-adv-x="827" 
d="M367 307h358q12 0 12 12v822q0 14 -12 14h-360q-5 0 -10 -4t-5 -10v-822q0 -12 17 -12zM496 0h-437q-14 0 -14 14v889q0 9 6 15l260 268q10 10 23 10h430q18 0 18 -20v-889q0 -9 -8 -17l-256 -262q-12 -8 -22 -8z" />
    <glyph glyph-name="Lslash" unicode="&#x141;" horiz-adv-x="1552" 
d="M121 446l-98 -36q-6 -1 -10.5 2.5t-4.5 9.5v149q0 9 6 15l107 108v414q0 8 6 14l260 269q10 10 23 10h479q20 0 20 -21v-274l70 29q12 5 24.5 -2.5t12.5 -20.5v-158q0 -8 -8 -16l-99 -100v-166h604q19 0 19 -23v-362q0 -9 -8 -17l-256 -262q-8 -8 -23 -8h-1110
q-6 0 -10 4.5t-4 9.5v432zM864 928l94 39q13 7 13 16v90q0 16 -15 12l-92 -36v297q0 14 -14 14h-408q-6 0 -11 -5.5t-5 -11.5v-469l-98 -38q-15 -5 -15 -21v-86q0 -15 17 -12l96 37v-432q0 -15 16 -15h1031q14 0 14 15v294q0 15 -14 15h-609v297z" />
    <glyph glyph-name="lslash" unicode="&#x142;" horiz-adv-x="827" 
d="M45 494l-98 -39q-5 -2 -10 2t-5 10v149q0 8 7 15l106 108v504q0 8 6 14l260 269q10 10 23 10h430q18 0 18 -20v-386l64 25q12 4 22.5 -3.5t10.5 -21.5v-157q0 -8 -9 -17l-88 -90v-579q0 -9 -8 -17l-256 -262q-8 -8 -22 -8h-437q-14 0 -14 14v480zM737 952l84 33
q13 7 13 14v91q0 7 -4.5 11.5t-10.5 2.5l-82 -33v410q0 14 -12 14h-360q-5 0 -10 -4t-5 -10v-561l-98 -39q-14 -5 -14 -21v-86q0 -15 16 -12l96 37v-477q0 -15 15 -15h360q12 0 12 12v633z" />
    <glyph glyph-name="OE" unicode="&#x152;" horiz-adv-x="2265" 
d="M1090 1071q19 0 31 -12t12 -33v-385q0 -18 -12.5 -30.5t-30.5 -12.5h-308q-19 0 -31 12t-12 31v385q0 20 12.5 32.5t32.5 12.5h306zM2224 1001l-319 -327q-6 -6 2 -6h305q9 0 14.5 -7t5.5 -16v-358q0 -9 -8 -17l-254 -260q-10 -10 -22 -10h-1819q-40 0 -66 25t-26 63v930
q0 50 33 88l233 242q50 53 123 53h1788q18 0 18 -19v-360q0 -13 -8 -21zM1532 940q-6 0 -6 4v90q0 4 4 4h645q12 0 12 15v293q0 14 -12 14h-1743q-40 0 -65 -23.5t-25 -64.5v-877q0 -40 25.5 -64t64.5 -24h1743q12 0 12 15v290q0 15 -12 15h-643q-6 0 -6 4v90q0 6 6 6h336
q12 0 12 14v185q0 14 -12 14h-336z" />
    <glyph glyph-name="oe" unicode="&#x153;" horiz-adv-x="2107" 
d="M1946 1196q61 0 96 -30.5t35 -90.5v-422q0 -17 -12.5 -28t-30.5 -11q30 -7 30 -34v-291q0 -11 -8 -19l-256 -262q-8 -8 -18 -8h-789q-28 0 -55.5 15.5t-34.5 35.5q-13 -22 -43 -36.5t-59 -14.5h-672q-39 0 -65.5 24.5t-26.5 63.5v725q0 31 7.5 48.5t25.5 39.5l233 242
q50 53 123 53h666q70 0 98 -43q37 43 100 43h656zM2032 684v385q0 40 -24.5 63t-65.5 23h-646q-33 0 -64 -23.5t-42 -54.5q-9 36 -36.5 57t-66.5 21h-655q-41 0 -65.5 -23t-24.5 -63v-674q0 -39 26 -63.5t64 -24.5h655q32 0 62.5 23t42.5 57q10 -38 39.5 -59t62.5 -21h711
q14 0 14 15v231q0 14 -14 14h-539q-12 0 -22 10t-10 23v59q0 5 6 5h573q6 0 12.5 6.5t6.5 13.5zM920 897q13 0 21.5 -10t8.5 -25v-262q0 -14 -8.5 -23.5t-21.5 -9.5h-156q-12 0 -22.5 10t-10.5 23v262q0 15 9.5 25t23.5 10h156zM1645 897q30 0 30 -33v-59q0 -10 -10 -10
h-221q-10 0 -10 10v59q0 14 8.5 23.5t23.5 9.5h179z" />
    <glyph glyph-name="Scaron" unicode="&#x160;" horiz-adv-x="1542" 
d="M791 1038h626q17 0 17 17v291q0 14 -17 14h-846q-110 0 -176.5 -63.5t-66.5 -166.5v-172q0 -231 243 -231h435q53 0 53 -51q0 -49 -53 -49h-639q-6 0 -10.5 -4.5t-4.5 -10.5v-288q0 -17 15 -17h858q110 0 176.5 63.5t66.5 166.5v172q0 118 -59.5 174.5t-181.5 56.5h-436
q-54 0 -54 51q0 47 54 47zM823 1780h-243q-10 0 -14 -9.5t1 -15.5l183 -270q8 -10 24 -10h260q14 0 21 10l198 274q4 6 1 13.5t-11 7.5h-242q-17 0 -26 -17l-62 -137l-65 139q-8 15 -25 15zM379 1348l-107 200q-17 26 0 43l246 217q19 15 35 15h283q34 0 47 -23l14 -24
l35 30q20 17 43 17h295q26 0 35.5 -26.5t-5.5 -49.5l-188 -266q-19 -25 -37 -43l-37 -37h424q6 0 11.5 -5.5t5.5 -13.5v-360q0 -12 -13 -25l-57 -59q104 -65 104 -219v-187q0 -72 -26 -127.5t-84 -115.5l-203 -207q-53 -46 -104.5 -64t-132.5 -18h-902q-14 0 -14 14v328
q0 10 4 14l84 88q-51 26 -81.5 75.5t-30.5 107.5v237q0 57 17 110t44 83l231 237q38 38 64 54z" />
    <glyph glyph-name="scaron" unicode="&#x161;" horiz-adv-x="1357" 
d="M342 1067v-328q0 -35 29 -59.5t63 -24.5h430q16 0 27.5 -9.5t11.5 -27.5v-16q0 -35 -39 -35h-506q-6 0 -11 -4.5t-5 -9.5v-231q0 -6 5 -10.5t11 -4.5h830q40 0 65 23.5t25 62.5v330q0 40 -24.5 63t-65.5 23h-428q-17 0 -30 10.5t-13 24.5v16q0 15 13 26t28 11h506
q14 0 14 14v226q0 18 -18 18h-828q-40 0 -65 -23.5t-25 -64.5zM735 1569h-243q-10 0 -14 -9.5t1 -15.5l183 -270q7 -10 24 -10h260q14 0 21 10l198 274q4 6 1 13.5t-11 7.5h-242q-17 0 -26 -17l-62 -137l-65 139q-8 15 -25 15zM293 1133l-109 204q-17 26 0 43l246 217
q19 15 35 15h283q34 0 47 -23l14 -24l35 30q20 17 43 17h295q26 0 35.5 -26.5t-5.5 -49.5l-188 -266q-19 -25 -37 -43l-31 -31h344q10 0 16.5 -6.5t6.5 -15.5v-293q0 -11 -8 -19l-37 -37q45 -19 45 -92v-344q0 -50 -43 -96l-246 -250q-27 -24 -52 -33.5t-64 -9.5h-865
q-16 0 -16 14v273q0 16 8 24l51 54l-6 2q-23 10 -38 31t-15 40v375q0 49 33 88z" />
    <glyph glyph-name="Ydieresis" unicode="&#x178;" horiz-adv-x="1499" 
d="M944 1034l-184 314q-2 3 -9.5 7.5t-13.5 4.5h-422q-8 0 -12 -9t0 -16l422 -665v-348q0 -5 4 -10t10 -5h410q6 0 10 5t4 10v348l424 669q3 6 -2 13.5t-12 7.5h-418q-18 0 -25 -14l-180 -312q-3 -3 -6 0zM594 1475h272q13 0 13 14v252q0 12 -13 12h-272q-6 0 -11 -4t-5 -10
v-250q0 -14 16 -14zM1028 1475h272q13 0 13 14v252q0 12 -13 12h-272q-6 0 -11 -4t-5 -10v-250q0 -14 16 -14zM420 416l-424 686q-7 11 2 20l260 269q10 10 25 10h28v141q0 8 6 14l222 228q10 10 22 10h346q6 0 11.5 -5.5t5.5 -12.5v-43l49 51q10 10 22 10h346
q6 0 11.5 -5.5t5.5 -12.5v-322q0 -8 -8 -16l-37 -37h278q31 0 42.5 -27.5t-3.5 -50.5l-422 -668v-368q0 -9 -8 -17l-256 -262q-8 -8 -22 -8h-488q-14 0 -14 14v402z" />
    <glyph glyph-name="Zcaron" unicode="&#x17d;" horiz-adv-x="1495" 
d="M827 1030l-481 -397q-12 -9 -12 -25v-286q0 -15 16 -15h1053q6 0 10 5t4 10v294q0 15 -12 15h-506q-6 0 -2 4l487 401q9 6 9 17v293q0 5 -4.5 9.5t-10.5 4.5h-1028q-7 0 -11.5 -5.5t-4.5 -11.5v-292q0 -15 16 -15h477q6 0 0 -6zM801 1780h-244q-10 0 -13.5 -9.5
t1.5 -15.5l182 -270q7 -10 25 -10h260q13 0 20 10l199 274q4 6 1 13.5t-11 7.5h-242q-7 0 -15.5 -5.5t-11.5 -11.5l-61 -137l-66 139q-7 15 -24 15zM346 1401l-96 147q-17 26 0 43l246 217q19 15 34 15h283q34 0 47 -23l14 -24l35 30q20 17 43 17h295q26 0 36 -26.5
t-5 -49.5l-188 -266q-19 -25 -37 -43l-37 -37h403q19 0 19 -21v-364q0 -11 -8 -19l-320 -325h334q18 0 18 -19v-366q0 -9 -8 -17l-256 -262q-8 -8 -22 -8h-1133q-14 0 -14 14v338q0 8 6 17l244 266l24 24l82 64q1 1 1 3.5t-1 2.5h-342q-14 0 -14 14v365q0 8 6 14l260 269
q10 10 22 10h29z" />
    <glyph glyph-name="zcaron" unicode="&#x17e;" horiz-adv-x="1341" 
d="M760 862l-412 -262q-14 -8 -14 -25v-256q0 -12 16 -12h899q15 0 15 15v260q0 12 -15 12h-424q-2 0 -2.5 2t0.5 4l418 268q10 7 10 19v256q0 12 -16 12h-883q-18 0 -18 -14v-258q0 -15 16 -15h410q3 0 2 -4zM721 1569h-244q-10 0 -13.5 -9.5t1.5 -15.5l182 -270
q7 -10 25 -10h260q13 0 20 10l199 274q4 6 1 13.5t-11 7.5h-242q-7 0 -15.5 -5.5t-11.5 -11.5l-61 -137l-66 139q-7 15 -24 15zM279 1169l-109 168q-17 26 0 43l246 217q19 15 35 15h282q34 0 47 -23l15 -24l34 30q20 17 43 17h295q26 0 36 -26.5t-5 -49.5l-188 -266
q-19 -25 -37 -43l-31 -31h336q8 0 13 -5t5 -13v-326q0 -10 -8 -18l-194 -199h198q6 0 11.5 -6t5.5 -13v-329q0 -8 -9 -17l-256 -262q-11 -8 -22 -8h-979q-14 0 -14 14v330q0 8 6 14l192 199q2 4 -2 6h-180q-6 0 -11 4.5t-5 10.5v325q0 9 6 15z" />
    <glyph glyph-name="florin" unicode="&#x192;" horiz-adv-x="1198" 
d="M1190 1235q0 -8 -8 -16l-25 -23h17q6 0 11 -5.5t5 -12.5v-326q0 -10 -8 -18l-246 -252v-353q0 -133 -111 -247l-215 -220q-69 -69 -184 -69h-410q-6 0 -10 4.5t-4 9.5v283q0 8 6 14l191 211v348h-160q-14 0 -14 15v344q0 14 10 24l162 166v16q0 21 12 33l301 309
q60 66 180 66h481q8 0 13.5 -5.5t5.5 -14.5v-281zM1145 1255v226q0 14 -12 14h-439q-90 0 -135 -45t-45 -129v-166h-190q-17 0 -17 -14v-256q0 -6 5.5 -10.5t11.5 -4.5h180v-546q0 -30 -18.5 -47t-47.5 -17h-114q-6 0 -11.5 -4t-5.5 -10v-232q0 -14 15 -14h350
q90 0 154.5 66.5t64.5 169.5v634h239q15 0 15 15v256q0 14 -15 14h-239v43q0 45 43 45h199q12 0 12 12z" />
    <glyph glyph-name="circumflex" unicode="&#x2c6;" horiz-adv-x="851" 
d="M299 956h-276q-12 0 -19 14t0 27l268 392q14 19 29 32l207 176q15 15 35 15h119q44 0 63 -29l201 -283q13 -21 9 -37t-26 -40l-254 -260q-9 -7 -20 -7h-221q-15 0 -29 17l-23 33l-43 -43q-9 -7 -20 -7zM690 1264h172q10 0 13.5 9t-1.5 15l-190 271q-9 12 -25 12h-94
q-12 0 -20 -12l-201 -275q-5 -6 -2 -13t12 -7h181q16 0 26 16l51 76l52 -78q10 -14 26 -14z" />
    <glyph glyph-name="caron" unicode="&#x2c7;" horiz-adv-x="774" 
d="M213 973l-195 364q-17 26 0 43l246 217q19 15 35 15h283q34 0 47 -23l14 -24l35 30q20 17 43 17h295q26 0 36 -26.5t-5 -49.5l-189 -266q-19 -25 -37 -43l-258 -264q-9 -7 -20 -7h-301q-16 0 -29 17zM569 1569h-243q-10 0 -14 -9.5t1 -15.5l183 -270q7 -10 24 -10h260
q14 0 21 10l198 274q4 6 1 13.5t-11 7.5h-241q-18 0 -27 -17l-62 -137l-65 139q-8 15 -25 15z" />
    <glyph glyph-name="breve" unicode="&#x2d8;" horiz-adv-x="821" 
d="M16 1221q-11 26 0 43l236 274q13 16 33 16h284q29 0 49 -26l29 -35l31 37q18 24 55 24h271q26 0 37 -20.5t3 -50.5q-30 -109 -190 -273l-61 -63q-93 -95 -188 -143t-181 -48h-43q-65 0 -126 27.5t-102.5 66t-74 77.5t-47.5 67zM559 1513h-233q-11 0 -15 -8t0 -18
q4 -9 11.5 -24t36 -53.5t63 -68t93 -53.5t124.5 -24h35q53 0 99.5 12.5t78.5 32.5t58 44.5t42 48.5t26.5 44t14.5 32l4 13q7 22 -12 22h-233q-19 0 -27 -18q-9 -17 -27.5 -31t-40.5 -14q-42 0 -71 47q-11 16 -27 16z" />
    <glyph glyph-name="dotaccent" unicode="&#x2d9;" horiz-adv-x="622" 
d="M354 1264h273q12 0 12 14v252q0 14 -12 14h-273q-6 0 -11 -4.5t-5 -9.5v-252q0 -5 5 -9.5t11 -4.5zM397 956h-350q-14 0 -14 15v321q0 9 6 15l260 268q10 10 23 10h346q16 0 16 -18v-322q0 -10 -8 -18l-254 -260q-11 -11 -25 -11z" />
    <glyph glyph-name="ring" unicode="&#x2da;" horiz-adv-x="659" 
d="M436 1264h195q40 0 65 23.5t25 64.5v133q0 41 -24 63.5t-66 22.5h-195q-41 0 -65.5 -23t-24.5 -63v-133q0 -39 26 -63.5t64 -24.5zM559 1366h-45q-12 0 -22.5 10t-10.5 23v37q0 15 9.5 24.5t23.5 9.5h45q14 0 22.5 -9.5t8.5 -24.5v-37q0 -14 -9 -23.5t-22 -9.5zM362 956
h-229q-39 0 -65.5 23.5t-26.5 62.5v183q0 56 33 92l235 244q51 51 121 51h205q62 0 96.5 -30.5t34.5 -90.5v-148q0 -54 -43 -94l-246 -250q-49 -43 -115 -43z" />
    <glyph glyph-name="ogonek" unicode="&#x2db;" horiz-adv-x="604" 
d="M-229 -164v17q0 54 26.5 119t65.5 106l196 198l80 80q11 11 25 11h215q20 0 28 -20t-6 -42q-59 -83 -59 -115v-6q0 -6 5.5 -11t12.5 -5h193q22 0 32 -19t3 -34l-58 -113q-11 -22 -26 -37l-260 -266q-9 -6 -19 -6h-305q-61 0 -105 46.5t-44 96.5zM96 166v-8
q0 -61 45.5 -109.5t106.5 -48.5h215q11 0 18 10l49 96q8 21 -12 21h-176q-24 0 -38.5 12.5t-14.5 28.5v8q0 27 20 67t43 68q4 5 3.5 10t-5.5 5h-168q-9 0 -18 -9q-28 -28 -48 -70.5t-20 -80.5z" />
    <glyph glyph-name="tilde" unicode="&#x2dc;" horiz-adv-x="960" 
d="M1063 1425v97q0 14 -16 14h-232q-12 0 -12 -14v-39q0 -22 -22.5 -27t-47.5 12q-19 12 -49 27t-83 31t-97 16q-81 0 -127.5 -43.5t-46.5 -124.5v-96q0 -14 16 -14h240q12 0 12 14v31q0 25 22.5 32t47.5 -10q116 -74 221 -74q81 0 127.5 43.5t46.5 124.5zM791 1577h303
q14 0 14 -14v-140q0 -97 -53 -153l-246 -252q-37 -37 -75 -52.5t-89 -15.5q-109 0 -229 74l-56 -55q-13 -13 -34 -13h-287q-14 0 -14 15v157q0 39 11.5 66.5t39.5 60.5l254 263q72 67 174 67q106 0 219 -61l41 43q10 10 27 10z" />
    <glyph glyph-name="hungarumlaut" unicode="&#x2dd;" horiz-adv-x="1101" 
d="M324 1264h286q15 0 23 16l145 268q5 8 2 15.5t-10 7.5h-319q-5 0 -11.5 -4t-7.5 -8l-119 -275q-3 -8 -0.5 -14t11.5 -6zM817 1264h287q14 0 22 16l146 268q5 8 2 15.5t-10 7.5h-320q-14 0 -18 -12l-119 -275q-8 -20 10 -20zM874 956h-356q-12 0 -15.5 8t1.5 19l65 152
l-168 -172q-7 -7 -20 -7h-356q-12 0 -16 8t1 19l172 399q6 12 15 21l194 199q10 10 27 10h403q12 0 19.5 -15t-0.5 -32l-11 -21l56 58q10 10 26 10h404q12 0 19 -15t-1 -32l-164 -312q-10 -20 -26 -36l-248 -254q-7 -7 -21 -7z" />
    <glyph glyph-name="pi" unicode="&#x3c0;" horiz-adv-x="1419" 
d="M956 307h361q12 0 12 15v821q0 12 -12 12h-361q-14 0 -14 -16v-62q-15 35 -55.5 56.5t-85.5 21.5h-369q-41 0 -65.5 -23t-24.5 -63v-674q0 -40 25.5 -64t64.5 -24h402q86 0 108 64v-49q0 -15 14 -15zM920 567h-156q-12 0 -22.5 10t-10.5 23v262q0 15 9.5 25t23.5 10h156
q30 0 30 -35v-262q0 -13 -9.5 -23t-20.5 -10zM563 0h-434q-43 0 -67.5 25t-24.5 63v725q0 50 33 88l233 242q47 53 123 53h379q65 0 96 -27l17 17q10 10 26 10h414q16 0 16 -16v-893q0 -13 -8 -17l-256 -262q-8 -8 -18 -8h-433q-5 0 -9.5 5t-4.5 9v15q-13 -11 -37 -20
t-45 -9z" />
    <glyph glyph-name="endash" unicode="&#x2013;" horiz-adv-x="1368" 
d="M358 621h916q12 0 12 14v297q0 12 -12 12h-916q-16 0 -16 -14v-295q0 -14 16 -14zM1047 313h-996q-14 0 -14 15v364q0 9 6 15l260 268q10 10 23 10h987q18 0 18 -20v-365q0 -8 -8 -16l-256 -262q-9 -9 -20 -9z" />
    <glyph glyph-name="emdash" unicode="&#x2014;" horiz-adv-x="1572" 
d="M358 621h1121q12 0 12 14v297q0 12 -12 12h-1121q-16 0 -16 -14v-295q0 -14 16 -14zM1251 313h-1200q-14 0 -14 15v364q0 9 6 15l260 268q10 10 23 10h1192q18 0 18 -20v-365q0 -8 -8 -16l-256 -262q-9 -9 -21 -9z" />
    <glyph glyph-name="quoteleft" unicode="&#x2018;" horiz-adv-x="823" 
d="M545 1192v154q0 14 -15 14h-165q-15 0 -15 -14v-494q0 -14 15 -14h366q14 0 14 14v315q0 15 -14 15h-176q-10 0 -10 10zM602 1229h172q17 0 17 -15v-397q0 -7 -9 -16l-254 -260q-11 -11 -24 -11h-441q-18 0 -18 19v559q0 8 8 16l258 267q10 10 23 10h239q17 0 17 -17
v-143q0 -12 12 -12z" />
    <glyph glyph-name="quoteright" unicode="&#x2019;" horiz-adv-x="823" 
d="M541 1001v-149q0 -14 14 -14h166q12 0 12 14v494q0 14 -12 14h-367q-7 0 -11.5 -4.5t-4.5 -9.5v-320q0 -14 16 -14h176q11 0 11 -11zM240 705h-193q-14 0 -14 14v389q0 8 6 14l260 269q10 10 23 10h440q16 0 16 -19v-563q0 -10 -8 -18l-254 -260q-11 -11 -22 -11h-226
q-7 0 -12.5 5.5t-5.5 11.5v145q0 13 -10 13z" />
    <glyph glyph-name="quotesinglbase" unicode="&#x201a;" horiz-adv-x="823" 
d="M541 297v-150q0 -14 14 -14h166q12 0 12 14v494q0 14 -12 14h-367q-7 0 -11.5 -4.5t-4.5 -9.5v-319q0 -15 16 -15h176q11 0 11 -10zM240 0h-193q-14 0 -14 14v389q0 9 6 15l260 268q10 10 23 10h440q16 0 16 -18v-563q0 -11 -8 -19l-254 -260q-10 -10 -22 -10h-226
q-7 0 -12.5 5t-5.5 11v146q0 12 -10 12z" />
    <glyph glyph-name="quotedblleft" unicode="&#x201c;" horiz-adv-x="1404" 
d="M545 1192v154q0 14 -15 14h-165q-15 0 -15 -14v-494q0 -14 15 -14h366q14 0 14 14v315q0 15 -14 15h-176q-10 0 -10 10zM1126 1192v154q0 14 -14 14h-166q-14 0 -14 -14v-494q0 -14 14 -14h367q14 0 14 14v315q0 15 -14 15h-176q-11 0 -11 10zM1184 1229h172q16 0 16 -15
v-397q0 -8 -8 -16l-254 -260q-11 -11 -25 -11h-440q-18 0 -18 19v92l-99 -100q-11 -11 -24 -11h-441q-18 0 -18 19v559q0 8 8 16l258 267q10 10 23 10h239q17 0 17 -17v-143q0 -12 12 -12h133l158 162q10 10 22 10h240q16 0 16 -17v-143q0 -12 13 -12z" />
    <glyph glyph-name="quotedblright" unicode="&#x201d;" horiz-adv-x="1404" 
d="M541 1001v-149q0 -14 14 -14h166q12 0 12 14v494q0 14 -12 14h-367q-7 0 -11.5 -4.5t-4.5 -9.5v-320q0 -14 16 -14h176q11 0 11 -11zM1122 1001v-149q0 -14 15 -14h166q12 0 12 14v494q0 14 -12 14h-367q-7 0 -11.5 -4.5t-4.5 -9.5v-320q0 -14 16 -14h176q10 0 10 -11z
M240 705h-193q-14 0 -14 14v389q0 8 6 14l260 269q10 10 23 10h440q16 0 16 -19v-98l103 107q10 10 22 10h440q7 0 12 -5.5t5 -13.5v-563q0 -10 -8 -18l-254 -260q-11 -11 -23 -11h-225q-7 0 -13 5.5t-6 11.5v145q0 13 -10 13h-145l-160 -164q-11 -11 -22 -11h-226
q-7 0 -12.5 5.5t-5.5 11.5v145q0 13 -10 13z" />
    <glyph glyph-name="quotedblbase" unicode="&#x201e;" horiz-adv-x="1404" 
d="M541 297v-150q0 -14 14 -14h166q12 0 12 14v494q0 14 -12 14h-367q-7 0 -11.5 -4.5t-4.5 -9.5v-319q0 -15 16 -15h176q11 0 11 -10zM1122 297v-150q0 -14 15 -14h166q12 0 12 14v494q0 14 -12 14h-367q-7 0 -11.5 -4.5t-4.5 -9.5v-319q0 -15 16 -15h176q10 0 10 -10z
M240 0h-193q-14 0 -14 14v389q0 9 6 15l260 268q10 10 23 10h440q16 0 16 -18v-98l103 106q10 10 22 10h440q17 0 17 -18v-563q0 -11 -8 -19l-254 -260q-10 -10 -23 -10h-225q-7 0 -13 5t-6 11v146q0 12 -10 12h-145l-160 -164q-10 -10 -22 -10h-226q-7 0 -12.5 5t-5.5 11
v146q0 12 -10 12z" />
    <glyph glyph-name="dagger" unicode="&#x2020;" horiz-adv-x="1079" 
d="M555 324h-307q-15 0 -15 14v319h-186q-14 0 -14 15v272q0 8 6 14l258 267q12 12 25 12h28l150 154q10 10 22 10h301q8 0 13.5 -6t5.5 -15v-143h182q18 0 18 -20v-256q0 -11 -8 -19l-192 -197v-133q0 -10 -8 -18l-256 -262q-8 -8 -23 -8zM555 631h229q13 0 13 14v334h188
q12 0 12 14v191q0 12 -12 12h-188v152q0 12 -13 12h-229q-16 0 -16 -14v-150h-185q-16 0 -16 -16v-187q0 -14 16 -14h185v-334q0 -14 16 -14z" />
    <glyph glyph-name="daggerdbl" unicode="&#x2021;" horiz-adv-x="1079" 
d="M571 0h-323q-15 0 -15 14v170h-186q-14 0 -14 15v262q0 8 6 14l186 193h-178q-14 0 -14 14v262q0 8 6 14l260 269q10 10 23 10h28l150 154q10 10 22 10h301q8 0 13.5 -6t5.5 -15v-143h182q18 0 18 -20v-256q0 -11 -8 -19l-184 -188h174q8 0 13 -6t5 -15v-256
q0 -10 -8 -18l-438 -449q-10 -10 -25 -10zM555 307h229q13 0 13 15v174h188q12 0 12 14v190q0 13 -12 13h-188v266h188q12 0 12 14v191q0 12 -12 12h-188v152q0 12 -13 12h-229q-16 0 -16 -17v-147h-183q-18 0 -18 -16v-187q0 -14 16 -14h185v-266h-185q-16 0 -16 -17v-186
q0 -14 16 -14h185v-174q0 -15 16 -15z" />
    <glyph glyph-name="bullet" unicode="&#x2022;" horiz-adv-x="884" 
d="M432 618h281q40 0 65 24t25 65v272q0 41 -24 63.5t-66 22.5h-281q-41 0 -65.5 -23t-24.5 -63v-272q0 -39 26 -64t64 -25zM444 311h-315q-39 0 -65.5 24.5t-26.5 63.5v322q0 57 33 90l233 242q53 53 111 53h303q62 0 96.5 -30.5t34.5 -90.5v-287q0 -51 -43 -94l-246 -250
q-49 -43 -115 -43z" />
    <glyph glyph-name="ellipsis" unicode="&#x2026;" horiz-adv-x="2469" 
d="M354 307h365q6 0 10 5t4 10v319q0 14 -12 14h-367q-6 0 -11 -4.5t-5 -9.5v-319q0 -5 5 -10t11 -5zM489 0h-442q-14 0 -14 14v389q0 9 6 15l260 268q10 10 23 10h440q16 0 16 -18v-389q0 -11 -8 -19l-254 -260q-10 -10 -27 -10zM1178 307h364q6 0 10 5t4 10v319
q0 14 -12 14h-366q-6 0 -11.5 -4.5t-5.5 -9.5v-319q0 -5 5.5 -10t11.5 -5zM1313 0h-443q-14 0 -14 14v389q0 9 6 15l260 268q10 10 23 10h440q17 0 17 -18v-389q0 -10 -9 -19l-254 -260q-10 -10 -26 -10zM2001 307h364q6 0 10.5 5t4.5 10v319q0 14 -13 14h-366
q-6 0 -11 -4.5t-5 -9.5v-319q0 -5 5 -10t11 -5zM2136 0h-442q-15 0 -15 14v389q0 8 7 15l260 268q10 10 22 10h440q17 0 17 -18v-389q0 -11 -8 -19l-254 -260q-10 -10 -27 -10z" />
    <glyph glyph-name="perthousand" unicode="&#x2030;" horiz-adv-x="3031" 
d="M764 307h328q12 0 22 15l629 1013q5 6 2 15.5t-12 9.5h-328q-15 0 -25 -17l-630 -1011q-5 -8 -0.5 -16.5t14.5 -8.5zM1630 307h443q40 0 65 23.5t25 64.5v371q0 41 -24 63.5t-66 22.5h-443q-41 0 -65.5 -23t-24.5 -63v-371q0 -39 26 -63.5t64 -24.5zM1896 496h-71
q-12 0 -22.5 9.5t-10.5 22.5v119q0 15 9.5 25t23.5 10h71q13 0 22 -10t9 -25v-119q0 -14 -9 -23t-22 -9zM428 815h442q40 0 65.5 23.5t25.5 64.5v371q0 41 -24.5 63.5t-66.5 22.5h-442q-41 0 -65.5 -23t-24.5 -63v-371q0 -39 26 -63.5t64 -24.5zM694 1004h-71
q-12 0 -22.5 9.5t-10.5 22.5v119q0 15 9.5 25t23.5 10h71q13 0 22 -10t9 -25v-119q0 -14 -9 -23t-22 -9zM2421 307h442q40 0 65 23.5t25 64.5v371q0 41 -24 63.5t-66 22.5h-442q-41 0 -65.5 -23t-24.5 -63v-371q0 -39 26 -63.5t64 -24.5zM2687 496h-72q-12 0 -22 9.5
t-10 22.5v119q0 15 9 25t23 10h72q13 0 22 -10t9 -25v-119q0 -14 -9 -23t-22 -9zM2208 752l84 88q50 53 123 53h452q62 0 96.5 -30.5t34.5 -90.5v-383q0 -56 -43 -96l-245 -250q-49 -43 -117 -43h-475q-39 0 -66 24.5t-27 63.5v64l-106 -109q-49 -43 -117 -43h-475
q-39 0 -65.5 24.5t-26.5 63.5v336l-72 -121q-14 -23 -30 -39l-248 -254q-10 -10 -27 -10h-526q-8 0 -13 9t0 18l308 489q-24 -8 -60 -8h-442q-39 0 -65.5 24.5t-26.5 63.5v422q0 32 7.5 50t25.5 38l233 242q53 53 123 53h452q62 0 97 -30.5t35 -90.5v-236l335 347
q10 10 27 10h389q26 0 37 -24t-8 -56l-311 -506q69 78 149 78h453q62 0 96.5 -30.5t34.5 -90.5v-20z" />
    <glyph glyph-name="guilsinglleft" unicode="&#x2039;" horiz-adv-x="884" 
d="M705 1151l159 -156q10 -11 7.5 -26.5t-13.5 -28.5l-188 -207l190 -198q10 -10 12 -25t-8 -31l-147 -162q-3 -4 -37 -38l-231 -236q-20 -20 -41 -2l-383 397q-16 18 -17.5 29t12.5 31l275 297l334 354q36 36 76 2zM821 977l-137 135q-16 16 -33 0l-321 -350q-29 -33 0 -66
l325 -348q15 -14 29 0l137 146q9 11 -2 22q-203 209 -209 213q-3 3 0 6l209 221q11 12 2 21z" />
    <glyph glyph-name="guilsinglright" unicode="&#x203a;" horiz-adv-x="880" 
d="M193 53l-152 164q-11 11 -11.5 27t9.5 28l174 181l-190 206q-11 11 -14 26t9 30q52 54 209.5 215.5t208.5 214.5q40 40 80 0l340 -365q41 -47 -6 -104q-305 -331 -334 -363q-47 -50 -133.5 -139.5t-114.5 -118.5q-17 -17 -38.5 -17t-36.5 15zM324 483l137 -135
q17 -16 33 0l319 348q15 17 15 35.5t-13 32.5l-326 348q-14 14 -28 0l-137 -145q-9 -12 2 -23q203 -209 209 -213q3 -3 0 -6l-209 -221q-12 -12 -2 -21z" />
    <glyph glyph-name="fraction" unicode="&#x2044;" horiz-adv-x="1054" 
d="M135 57h336q19 0 29 19l674 1397q4 9 0 15.5t-13 6.5h-338q-17 0 -24 -14l-678 -1399q-5 -8 -0.5 -16.5t14.5 -8.5zM238 -250h-451q-12 0 -20.5 13t-2.5 26l685 1409q11 18 16 23l289 299q16 16 34 16h386q29 0 41.5 -23t-1.5 -57l-677 -1409q-5 -10 -19 -24l-258 -265
q-8 -8 -22 -8z" />
    <glyph glyph-name="Euro" unicode="&#x20ac;" horiz-adv-x="1581" 
d="M1313 641h217q16 0 16 -18v-336q0 -9 -8 -17l-256 -262q-11 -8 -22 -8h-828q-124 0 -197 63t-73 168v136h-127q-15 0 -15 14v162q0 7 7 14l16 18h-8q-6 0 -10.5 4.5t-4.5 10.5v143q0 8 7 15l135 139q0 117 59 182l228 234q88 98 251 98h830q16 0 16 -19v-329
q0 -15 -8 -23l-225 -231v-158zM1501 322v262q0 14 -14 14h-553q-70 0 -70 70v16h391q13 0 13 14v93q0 12 -13 12h-391v63h391q13 0 13 15v92q0 12 -13 12h-391v21q0 32 16.5 46.5t53.5 14.5h555q12 0 12 14v265q0 14 -12 14h-780q-121 0 -181.5 -56.5t-60.5 -175.5v-143
h-125q-16 0 -16 -14v-90q0 -15 16 -15h125v-63h-125q-16 0 -16 -15v-90q0 -14 16 -14h125v-145q0 -105 66 -168.5t176 -63.5h778q14 0 14 15z" />
    <glyph glyph-name="trademark" unicode="&#x2122;" horiz-adv-x="1667" 
d="M520 901h185q6 0 10 5.5t4 11.5v266h151q13 0 13 14v148q0 14 -13 14h-524q-7 0 -11.5 -4.5t-4.5 -9.5v-148q0 -14 16 -14h160v-269q0 -5 4 -9.5t10 -4.5zM1376 1120v-205q0 -14 17 -14h184q12 0 12 14v431q0 5 -4 9.5t-8 4.5h-207q-9 0 -12 -8l-90 -152q-2 -3 -6 -3
t-7 3l-86 152q-4 8 -12 8h-205q-16 0 -16 -17v-428q0 -6 5 -10t11 -4h183q5 0 9.5 4t4.5 10v205l108 -155q6 -9 15 0zM1065 608v133l-135 -139q-8 -8 -23 -8h-282q-15 0 -15 14v107l-110 -113q-8 -8 -21 -8h-262q-6 0 -11 4t-5 10v254h-162q-14 0 -14 12v234q0 8 6 14
l260 269q10 10 22 10h867q13 0 18 -8l47 -88q4 -4 6 -2l80 90q12 8 21 8h264q18 0 18 -19v-501q0 -9 -8 -17l-256 -262q-8 -8 -22 -8h-267q-16 0 -16 14z" />
    <glyph glyph-name="Delta" unicode="&#x2206;" horiz-adv-x="1024" 
 />
    <glyph glyph-name="product" unicode="&#x220f;" 
d="M440 0h672q90 0 154.5 67.5t64.5 170.5v903q0 14 -14 14h-354q-19 0 -19 -18v-33q-19 51 -86 51h-426q-41 0 -65.5 -23t-24.5 -63v-625q0 -42 25 -65t65 -23h408q87 0 110 62v-96q0 -27 -17 -44.5t-44 -17.5h-449q-6 0 -11 -5.5t-5 -10.5v-230q0 -14 16 -14zM877 -307
h-742q-16 0 -16 14v295q0 13 10 23l23 24h-23q-43 0 -67.5 25.5t-24.5 62.5v676q0 50 33 88l233 242q47 53 123 53h434q16 0 29.5 -4t19.5 -8l6 -4q11 16 27 16h416q7 0 12.5 -5t5.5 -13v-949q0 -134 -110 -247l-230 -234q-24 -24 -67.5 -39.5t-91.5 -15.5zM918 592h-154
q-12 0 -22.5 10t-10.5 23v237q0 15 9.5 25t23.5 10h156q30 0 30 -35v-237q0 -14 -9.5 -23.5t-22.5 -9.5z" />
    <glyph glyph-name="minus" unicode="&#x2212;" horiz-adv-x="1058" 
d="M358 686h607q12 0 12 12v283q0 5 -4.5 9.5t-7.5 4.5h-607q-6 0 -11 -4t-5 -10v-283q0 -12 16 -12zM735 379h-684q-14 0 -14 14v348q0 11 6 17l260 268q10 10 23 10h678q18 0 18 -20v-350q0 -9 -8 -17l-256 -262q-8 -8 -23 -8z" />
    <glyph glyph-name="radical" unicode="&#x221a;" horiz-adv-x="3244" 
d="M1130 1155h-239v43q0 45 43 45h199q12 0 12 12v226q0 14 -12 14h-439q-90 0 -135 -45t-45 -129v-166h-190q-17 0 -17 -14v-256q0 -6 5.5 -10.5t11.5 -4.5h180v-551q0 -12 14 -12h361q12 0 12 12v551h239q15 0 15 15v256q0 14 -15 14zM199 563h-160q-14 0 -14 15v344
q0 14 10 24l162 166v16q0 21 12 33l301 309q63 66 180 66h481q8 0 13.5 -5.5t5.5 -14.5v-281q0 -8 -8 -16l-25 -23h17q6 0 11 -5.5t5 -12.5v-326q0 -10 -8 -18l-246 -252v-295q0 -9 -8 -17l-254 -260q-10 -10 -25 -10h-434q-16 0 -16 14v549zM2343 1155h-240v43q0 45 43 45
h199q12 0 12 12v226q0 14 -12 14h-438q-90 0 -135.5 -45t-45.5 -129v-166h-190q-16 0 -16 -14v-256q0 -6 5 -10.5t11 -4.5h180v-551q0 -5 4.5 -8.5t10.5 -3.5h360q12 0 12 12v551h240q14 0 14 15v256q0 14 -14 14zM1411 563h-160q-14 0 -14 15v344q0 14 10 24l162 166v16
q0 21 12 33l301 309q63 66 181 66h481q18 0 18 -20v-281q0 -8 -8 -16l-24 -23h16q6 0 11 -5.5t5 -12.5v-326q0 -10 -8 -18l-246 -252v-295q0 -9 -8 -17l-254 -260q-10 -10 -24 -10h-435q-16 0 -16 14v549zM2507 958h-31q-14 0 -14 15v266q0 12 6 18l260 269q10 10 22 10h431
q18 0 18 -18v-281q0 -10 -8 -18l-27 -23h17q7 0 12.5 -5t5.5 -13v-889q0 -11 -8 -19l-256 -262q-8 -8 -21 -8h-438q-14 0 -14 14v889q0 9 6 15zM2783 307h359q12 0 12 12v824q0 12 -12 12h-359q-6 0 -11 -4t-5 -10v-822q0 -12 16 -12zM2781 1245h361q12 0 12 15v221
q0 14 -12 14h-361q-14 0 -14 -14v-221q0 -15 14 -15z" />
    <glyph glyph-name="approxequal" unicode="&#x2248;" horiz-adv-x="3248" 
d="M1130 1155h-239v43q0 45 43 45h199q12 0 12 12v226q0 14 -12 14h-439q-90 0 -135 -45t-45 -129v-166h-190q-17 0 -17 -14v-256q0 -6 5.5 -10.5t11.5 -4.5h180v-551q0 -12 14 -12h361q12 0 12 12v551h239q15 0 15 15v256q0 14 -15 14zM199 563h-160q-14 0 -14 15v344
q0 14 10 24l162 166v16q0 21 12 33l301 309q63 66 180 66h481q8 0 13.5 -5.5t5.5 -14.5v-281q0 -8 -8 -16l-25 -23h17q6 0 11 -5.5t5 -12.5v-326q0 -10 -8 -18l-246 -252v-295q0 -9 -8 -17l-254 -260q-10 -10 -25 -10h-434q-16 0 -16 14v549zM2343 1155h-240v43q0 45 43 45
h199q12 0 12 12v226q0 14 -12 14h-438q-90 0 -135.5 -45t-45.5 -129v-166h-190q-16 0 -16 -14v-256q0 -6 5 -10.5t11 -4.5h180v-551q0 -5 4.5 -8.5t10.5 -3.5h360q12 0 12 12v551h240q14 0 14 15v256q0 14 -14 14zM1411 563h-160q-14 0 -14 15v344q0 14 10 24l162 166v16
q0 21 12 33l301 309q63 66 181 66h481q18 0 18 -20v-281q0 -8 -8 -16l-24 -23h16q6 0 11 -5.5t5 -12.5v-326q0 -10 -8 -18l-246 -252v-295q0 -9 -8 -17l-254 -260q-10 -10 -24 -10h-435q-16 0 -16 14v549zM2785 307h361q12 0 12 12v1162q0 14 -12 14h-361q-5 0 -9.5 -4
t-4.5 -10v-1159q0 -15 14 -15zM2916 0h-436q-14 0 -14 14v1229q0 8 6 14l260 269q10 10 23 10h430q18 0 18 -20v-1229q0 -9 -8 -17l-256 -262q-8 -8 -23 -8z" />
    <glyph glyph-name="s_t" unicode="&#xfb06;" horiz-adv-x="2486" 
d="M918 0h-865q-16 0 -16 14v273q0 16 8 24l51 54l-6 2q-23 10 -38 31t-15 40v375q0 49 33 88l233 242q50 53 123 53h244l235 242q56 56 115.5 77t138.5 21h1030q17 0 17 -18v-322h233q17 0 17 -18v-326q0 -9 -9 -18l-190 -195h180q7 0 13 -5t6 -13v-332q0 -10 -9 -19
l-256 -262q-11 -8 -24 -8h-449q-90 0 -171 71.5t-81 161.5v330h-143v-174q0 -50 -43 -96l-246 -250q-27 -24 -52 -33.5t-64 -9.5zM342 1067v-328q0 -35 29 -59.5t63 -24.5h430q16 0 27.5 -9.5t11.5 -27.5v-16q0 -35 -39 -35h-506q-6 0 -11 -4.5t-5 -9.5v-231q0 -6 5 -10.5
t11 -4.5h830q40 0 65 23.5t25 62.5v330q0 40 -24.5 63t-65.5 23h-428q-17 0 -30 10.5t-13 24.5v16q0 15 13 26t28 11h506q14 0 14 14v289q0 28 18 46t43 18h435v-109h-213q-15 0 -15 -14v-256q0 -6 4.5 -10.5t10.5 -4.5h213v-331q0 -95 74 -163.5t173 -68.5h375q14 0 14 15
v264q0 12 -14 12h-178q-25 0 -41 17t-16 40v215h235q14 0 14 15v258q0 12 -14 12h-235v326q0 14 -15 14h-981q-241 0 -241 -231v-109h-492q-40 0 -65 -23.5t-25 -64.5z" />
    <glyph glyph-name="a.salt" horiz-adv-x="1419" 
d="M956 307h361q12 0 12 15v821q0 12 -12 12h-361q-14 0 -14 -16v-62q-15 35 -55.5 56.5t-85.5 21.5h-369q-41 0 -65.5 -23t-24.5 -63v-674q0 -40 25.5 -64t64.5 -24h402q86 0 108 64v-49q0 -15 14 -15zM920 567h-156q-12 0 -22.5 10t-10.5 23v262q0 15 9.5 25t23.5 10h156
q30 0 30 -35v-262q0 -13 -9.5 -23t-20.5 -10zM563 0h-434q-43 0 -67.5 25t-24.5 63v725q0 50 33 88l233 242q47 53 123 53h379q65 0 96 -27l17 17q10 10 26 10h414q16 0 16 -16v-893q0 -13 -8 -17l-256 -262q-8 -8 -18 -8h-433q-5 0 -9.5 5t-4.5 9v15q-13 -11 -37 -20
t-45 -9z" />
    <glyph glyph-name="g.salt" 
d="M440 0h672q90 0 154.5 67.5t64.5 170.5v903q0 14 -14 14h-354q-19 0 -19 -18v-33q-19 51 -86 51h-426q-41 0 -65.5 -23t-24.5 -63v-625q0 -42 25 -65t65 -23h408q87 0 110 62v-96q0 -27 -17 -44.5t-44 -17.5h-449q-6 0 -11 -5.5t-5 -10.5v-230q0 -14 16 -14zM877 -307
h-742q-16 0 -16 14v295q0 13 10 23l23 24h-23q-43 0 -67.5 25.5t-24.5 62.5v676q0 50 33 88l233 242q47 53 123 53h434q16 0 29.5 -4t19.5 -8l6 -4q11 16 27 16h416q7 0 12.5 -5t5.5 -13v-949q0 -134 -110 -247l-230 -234q-24 -24 -67.5 -39.5t-91.5 -15.5zM918 592h-154
q-12 0 -22.5 10t-10.5 23v237q0 15 9.5 25t23.5 10h156q30 0 30 -35v-237q0 -14 -9.5 -23.5t-22.5 -9.5z" />
    <glyph glyph-name="c_t" horiz-adv-x="2533" 
d="M1513 563h-143v-174q0 -53 -43 -96l-246 -250q-27 -24 -52 -33.5t-64 -9.5h-836q-39 0 -65.5 24t-26.5 64v725q0 51 33 88l233 242q50 53 123 53h291l235 242q56 56 115.5 77t138.5 21h1030q17 0 17 -18v-322h233q17 0 17 -18v-326q0 -9 -9 -18l-190 -195h180q7 0 13 -5
t6 -13v-332q0 -10 -9 -19l-256 -262q-11 -8 -24 -8h-449q-90 0 -171 71.5t-81 161.5v330zM2208 870h235q15 0 15 15v258q0 5 -4.5 8.5t-10.5 3.5h-235v326q0 14 -15 14h-981q-241 0 -241 -231v-109h-539q-40 0 -65 -23.5t-25 -62.5v-676q0 -39 25.5 -62.5t64.5 -23.5h801
q42 0 67 23.5t25 62.5v254q0 12 -14 12h-346q-15 0 -15 -14v-47q0 -13 -9 -22t-21 -9h-156q-12 0 -22.5 10t-10.5 23v262q0 14 10 24.5t23 10.5h156q12 0 21 -10t9 -23v-41q0 -14 15 -14h346q14 0 14 16v375q0 28 17.5 46t43.5 18h435v-109h-213q-15 0 -15 -14v-256
q0 -6 4.5 -10.5t10.5 -4.5h213v-331q0 -95 74 -163.5t173 -68.5h375q15 0 15 15v264q0 5 -4.5 8.5t-10.5 3.5h-178q-25 0 -41 17t-16 40v215z" />
    </font>
</defs>
</svg>
